<svg width="20" height="20" viewBox="0 0 20 20" fill="none" xmlns="http://www.w3.org/2000/svg">
<g clip-path="url(#clip0_582_107)">
<path d="M9.66135 18.7176H4.44488C3.10268 18.7176 2.01333 17.6243 2.01333 16.2861V3.71392C2.01333 2.37172 3.10663 1.28237 4.44488 1.28237H9.74624C10.1399 1.28237 10.4556 0.966653 10.4556 0.573005C10.4556 0.179357 10.1399 -0.136364 9.74624 -0.136364H4.44488C2.31938 -0.136364 0.594593 1.59287 0.594593 3.71392V16.2861C0.594593 18.4116 2.32383 20.1364 4.44488 20.1364H9.66135C10.055 20.1364 10.3707 19.8206 10.3707 19.427C10.3707 19.0327 10.0501 18.7176 9.66135 18.7176Z" fill="#101010" stroke="#101010" stroke-width="0.272727"/>
<path d="M19.1968 9.49943L15.5559 5.85858C15.2777 5.58037 14.8306 5.58037 14.5524 5.85858C14.2742 6.13679 14.2742 6.58391 14.5524 6.86212L16.9852 9.29487H5.68873C5.29508 9.29487 4.97936 9.61059 4.97936 10.0042C4.97936 10.3979 5.29508 10.7136 5.68873 10.7136H16.9852L14.5524 13.1464C14.2742 13.4246 14.2742 13.8717 14.5524 14.1499C14.6882 14.2857 14.8714 14.3596 15.0521 14.3596C15.23 14.3596 15.4146 14.2918 15.5525 14.1491L19.1935 10.5081C19.4746 10.227 19.4774 9.77531 19.1973 9.49994C19.1971 9.49977 19.197 9.4996 19.1968 9.49943Z" fill="#101010" stroke="#101010" stroke-width="0.272727"/>
</g>
<defs>
<clipPath id="clip0_582_107">
<rect width="20" height="20" fill="white"/>
</clipPath>
</defs>
</svg>
