<svg width="29" height="29" viewBox="0 0 29 29" fill="none" xmlns="http://www.w3.org/2000/svg">
<path d="M14.5 10.975C15.3264 10.975 16.1342 10.73 16.8212 10.2709C17.5083 9.81176 18.0439 9.15923 18.3601 8.39578C18.6763 7.63232 18.7591 6.79224 18.5978 5.98177C18.4366 5.17129 18.0387 4.42682 17.4544 3.8425C16.8701 3.25817 16.1256 2.86025 15.3151 2.69903C14.5046 2.53782 13.6646 2.62056 12.9011 2.93679C12.1376 3.25303 11.4851 3.78855 11.026 4.47563C10.5669 5.16272 10.3219 5.97052 10.3219 6.79688C10.3219 7.90498 10.7621 8.96771 11.5456 9.75126C12.3292 10.5348 13.3919 10.975 14.5 10.975ZM14.5 3.725C15.1076 3.725 15.7015 3.90516 16.2066 4.24271C16.7118 4.58025 17.1055 5.06001 17.338 5.62132C17.5705 6.18263 17.6314 6.80028 17.5128 7.39617C17.3943 7.99206 17.1018 8.53941 16.6721 8.96902C16.2425 9.39863 15.6952 9.6912 15.0993 9.80973C14.5034 9.92826 13.8858 9.86742 13.3244 9.63492C12.7631 9.40242 12.2834 9.00869 11.9458 8.50352C11.6083 7.99835 11.4281 7.40444 11.4281 6.79688C11.4281 5.98216 11.7518 5.20082 12.3279 4.62473C12.9039 4.04864 13.6853 3.725 14.5 3.725Z" fill="#0060D3" stroke="#0060D3" stroke-width="0.2"/>
<path d="M23.2094 17.3094V17.3093C23.2082 15.817 22.6148 14.3862 21.5596 13.331C20.5044 12.2758 19.0736 11.6825 17.5813 11.6812H17.5812L11.4188 11.6812L11.4187 11.6813C9.92639 11.6825 8.49559 12.2758 7.44039 13.331C6.38519 14.3862 5.79185 15.817 5.79062 17.3093V17.3094V25.8281C5.79062 25.9748 5.8489 26.1155 5.95263 26.2192C6.05636 26.323 6.19705 26.3813 6.34375 26.3813H22.6562C22.8029 26.3813 22.9436 26.323 23.0474 26.2192C23.1511 26.1155 23.2094 25.9748 23.2094 25.8281V17.3094ZM15.3062 13.1408L15.3063 13.143C15.3091 13.2651 15.2842 13.3864 15.2333 13.4975C15.1824 13.6086 15.107 13.7067 15.0126 13.7844C14.9182 13.8621 14.8075 13.9173 14.6886 13.9458C14.5698 13.9744 14.446 13.9755 14.3267 13.9492L14.3248 13.9488C14.1681 13.9174 14.0242 13.84 13.9115 13.7266C13.799 13.6134 13.7226 13.4693 13.6921 13.3127C13.6603 13.1325 13.6908 12.9474 13.7778 12.7875H15.224C15.2778 12.8973 15.306 13.0181 15.3062 13.1408ZM14.4947 15.053L14.4947 15.0532L14.5015 15.0531C14.6598 15.0507 14.817 15.0287 14.9696 14.9876L16.1683 19.3959L14.5 22.0643L12.8317 19.396L14.0326 14.9973C14.1852 15.0261 14.3396 15.0447 14.4947 15.053ZM16.3747 12.7875H17.5812C18.1751 12.7875 18.7631 12.9045 19.3117 13.1317C19.8603 13.359 20.3588 13.692 20.7787 14.1119C21.1986 14.5318 21.5317 15.0303 21.7589 15.5789C21.9862 16.1275 22.1031 16.7156 22.1031 17.3094V25.275H6.89688V17.3094C6.89688 16.1101 7.37329 14.9599 8.2213 14.1119C9.06932 13.2639 10.2195 12.7875 11.4188 12.7875H12.6218C12.5759 13.0316 12.5771 13.2827 12.6257 13.5271L12.6256 13.5271L12.6261 13.5291C12.6964 13.8496 12.848 14.1464 13.0659 14.391L11.7212 19.3216C11.7211 19.3217 11.7211 19.3218 11.7211 19.322C11.7008 19.395 11.6957 19.4714 11.7061 19.5464C11.7166 19.6216 11.7424 19.6938 11.782 19.7586L11.782 19.7586L11.7825 19.7594L14.048 23.3841C14.048 23.3841 14.048 23.3842 14.048 23.3842C14.0976 23.4642 14.1668 23.5302 14.2491 23.576C14.3313 23.6218 14.424 23.6458 14.5181 23.6458C14.6123 23.6458 14.7049 23.6218 14.7872 23.576C14.8694 23.5302 14.9386 23.4642 14.9882 23.3842C14.9882 23.3842 14.9883 23.3841 14.9883 23.3841L17.2537 19.7594L17.2542 19.7586C17.2938 19.6938 17.3196 19.6216 17.3301 19.5464C17.3406 19.4714 17.3355 19.395 17.3152 19.322C17.3151 19.3218 17.3151 19.3217 17.3151 19.3216L15.9698 14.3889C16.2612 14.0389 16.4186 13.5959 16.4125 13.1393L16.4125 13.1387C16.4102 13.0207 16.3975 12.9031 16.3747 12.7875Z" fill="#0060D3" stroke="#0060D3" stroke-width="0.2"/>
</svg>

