<svg width="46" height="46" viewBox="0 0 46 46" fill="none" xmlns="http://www.w3.org/2000/svg">
<path d="M41.6875 34.5H37.375V30.1875C37.375 29.8063 37.2236 29.4406 36.954 29.171C36.6844 28.9014 36.3187 28.75 35.9375 28.75C35.5563 28.75 35.1906 28.9014 34.921 29.171C34.6514 29.4406 34.5 29.8063 34.5 30.1875V34.5H30.1875C29.8063 34.5 29.4406 34.6514 29.171 34.921C28.9014 35.1906 28.75 35.5563 28.75 35.9375C28.75 36.3187 28.9014 36.6844 29.171 36.954C29.4406 37.2236 29.8063 37.375 30.1875 37.375H34.5V41.6875C34.5 42.0687 34.6514 42.4344 34.921 42.704C35.1906 42.9736 35.5563 43.125 35.9375 43.125C36.3187 43.125 36.6844 42.9736 36.954 42.704C37.2236 42.4344 37.375 42.0687 37.375 41.6875V37.375H41.6875C42.0687 37.375 42.4344 37.2236 42.704 36.954C42.9736 36.6844 43.125 36.3187 43.125 35.9375C43.125 35.5563 42.9736 35.1906 42.704 34.921C42.4344 34.6514 42.0687 34.5 41.6875 34.5Z" fill="#0060D3"/>
<path d="M24.4375 34.5H7.1875C6.80625 34.5 6.44062 34.3486 6.17103 34.079C5.90145 33.8094 5.75 33.4437 5.75 33.0625V7.1875C5.75 6.80625 5.90145 6.44062 6.17103 6.17103C6.44062 5.90145 6.80625 5.75 7.1875 5.75H33.0625C33.4437 5.75 33.8094 5.90145 34.079 6.17103C34.3486 6.44062 34.5 6.80625 34.5 7.1875V24.4375C34.5 24.8187 34.6514 25.1844 34.921 25.454C35.1906 25.7236 35.5563 25.875 35.9375 25.875C36.3187 25.875 36.6844 25.7236 36.954 25.454C37.2235 25.1844 37.375 24.8187 37.375 24.4375V7.1875C37.375 6.04375 36.9207 4.94685 36.1119 4.1381C35.3031 3.32935 34.2062 2.875 33.0625 2.875H7.1875C6.04375 2.875 4.94685 3.32935 4.1381 4.1381C3.32935 4.94685 2.875 6.04375 2.875 7.1875V33.0625C2.875 34.2062 3.32935 35.3031 4.1381 36.1119C4.94685 36.9207 6.04375 37.375 7.1875 37.375H24.4375C24.8187 37.375 25.1844 37.2235 25.454 36.954C25.7236 36.6844 25.875 36.3187 25.875 35.9375C25.875 35.5563 25.7236 35.1906 25.454 34.921C25.1844 34.6514 24.8187 34.5 24.4375 34.5Z" fill="#0060D3"/>
<path d="M15.8125 15.8125C17.7973 15.8125 19.4062 14.2035 19.4062 12.2188C19.4062 10.234 17.7973 8.625 15.8125 8.625C13.8277 8.625 12.2188 10.234 12.2188 12.2188C12.2188 14.2035 13.8277 15.8125 15.8125 15.8125Z" fill="#0060D3"/>
<path d="M10.4794 20.5419L8.625 22.4107V31.625H31.625V22.4107L25.4581 16.2294C25.3245 16.0947 25.1655 15.9877 24.9903 15.9148C24.8152 15.8418 24.6273 15.8042 24.4375 15.8042C24.2477 15.8042 24.0598 15.8418 23.8847 15.9148C23.7095 15.9877 23.5505 16.0947 23.4169 16.2294L15.8125 23.8482L12.5206 20.5419C12.387 20.4072 12.228 20.3002 12.0528 20.2273C11.8777 20.1543 11.6898 20.1167 11.5 20.1167C11.3102 20.1167 11.1223 20.1543 10.9472 20.2273C10.772 20.3002 10.613 20.4072 10.4794 20.5419Z" fill="#0060D3"/>
</svg>
