<svg width="26" height="26" viewBox="0 0 26 26" fill="none" xmlns="http://www.w3.org/2000/svg">
<path d="M5.28238 3.3L5.28238 17.9998L5.28238 18H5.23238C5.23736 19.7016 4.67411 21.3556 3.63295 22.7L5.28238 3.3ZM5.28238 3.3H19.3196V11.0283C19.3196 11.1493 19.3677 11.2653 19.4532 11.3509C19.5388 11.4364 19.6548 11.4845 19.7759 11.4845C19.8969 11.4845 20.0129 11.4364 20.0985 11.3509C20.184 11.2653 20.2321 11.1493 20.2321 11.0283V2.84375C20.2321 2.78384 20.2203 2.7245 20.1974 2.66914C20.1745 2.61378 20.1409 2.56347 20.0985 2.5211C20.0561 2.47873 20.0058 2.44512 19.9505 2.4222C19.8951 2.39928 19.8358 2.38748 19.7758 2.3875H4.82614C4.82614 2.3875 4.82614 2.3875 4.82613 2.3875C4.76621 2.38749 4.70688 2.39928 4.65152 2.4222C4.59616 2.44512 4.54585 2.47873 4.50348 2.5211C4.46111 2.56347 4.4275 2.61378 4.40458 2.66914C4.38166 2.7245 4.36987 2.78383 4.36988 2.84375C4.36988 2.84375 4.36988 2.84376 4.36988 2.84376L5.28238 3.3ZM12.7577 22.7H3.69606L2.3152 23.3117L2.26903 23.3309C2.26903 23.3309 2.26903 23.3309 2.26903 23.3309C2.30356 23.4142 2.36204 23.4855 2.43707 23.5356C2.5121 23.5858 2.60031 23.6125 2.69054 23.6125H12.7577C12.8787 23.6125 12.9948 23.5644 13.0803 23.4789C13.1659 23.3933 13.214 23.2773 13.214 23.1562C13.214 23.0352 13.1659 22.9192 13.0803 22.8336C12.9948 22.7481 12.8787 22.7 12.7577 22.7Z" fill="#0060D3" stroke="#101010" stroke-width="0.1"/>
<path d="M16.9607 7.5045H7.64136C7.52035 7.5045 7.4043 7.55257 7.31874 7.63814C7.23318 7.7237 7.18511 7.83975 7.18511 7.96075C7.18511 8.08176 7.23318 8.19781 7.31874 8.28337C7.4043 8.36894 7.52035 8.417 7.64136 8.417H16.9607C17.0817 8.417 17.1978 8.36894 17.2833 8.28337C17.3689 8.19781 17.417 8.08176 17.417 7.96075C17.417 7.83975 17.3689 7.7237 17.2833 7.63814C17.1978 7.55257 17.0817 7.5045 16.9607 7.5045Z" fill="#0060D3" stroke="#101010" stroke-width="0.1"/>
<path d="M17.3823 10.5386C17.4052 10.594 17.417 10.6533 17.417 10.7132L17.3823 10.5386ZM17.3823 10.5386C17.3594 10.4833 17.3258 10.433 17.2834 10.3906M17.3823 10.5386L17.2834 10.3906M17.2834 10.3906C17.241 10.3482 17.1907 10.3146 17.1353 10.2917M17.2834 10.3906L17.1353 10.2917M17.1353 10.2917C17.08 10.2688 17.0206 10.257 16.9607 10.257M17.1353 10.2917L16.9607 10.257M16.9607 10.257H7.64136M16.9607 10.257H7.64136M7.64136 10.257C7.52035 10.257 7.4043 10.3051 7.31874 10.3906M7.64136 10.257L7.31874 10.3906M7.31874 10.3906C7.23318 10.4762 7.18511 10.5923 7.18511 10.7133M7.31874 10.3906L7.18511 10.7133M7.18511 10.7133C7.18511 10.8343 7.23318 10.9503 7.31874 11.0359M7.18511 10.7133L7.31874 11.0359M7.31874 11.0359C7.4043 11.1214 7.52035 11.1695 7.64136 11.1695M7.31874 11.0359L7.64136 11.1695M7.64136 11.1695H16.9607M7.64136 11.1695H16.9607M16.9607 11.1695C17.0206 11.1695 17.08 11.1577 17.1353 11.1348M16.9607 11.1695L17.1353 11.1348M17.1353 11.1348C17.1907 11.1119 17.241 11.0783 17.2834 11.0359M17.1353 11.1348L17.2834 11.0359M17.2834 11.0359C17.3258 10.9935 17.3594 10.9432 17.3823 10.8879M17.2834 11.0359L17.3823 10.8879M17.3823 10.8879C17.4052 10.8325 17.417 10.7732 17.417 10.7133L17.3823 10.8879Z" fill="#0060D3" stroke="#101010" stroke-width="0.1"/>
<path d="M13.3317 13.2911C13.3546 13.3465 13.3664 13.4058 13.3664 13.4657L13.3317 13.2911ZM13.3317 13.2911C13.3087 13.2358 13.2751 13.1855 13.2328 13.1431M13.3317 13.2911L13.2328 13.1431M13.2328 13.1431C13.1904 13.1007 13.1401 13.0671 13.0847 13.0442M13.2328 13.1431L13.0847 13.0442M13.0847 13.0442C13.0294 13.0213 12.97 13.0095 12.9101 13.0095M13.0847 13.0442L12.9101 13.0095M12.9101 13.0095C12.9101 13.0095 12.9101 13.0095 12.9101 13.0095M12.9101 13.0095H12.9101M12.9101 13.0095H7.64136C7.52035 13.0095 7.4043 13.0576 7.31874 13.1431C7.23318 13.2287 7.18511 13.3448 7.18511 13.4658C7.18511 13.5868 7.23318 13.7028 7.31874 13.7884C7.4043 13.8739 7.52035 13.922 7.64136 13.922H12.9101C12.9101 13.922 12.9101 13.922 12.9101 13.922C12.97 13.922 13.0294 13.9102 13.0847 13.8873C13.1401 13.8644 13.1904 13.8308 13.2328 13.7884C13.2751 13.746 13.3087 13.6957 13.3317 13.6404C13.3546 13.585 13.3664 13.5257 13.3664 13.4658L12.9101 13.0095Z" fill="#0060D3" stroke="#101010" stroke-width="0.1"/>
<path d="M7.64136 15.762C7.52035 15.762 7.4043 15.8101 7.31874 15.8956C7.23318 15.9812 7.18511 16.0973 7.18511 16.2183C7.18511 16.3393 7.23318 16.4553 7.31874 16.5409C7.4043 16.6264 7.52035 16.6745 7.64136 16.6745H10.955C11.076 16.6745 11.1921 16.6264 11.2777 16.5409C11.3632 16.4553 11.4113 16.3393 11.4113 16.2183C11.4113 16.0973 11.3632 15.9812 11.2777 15.8956C11.1921 15.8101 11.076 15.762 10.955 15.762H7.64136Z" fill="#0060D3" stroke="#101010" stroke-width="0.1"/>
<path d="M14.2744 17.0158C14.354 16.9538 14.4525 16.9197 14.5544 16.9197C14.6754 16.9197 14.7915 16.9678 14.877 17.0533C14.9626 17.1389 15.0106 17.2549 15.0106 17.3759C15.0106 17.4969 14.9626 17.6129 14.877 17.6985L14.877 17.6985L13.942 18.6333L13.9419 18.6334C13.8562 18.7187 13.7401 18.7666 13.6191 18.7666C13.4982 18.7666 13.3821 18.7187 13.2964 18.6334L13.2963 18.6333L12.3615 17.6985C12.2759 17.6129 12.2278 17.4969 12.2278 17.3759C12.2278 17.2549 12.2759 17.1389 12.3615 17.0533C12.447 16.9678 12.563 16.9197 12.684 16.9197C12.805 16.9197 12.9211 16.9678 13.0066 17.0533M14.2744 17.0158L12.9713 17.0887L13.0066 17.0533M14.2744 17.0158C14.5413 16.1551 15.0676 15.3959 15.7834 14.8434C16.5481 14.2532 17.4863 13.932 18.4523 13.9298C19.4183 13.9275 20.358 14.2442 21.1255 14.8308C21.893 15.4174 22.4453 16.241 22.6967 17.1738C22.9481 18.1065 22.8844 19.0961 22.5157 19.9889C22.1469 20.8817 21.4936 21.6278 20.6573 22.1113C19.821 22.5947 18.8485 22.7885 17.8907 22.6625C16.933 22.5366 16.0437 22.0979 15.3608 21.4146L15.3608 21.4146C15.2753 21.329 15.1592 21.2809 15.0382 21.2809C14.9172 21.2809 14.8012 21.329 14.7157 21.4146C14.6301 21.5001 14.582 21.6162 14.582 21.7371C14.582 21.8581 14.6301 21.9742 14.7157 22.0597L14.7157 22.0597C15.7101 23.0532 17.0583 23.611 18.4638 23.6106C19.8694 23.6103 21.2173 23.0517 22.2112 22.0578C23.2051 21.0639 23.7636 19.716 23.7639 18.3104C23.7643 16.9048 23.2064 15.5567 22.2129 14.5623C21.527 13.8751 20.6653 13.3897 19.7221 13.1591C18.7789 12.9285 17.7905 12.9617 16.8648 13.2549C15.9392 13.5481 15.1119 14.0901 14.4735 14.8216C13.8561 15.5291 13.4383 16.3876 13.262 17.3087L13.0066 17.0533L13.0066 17.0533M14.2744 17.0158L13.0066 17.0533" fill="#0060D3" stroke="#101010" stroke-width="0.1"/>
<path d="M18.008 18.3113L18.008 18.311L18.008 15.1999C18.008 15.1999 18.008 15.1998 18.008 15.1998C18.008 15.1399 18.0198 15.0806 18.0427 15.0252C18.0657 14.9699 18.0993 14.9196 18.1416 14.8772C18.184 14.8348 18.2343 14.8012 18.2897 14.7783C18.345 14.7554 18.4044 14.7436 18.4643 14.7436L18.008 18.3113ZM18.008 18.3113C18.0088 18.4322 18.0568 18.5479 18.1419 18.6338L18.1421 18.634M18.008 18.3113L18.1421 18.634M18.1421 18.634L19.6144 20.1062L19.6146 20.1065M18.1421 18.634L19.6146 20.1065M19.6146 20.1065C19.7003 20.1911 19.8161 20.2384 19.9366 20.238C20.057 20.2376 20.1725 20.1896 20.2577 20.1044C20.3429 20.0192 20.3909 19.9038 20.3913 19.7833C20.3917 19.6628 20.3444 19.5471 20.2598 19.4613L20.2595 19.4611M19.6146 20.1065L20.2595 19.4611M20.2595 19.4611L18.9205 18.1221M20.2595 19.4611L18.9205 18.1221M18.9205 18.1221V15.1999C18.9205 15.1999 18.9205 15.1998 18.9205 15.1998C18.9206 15.1399 18.9088 15.0806 18.8858 15.0252C18.8629 14.9699 18.8293 14.9196 18.7869 14.8772C18.7446 14.8348 18.6943 14.8012 18.6389 14.7783C18.5835 14.7554 18.5242 14.7436 18.4643 14.7436L18.9205 18.1221Z" fill="#0060D3" stroke="#101010" stroke-width="0.1"/>
</svg>
