<svg width="23" height="23" viewBox="0 0 23 23" fill="none" xmlns="http://www.w3.org/2000/svg">
<path d="M21.0833 2.875H1.91668C0.85958 2.875 0 3.73458 0 4.79168V18.2084C0 19.2654 0.85958 20.125 1.91668 20.125H21.0834C22.1404 20.125 23 19.2654 23 18.2083V4.79168C23 3.73458 22.1404 2.875 21.0833 2.875ZM1.91668 3.83332H21.0834C21.154 3.83332 21.2162 3.85906 21.2825 3.87361C19.6231 5.39229 14.1209 10.4259 12.1954 12.1607C12.0447 12.2964 11.8019 12.4583 11.5 12.4583C11.1982 12.4583 10.9554 12.2964 10.8042 12.1603C8.8789 10.4257 3.37637 5.39184 1.71727 3.8737C1.78367 3.85915 1.84602 3.83332 1.91668 3.83332ZM0.958318 18.2083V4.79168C0.958318 4.69779 0.986619 4.61262 1.01196 4.52682C2.28199 5.68922 6.12119 9.20139 8.61058 11.4651C6.12928 13.5965 2.28908 17.2374 1.00895 18.4581C0.98635 18.3766 0.958318 18.2969 0.958318 18.2083ZM21.0833 19.1667H1.91668C1.84013 19.1667 1.77208 19.14 1.70061 19.1229C3.02342 17.8619 6.88805 14.2001 9.32574 12.1147C9.64351 12.403 9.9338 12.6658 10.1626 12.872C10.5576 13.2286 11.0199 13.4167 11.5 13.4167C11.9801 13.4167 12.4424 13.2285 12.8369 12.8725C13.0658 12.6662 13.3563 12.4031 13.6743 12.1147C16.1121 14.1999 19.9762 17.8614 21.2994 19.1229C21.2279 19.14 21.16 19.1667 21.0833 19.1667ZM22.0417 18.2083C22.0417 18.2969 22.0136 18.3766 21.9911 18.4581C20.7105 17.2367 16.8707 13.5963 14.3895 11.4652C16.8789 9.20144 20.7176 5.68958 21.988 4.52673C22.0134 4.61253 22.0417 4.69775 22.0417 4.79164V18.2083Z" fill="black"/>
</svg>
