<svg width="24" height="22" viewBox="0 0 24 22" fill="none" xmlns="http://www.w3.org/2000/svg">
<path d="M3.27 16.0004L3.27 16L3.27 0.843789C3.27 0.843776 3.27 0.843763 3.27 0.84375C3.26999 0.770705 3.28436 0.698373 3.31231 0.630884C3.34026 0.563383 3.38123 0.502051 3.43289 0.450391C3.48455 0.398731 3.54589 0.357755 3.61339 0.329806C3.68088 0.301862 3.75321 0.287486 3.82625 0.2875L3.27 16.0004ZM3.27 16.0004C3.27245 16.8852 3.09939 17.7616 2.76083 18.5791C2.42228 19.3965 1.92495 20.1387 1.29765 20.7627L1.29737 20.7629M3.27 16.0004L1.29737 20.7629M1.29737 20.7629C1.21957 20.8407 1.16659 20.9398 1.14512 21.0477C1.12365 21.1556 1.13466 21.2675 1.17676 21.3691C1.21886 21.4708 1.29016 21.5576 1.38163 21.6188C1.47311 21.6799 1.58066 21.7125 1.69067 21.7125H11.7578C11.9054 21.7125 12.0469 21.6539 12.1512 21.5496C12.2555 21.4453 12.3141 21.3038 12.3141 21.1562C12.3141 21.0087 12.2555 20.8672 12.1512 20.7629C12.0469 20.6586 11.9054 20.6 11.7578 20.6H2.89557L1.29737 20.7629ZM4.3825 1.4V15.9998V1.4ZM4.3825 1.4H18.2197V9.02826C18.2197 9.17579 18.2783 9.31727 18.3826 9.42159C18.487 9.52591 18.6284 9.58451 18.776 9.58451C18.9235 9.58451 19.065 9.52591 19.1693 9.42159C19.2736 9.31727 19.3322 9.17579 19.3322 9.02826V0.843789C19.3322 0.843776 19.3322 0.843763 19.3322 0.84375C19.3322 0.770705 19.3179 0.698373 19.2899 0.630884C19.262 0.563383 19.221 0.502051 19.1693 0.450391C19.1177 0.398731 19.0563 0.357755 18.9888 0.329806C18.9213 0.301862 18.849 0.287486 18.776 0.2875C18.776 0.2875 18.7759 0.2875 18.7759 0.2875H3.82629L4.3825 1.4Z" fill="#0060D3" stroke="#0060D3" stroke-width="0.3"/>
<path d="M15.9607 5.4045H6.64136C6.49383 5.4045 6.35235 5.46311 6.24803 5.56743C6.14371 5.67174 6.08511 5.81323 6.08511 5.96075C6.08511 6.10828 6.14371 6.24977 6.24803 6.35408C6.35235 6.4584 6.49383 6.517 6.64136 6.517H15.9607C16.1083 6.517 16.2497 6.4584 16.3541 6.35408C16.4584 6.24977 16.517 6.10828 16.517 5.96075C16.517 5.81323 16.4584 5.67174 16.3541 5.56743C16.2497 5.46311 16.1083 5.4045 15.9607 5.4045Z" fill="#0060D3" stroke="#0060D3" stroke-width="0.3"/>
<path d="M16.4747 8.50039C16.5026 8.56787 16.517 8.64019 16.517 8.71322L16.4747 8.50039ZM16.4747 8.50039C16.4467 8.43289 16.4058 8.37156 16.3541 8.3199M16.4747 8.50039L16.3541 8.3199M16.3541 8.3199C16.3024 8.26824 16.2411 8.22726 16.1736 8.19931M16.3541 8.3199L16.1736 8.19931M16.1736 8.19931C16.1061 8.17137 16.0338 8.15699 15.9607 8.15701M16.1736 8.19931L15.9607 8.15701M15.9607 8.15701C15.9607 8.15701 15.9607 8.15701 15.9607 8.15701M15.9607 8.15701H15.9607M15.9607 8.15701H6.64136C6.49383 8.15701 6.35235 8.21561 6.24803 8.31993C6.14371 8.42425 6.08511 8.56573 6.08511 8.71326C6.08511 8.86078 6.14371 9.00227 6.24803 9.10659C6.35235 9.2109 6.49383 9.26951 6.64136 9.26951H15.9607C15.9607 9.26951 15.9607 9.26951 15.9607 9.26951C16.0338 9.26952 16.1061 9.25515 16.1736 9.2272C16.2411 9.19925 16.3024 9.15828 16.3541 9.10662C16.4058 9.05496 16.4467 8.99362 16.4747 8.92612C16.5026 8.85865 16.517 8.78633 16.517 8.7133L15.9607 8.15701Z" fill="#0060D3" stroke="#0060D3" stroke-width="0.3"/>
<path d="M12.4243 11.2529C12.4522 11.3204 12.4666 11.3927 12.4666 11.4657L12.4243 11.2529ZM12.4243 11.2529C12.3963 11.1854 12.3554 11.1241 12.3037 11.0724M12.4243 11.2529L12.3037 11.0724M12.3037 11.0724C12.2521 11.0207 12.1907 10.9798 12.1232 10.9518M12.3037 11.0724L12.1232 10.9518M12.1232 10.9518C12.0557 10.9239 11.9834 10.9095 11.9104 10.9095M12.1232 10.9518L11.9104 10.9095M11.9104 10.9095C11.9103 10.9095 11.9103 10.9095 11.9103 10.9095M11.9104 10.9095H11.9103M11.9103 10.9095H6.6416C6.49407 10.9095 6.35259 10.9681 6.24827 11.0724C6.14396 11.1767 6.08535 11.3182 6.08535 11.4658C6.08535 11.6133 6.14396 11.7548 6.24827 11.8591C6.35259 11.9634 6.49407 12.022 6.6416 12.022H11.9103C11.9103 12.022 11.9103 12.022 11.9104 12.022C11.9834 12.022 12.0557 12.0076 12.1232 11.9797C12.1907 11.9518 12.2521 11.9108 12.3037 11.8591C12.3554 11.8075 12.3963 11.7461 12.4243 11.6786C12.4522 11.6111 12.4666 11.5388 12.4666 11.4658L11.9103 10.9095Z" fill="#0060D3" stroke="#0060D3" stroke-width="0.3"/>
<path d="M6.6416 13.662C6.49408 13.662 6.35259 13.7206 6.24827 13.8249C6.14396 13.9293 6.08535 14.0707 6.08535 14.2183C6.08535 14.3658 6.14396 14.5073 6.24827 14.6116C6.35259 14.7159 6.49408 14.7745 6.6416 14.7745H9.95528C10.1028 14.7745 10.2443 14.7159 10.3486 14.6116C10.4529 14.5073 10.5115 14.3658 10.5115 14.2183C10.5115 14.0707 10.4529 13.9293 10.3486 13.8249C10.2443 13.7206 10.1028 13.662 9.95528 13.662H6.6416Z" fill="#0060D3" stroke="#0060D3" stroke-width="0.3"/>
<path d="M13.4426 14.8311C13.7204 14.0784 14.2051 13.4161 14.8445 12.9226C15.5918 12.3458 16.5086 12.032 17.4525 12.0298C18.3965 12.0275 19.3148 12.3371 20.0648 12.9103C20.8148 13.4835 21.3545 14.2883 21.6001 15.1998C21.8458 16.1112 21.7836 17.0783 21.4232 17.9507C21.0629 18.8232 20.4245 19.5523 19.6073 20.0247C18.79 20.4971 17.8397 20.6865 16.9038 20.5634C15.9679 20.4403 15.0988 20.0116 14.4316 19.3439L14.4315 19.3438C14.3272 19.2395 14.1858 19.1809 14.0382 19.1809C13.8907 19.1809 13.7492 19.2395 13.6449 19.3438C13.5406 19.4482 13.482 19.5896 13.482 19.7371C13.482 19.8847 13.5406 20.0261 13.6449 20.1304L13.645 20.1305C14.6581 21.1426 16.0318 21.711 17.4639 21.7106C18.896 21.7103 20.2693 21.1412 21.2819 20.1285C22.2946 19.1159 22.8636 17.7425 22.8639 16.3104C22.8643 14.8783 22.2958 13.5047 21.2837 12.4916C20.5848 11.7915 19.7068 11.2969 18.7459 11.062C17.7848 10.827 16.7778 10.8608 15.8346 11.1595C14.8915 11.4583 14.0487 12.0105 13.3982 12.7559C12.8101 13.4298 12.3997 14.238 12.202 15.1073L12.0773 14.9826L12.0773 14.9826C11.973 14.8783 11.8316 14.8197 11.684 14.8197C11.5365 14.8197 11.3951 14.8783 11.2907 14.9826C11.1864 15.0869 11.1278 15.2284 11.1278 15.3759C11.1278 15.5234 11.1864 15.6649 11.2907 15.7692L11.2907 15.7692L12.2256 16.704L12.2258 16.7043C12.3303 16.8082 12.4717 16.8666 12.6191 16.8666C12.7665 16.8666 12.908 16.8082 13.0125 16.7043L13.0127 16.704L13.9477 15.7692L13.9477 15.7692C14.052 15.6649 14.1106 15.5234 14.1106 15.3759C14.1106 15.2284 14.052 15.0869 13.9477 14.9826C13.8434 14.8783 13.7019 14.8197 13.5544 14.8197C13.5166 14.8197 13.4791 14.8236 13.4426 14.8311Z" fill="#0060D3" stroke="#0060D3" stroke-width="0.3"/>
<path d="M16.9081 16.3119L16.9081 16.311L16.9081 13.1999C16.9081 13.1999 16.9081 13.1999 16.9081 13.1998C16.9081 13.1268 16.9225 13.0545 16.9504 12.987C16.9784 12.9195 17.0193 12.8581 17.071 12.8065C17.1227 12.7548 17.184 12.7138 17.2515 12.6859C17.319 12.658 17.3913 12.6436 17.4643 12.6436L16.9081 16.3119ZM16.9081 16.3119C16.909 16.4589 16.9674 16.5998 17.0709 16.7042L17.0709 16.7042M16.9081 16.3119L17.0709 16.7042M17.0709 16.7042L17.0714 16.7047M17.0709 16.7042L17.0714 16.7047M17.0714 16.7047L18.5437 18.1769L18.5444 18.1776M17.0714 16.7047L18.5444 18.1776M18.5444 18.1776C18.6489 18.2808 18.79 18.3385 18.9369 18.338C19.0838 18.3375 19.2246 18.279 19.3284 18.1751C19.4323 18.0712 19.4909 17.9305 19.4914 17.7836C19.4918 17.6367 19.4342 17.4956 19.331 17.3911L19.3303 17.3904M18.5444 18.1776L19.3303 17.3904M19.3303 17.3904L18.0206 16.0807M19.3303 17.3904L18.0206 16.0807M18.0206 16.0807L18.0206 13.1999C18.0206 13.1999 18.0206 13.1999 18.0206 13.1998C18.0206 13.1268 18.0062 13.0545 17.9783 12.987C17.9504 12.9195 17.9094 12.8581 17.8577 12.8065C17.8061 12.7548 17.7447 12.7138 17.6772 12.6859C17.6097 12.658 17.5374 12.6436 17.4644 12.6436L18.0206 16.0807Z" fill="#0060D3" stroke="#0060D3" stroke-width="0.3"/>
</svg>

