<svg width="60" height="60" viewBox="0 0 60 60" fill="none" xmlns="http://www.w3.org/2000/svg">
<path d="M49.9908 22.0551C47.2178 11.0081 36.0146 4.30076 24.9676 7.07382C16.3346 9.24097 10.0661 16.7023 9.42027 25.5796C3.29051 26.5904 -0.859226 32.379 0.151639 38.5087C1.05025 43.9582 5.77216 47.949 11.2951 47.9271H20.669V44.1775H11.2951C7.15341 44.1775 3.79589 40.82 3.79589 36.6784C3.79589 32.5367 7.15341 29.1792 11.2951 29.1792C12.3305 29.1792 13.1699 28.3399 13.1699 27.3044C13.1605 17.9856 20.7074 10.4236 30.0261 10.4144C38.0929 10.4063 45.037 16.1092 46.5975 24.0235C46.7515 24.8137 47.3928 25.4174 48.191 25.5233C53.3165 26.2532 56.8796 30.9998 56.1499 36.1252C55.4945 40.7276 51.565 44.1543 46.9162 44.1775H39.417V47.9271H46.9162C54.1641 47.9052 60.0219 42.0118 59.9999 34.7638C59.9816 28.7305 55.8519 23.4868 49.9908 22.0551Z" fill="#4C4C4C"/>
<path d="M28.7117 29.723L21.2125 37.2222L23.856 39.8656L28.168 35.5724V53.5516H31.9176V35.5724L36.2109 39.8656L38.8543 37.2222L31.3552 29.723C30.6239 28.9961 29.443 28.9961 28.7117 29.723Z" fill="#4C4C4C"/>
</svg>
