<svg width="24" height="24" viewBox="0 0 24 24" fill="#0060D3" xmlns="http://www.w3.org/2000/svg">
<g clip-path="url(#clip0_7_189)">
<path d="M9.24994 7.85454H1.74994C0.865353 7.85454 0.145522 7.13473 0.145522 6.24994V1.74994C0.145522 0.865343 0.865343 0.145522 1.74994 0.145522H9.24994C10.1347 0.145522 10.8545 0.865353 10.8545 1.74994V6.24994C10.8545 7.13472 10.1347 7.85454 9.24994 7.85454ZM1.74994 1.35448C1.53169 1.35448 1.35448 1.53169 1.35448 1.74994V6.24994C1.35448 6.4683 1.53162 6.64558 1.74994 6.64558H9.24994C9.46837 6.64558 9.64558 6.46837 9.64558 6.24994V1.74994C9.64558 1.53162 9.4683 1.35448 9.24994 1.35448H1.74994Z" fill="#0060D3" stroke="#D9D9D9" stroke-width="0.291045"/>
<path d="M9.24994 23.8545H1.74994C0.865343 23.8545 0.145522 23.1347 0.145522 22.2501V11.7501C0.145522 10.8653 0.865353 10.1455 1.74994 10.1455H9.24994C10.1347 10.1455 10.8545 10.8653 10.8545 11.7501V22.2501C10.8545 23.1346 10.1347 23.8545 9.24994 23.8545ZM1.74994 11.3544C1.53162 11.3544 1.35448 11.5317 1.35448 11.7501V22.2501C1.35448 22.4683 1.53169 22.6455 1.74994 22.6455H9.24994C9.4683 22.6455 9.64558 22.4684 9.64558 22.2501V11.7501C9.64558 11.5316 9.46837 11.3544 9.24994 11.3544H1.74994Z" fill="#0060D3" stroke="#D9D9D9" stroke-width="0.291045"/>
<path d="M22.2501 23.8545H14.7501C13.8653 23.8545 13.1455 23.1346 13.1455 22.2501V17.7501C13.1455 16.8653 13.8653 16.1455 14.7501 16.1455H22.2501C23.1346 16.1455 23.8545 16.8653 23.8545 17.7501V22.2501C23.8545 23.1347 23.1347 23.8545 22.2501 23.8545ZM14.7501 17.3544C14.5316 17.3544 14.3544 17.5316 14.3544 17.7501V22.2501C14.3544 22.4684 14.5317 22.6455 14.7501 22.6455H22.2501C22.4683 22.6455 22.6455 22.4683 22.6455 22.2501V17.7501C22.6455 17.5317 22.4684 17.3544 22.2501 17.3544H14.7501Z" fill="#0060D3" stroke="#D9D9D9" stroke-width="0.291045"/>
<path d="M22.2501 13.8545H14.7501C13.8653 13.8545 13.1455 13.1347 13.1455 12.2499V1.74994C13.1455 0.865353 13.8653 0.145522 14.7501 0.145522H22.2501C23.1347 0.145522 23.8545 0.865343 23.8545 1.74994V12.2499C23.8545 13.1347 23.1346 13.8545 22.2501 13.8545ZM14.7501 1.35448C14.5317 1.35448 14.3544 1.53162 14.3544 1.74994V12.2499C14.3544 12.4684 14.5316 12.6456 14.7501 12.6456H22.2501C22.4684 12.6456 22.6455 12.4683 22.6455 12.2499V1.74994C22.6455 1.53169 22.4683 1.35448 22.2501 1.35448H14.7501Z" fill="#0060D3" stroke="#D9D9D9" stroke-width="0.291045"/>
</g>
<defs>
<clipPath id="clip0_7_189">
<rect width="24" height="24" fill="white"/>
</clipPath>
</defs>
</svg>
