<svg width="10" height="10" viewBox="0 0 10 10" fill="none" xmlns="http://www.w3.org/2000/svg">
<path d="M9.00845 6.29939L6.75783 5L9.00845 3.70061C9.42882 3.45791 9.57285 2.92039 9.33015 2.5C9.08745 2.07965 8.54995 1.93557 8.12954 2.1783L5.87894 3.4777V0.878906C5.87894 0.393496 5.48544 0 5.00003 0C4.51462 0 4.12113 0.393496 4.12113 0.878906V3.4777L1.87052 2.1783C1.45009 1.93559 0.912592 2.07963 0.669896 2.5C0.427201 2.92037 0.571224 3.45791 0.991596 3.70061L3.24224 5L0.991615 6.29939C0.571244 6.54209 0.427201 7.07963 0.669896 7.5C0.832689 7.78199 1.1281 7.93961 1.43187 7.93961C1.58095 7.93961 1.7321 7.90162 1.8705 7.8217L4.12113 6.5223V9.12109C4.12113 9.6065 4.51462 10 5.00003 10C5.48544 10 5.87894 9.6065 5.87894 9.12109V6.5223L8.12954 7.8217C8.26796 7.90162 8.41906 7.93961 8.56818 7.93961C8.87193 7.93961 9.16738 7.78195 9.33015 7.5C9.57287 7.07963 9.42882 6.54209 9.00845 6.29939Z" fill="#FF0000"/>
</svg>
