<svg width="20" height="20" viewBox="0 0 184 170" fill="none" xmlns="http://www.w3.org/2000/svg">
<path d="M74.0543 135.987C90.5005 135.987 106.476 130.947 119.451 121.663L168.401 166.63C172.058 169.875 177.885 169.782 181.416 166.422C184.861 163.146 184.861 157.951 181.416 154.674L132.466 109.707C157.543 80.0524 151.704 37.3379 119.423 14.3012C87.142 -8.73551 40.6448 -3.37106 15.5678 26.2834C-9.50918 55.9379 -3.66962 98.6524 28.6112 121.689C41.6072 130.964 57.5973 135.995 74.0543 135.987ZM34.7235 31.8724C56.4455 11.9173 91.6639 11.9169 113.386 31.8716C135.109 51.8264 135.109 84.1793 113.387 104.134C91.6651 124.09 56.4467 124.09 34.7243 104.135C34.7239 104.135 34.7239 104.135 34.7235 104.134C13.0015 84.3251 12.8735 52.0901 34.4372 32.1353C34.5325 32.0474 34.6278 31.9599 34.7235 31.8724Z" fill="#515151"/>
</svg>