<svg width="18" height="18" viewBox="0 0 18 18" fill="none" xmlns="http://www.w3.org/2000/svg">
<g clip-path="url(#clip0_67_266)">
<path d="M9 0C4.02571 0 0 4.02525 0 9C0 13.9742 4.02525 18 9 18C13.9743 18 18 13.9747 18 9C18 4.02578 13.9747 0 9 0ZM9 16.7442C4.72985 16.7442 1.25582 13.2702 1.25582 9C1.25582 4.72982 4.72985 1.25582 9 1.25582C13.2701 1.25582 16.7442 4.72982 16.7442 9C16.7442 13.2702 13.2701 16.7442 9 16.7442Z" fill="#555555"/>
<path d="M9.00021 7.50224C8.4671 7.50224 8.08801 7.72738 8.08801 8.05908V12.5727C8.08801 12.857 8.4671 13.1413 9.00021 13.1413C9.50963 13.1413 9.92422 12.857 9.92422 12.5727V8.05901C9.92422 7.72735 9.50963 7.50224 9.00021 7.50224Z" fill="#555555"/>
<path d="M9.00021 4.71823C8.45525 4.71823 8.02881 5.10917 8.02881 5.55934C8.02881 6.00956 8.45529 6.41234 9.00021 6.41234C9.53332 6.41234 9.95984 6.00956 9.95984 5.55934C9.95984 5.10917 9.53329 4.71823 9.00021 4.71823Z" fill="#555555"/>
</g>
<defs>
<clipPath id="clip0_67_266">
<rect width="18" height="18" fill="white"/>
</clipPath>
</defs>
</svg>
