<svg width="13" height="18" viewBox="0 0 13 18" fill="none" xmlns="http://www.w3.org/2000/svg">
<path d="M12.6369 4.52637L12.034 6.7043H0.516797L1.11973 4.52637H12.6369ZM7.06289 18L0.873633 10.7033L0.861328 8.86992H3.80215C4.56504 8.86992 5.19258 8.73457 5.68477 8.46387C6.18516 8.18496 6.5584 7.81172 6.80449 7.34414C7.05059 6.86836 7.17363 6.33926 7.17363 5.75684C7.17363 5.1252 7.05879 4.56738 6.8291 4.0834C6.59941 3.59941 6.23437 3.22207 5.73398 2.95137C5.23359 2.68066 4.57324 2.54531 3.75293 2.54531H0.529102L1.19355 0.0843758H3.75293C5.20488 0.0843758 6.41074 0.301759 7.37051 0.736524C8.33027 1.17129 9.04805 1.80293 9.52383 2.63145C10.0078 3.45996 10.2498 4.46074 10.2498 5.63379C10.2498 6.65918 10.0734 7.56563 9.7207 8.35313C9.36797 9.13242 8.79785 9.76406 8.01035 10.248C7.22285 10.7238 6.17695 11.0191 4.87266 11.134L10.5328 17.84V18H7.06289ZM12.6492 0.0843758L12.034 2.26231H2.6209L3.22383 0.0843758H12.6492Z" fill="#606060"/>
</svg>

