<svg width="21" height="21" viewBox="0 0 21 21" fill="none" xmlns="http://www.w3.org/2000/svg">
<path d="M19.0745 11.1675C18.8446 11.1675 18.624 11.2551 18.4614 11.4111C18.2988 11.567 18.2075 11.7786 18.2075 11.9991V15.5028C18.2068 16.1173 17.952 16.7064 17.499 17.141C17.046 17.5755 16.4318 17.8199 15.7911 17.8205H5.0175C4.37684 17.8199 3.76262 17.5755 3.30961 17.141C2.8566 16.7064 2.6018 16.1173 2.60111 15.5028V11.9991C2.60111 11.7786 2.50976 11.567 2.34716 11.4111C2.18457 11.2551 1.96403 11.1675 1.73409 11.1675C1.50414 11.1675 1.28361 11.2551 1.12101 11.4111C0.958412 11.567 0.867065 11.7786 0.867065 11.9991V15.5028C0.868213 16.5583 1.30586 17.5702 2.08397 18.3166C2.86207 19.0629 3.91709 19.4827 5.0175 19.4838H15.7911C16.8915 19.4827 17.9465 19.0629 18.7246 18.3166C19.5027 17.5702 19.9404 16.5583 19.9415 15.5028V11.9991C19.9415 11.7786 19.8502 11.567 19.6876 11.4111C19.525 11.2551 19.3045 11.1675 19.0745 11.1675Z" fill="#353535"/>
<path d="M5.81518 7.5972L9.5373 4.027V14.4939C9.5373 14.7145 9.62864 14.926 9.79124 15.082C9.95384 15.2379 10.1744 15.3256 10.4043 15.3256C10.6343 15.3256 10.8548 15.2379 11.0174 15.082C11.18 14.926 11.2713 14.7145 11.2713 14.4939V4.027L14.9935 7.5972C15.157 7.74869 15.376 7.83251 15.6033 7.83062C15.8307 7.82872 16.0481 7.74126 16.2089 7.58707C16.3696 7.43288 16.4608 7.2243 16.4628 7.00625C16.4648 6.78819 16.3774 6.57812 16.2194 6.42127L11.0173 1.43148C10.8547 1.27557 10.6342 1.18799 10.4043 1.18799C10.1744 1.18799 9.95393 1.27557 9.79134 1.43148L4.58921 6.42127C4.43127 6.57812 4.34388 6.78819 4.34586 7.00625C4.34783 7.2243 4.43902 7.43288 4.59977 7.58707C4.76052 7.74126 4.97798 7.82872 5.20531 7.83062C5.43264 7.83251 5.65165 7.74869 5.81518 7.5972Z" fill="#353535"/>
</svg>
