<svg width="31" height="31" viewBox="0 0 31 31" fill="none" xmlns="http://www.w3.org/2000/svg">
<path d="M9.68506 18.5062L9.68506 18.5062H9.6873H11.6248V18.5063L11.627 18.5062C11.9975 18.4979 12.3659 18.5648 12.7098 18.7027C13.0538 18.8407 13.3662 19.047 13.6283 19.309C13.8903 19.5711 14.0966 19.8835 14.2345 20.2275C14.3725 20.5714 14.4394 20.9397 14.4311 21.3103H14.4311V21.3125V21.5547C14.4311 21.7209 14.365 21.8802 14.2475 21.9977C14.13 22.1152 13.9707 22.1812 13.8045 22.1812H7.50761C7.34144 22.1812 7.18207 22.1152 7.06457 21.9977C6.94706 21.8802 6.88105 21.7209 6.88105 21.5547V21.3125H6.88108L6.88103 21.3103C6.87273 20.9397 6.93958 20.5714 7.07756 20.2275C7.21554 19.8835 7.42178 19.5711 7.68383 19.309C7.94588 19.047 8.25831 18.8407 8.60226 18.7027C8.94621 18.5648 9.31456 18.4979 9.68506 18.5062ZM6.46727 18.9258C5.95814 19.6162 5.6926 20.4561 5.7123 21.3136V21.5547C5.7123 22.0308 5.90145 22.4875 6.23814 22.8242C6.57482 23.1608 7.03147 23.35 7.50761 23.35H13.8045C14.2806 23.35 14.7373 23.1608 15.074 22.8242C15.4107 22.4875 15.5998 22.0308 15.5998 21.5547V21.3136C15.6195 20.4561 15.354 19.6162 14.8448 18.9258C14.3698 18.2817 13.7079 17.8018 12.9513 17.5498C13.3739 17.1279 13.6729 16.5967 13.8136 16.014C13.9681 15.3749 13.9249 14.704 13.6899 14.0899C13.4548 13.4758 13.039 12.9475 12.4973 12.5749C11.9556 12.2022 11.3136 12.0027 10.6561 12.0027C9.99854 12.0027 9.35651 12.2022 8.81482 12.5749C8.27313 12.9475 7.85729 13.4758 7.62225 14.0899C7.38721 14.704 7.34405 15.3749 7.49847 16.014C7.63925 16.5967 7.9382 17.1279 8.36079 17.5498C7.60417 17.8018 6.94226 18.2817 6.46727 18.9258ZM10.6561 13.1781C11.0674 13.1781 11.4695 13.3001 11.8115 13.5286C12.1535 13.7571 12.42 14.0819 12.5774 14.4619C12.7348 14.842 12.776 15.2601 12.6958 15.6635C12.6155 16.067 12.4175 16.4375 12.1266 16.7284C11.8358 17.0192 11.4652 17.2173 11.0618 17.2975C10.6584 17.3778 10.2402 17.3366 9.86019 17.1792C9.48018 17.0218 9.15537 16.7552 8.92685 16.4132C8.69834 16.0712 8.57636 15.6691 8.57636 15.2578C8.57636 14.7062 8.79547 14.1773 9.18549 13.7872C9.57551 13.3972 10.1045 13.1781 10.6561 13.1781Z" fill="#0060D3" stroke="#0060D3" stroke-width="0.2"/>
<path d="M25.6719 17.8219C25.5169 17.8219 25.3683 17.8834 25.2587 17.993C25.1491 18.1026 25.0875 18.2513 25.0875 18.4062V24.4609C25.0875 24.6271 25.0215 24.7865 24.904 24.904C24.7865 25.0215 24.6271 25.0875 24.4609 25.0875H4.60156C4.43539 25.0875 4.27602 25.0215 4.15852 24.904C4.04101 24.7865 3.975 24.6271 3.975 24.4609V10.4141C3.975 10.2479 4.04101 10.0885 4.15852 9.97102C4.27602 9.85351 4.43539 9.7875 4.60156 9.7875H15.2578C15.4128 9.7875 15.5614 9.72593 15.671 9.61634C15.7806 9.50675 15.8422 9.35811 15.8422 9.20312C15.8422 9.04814 15.7806 8.8995 15.671 8.78991L15.6003 8.86062L15.671 8.78991C15.5614 8.68032 15.4128 8.61875 15.2578 8.61875H4.60156C4.12542 8.61875 3.66877 8.8079 3.33208 9.14458C2.9954 9.48127 2.80625 9.93792 2.80625 10.4141V24.4609C2.80625 24.9371 2.9954 25.3937 3.33209 25.7304C3.66877 26.0671 4.12542 26.2563 4.60156 26.2563H24.4609C24.9371 26.2563 25.3937 26.0671 25.7304 25.7304C26.0671 25.3937 26.2563 24.9371 26.2563 24.4609V18.4062C26.2563 18.2513 26.1947 18.1026 26.0851 17.993C25.9755 17.8834 25.8269 17.8219 25.6719 17.8219Z" fill="#0060D3" stroke="#0060D3" stroke-width="0.2"/>
<path d="M25.1808 8.78766L25.1808 8.78758L25.1774 8.79093L22.2014 11.7669L20.354 9.91953C20.2443 9.80988 20.0956 9.74829 19.9406 9.74829C19.7855 9.74829 19.6368 9.80988 19.5272 9.91953C19.4175 10.0292 19.3559 10.1779 19.3559 10.3329C19.3559 10.488 19.4175 10.6367 19.5272 10.7463L21.7866 13.0057C21.7866 13.0058 21.7866 13.0058 21.7867 13.0058C21.841 13.0605 21.9056 13.1038 21.9768 13.1334C22.048 13.163 22.1244 13.1782 22.2015 13.1781L22.2018 13.1781C22.3565 13.1775 22.5046 13.1155 22.6137 13.0058C22.6137 13.0058 22.6138 13.0058 22.6138 13.0057L26.0042 9.61532L26.0043 9.61541L26.0077 9.61163C26.1083 9.50029 26.1621 9.35455 26.1582 9.20459C26.1542 9.05463 26.0927 8.91194 25.9865 8.80606C25.8802 8.70017 25.7373 8.6392 25.5873 8.63578C25.4374 8.63235 25.2918 8.68673 25.1808 8.78766Z" fill="#0060D3" stroke="#0060D3" stroke-width="0.2"/>
<path d="M28.7455 6.15798L28.7455 6.15786C28.731 6.0229 28.67 5.89718 28.573 5.80228C28.4765 5.70792 28.3504 5.64987 28.216 5.63797C27.3023 5.51958 26.4102 5.27105 25.5669 4.89994L25.5669 4.89993L25.5651 4.89916C24.6943 4.53655 23.883 4.04505 23.1584 3.44115C23.0509 3.34362 22.9109 3.28956 22.7657 3.28956C22.6205 3.28956 22.4805 3.34362 22.373 3.44116C21.6486 4.04532 20.8373 4.53683 19.9664 4.89914L19.9663 4.89912L19.9645 4.89996C19.1257 5.26947 18.2387 5.51795 17.3301 5.63795C17.1953 5.64929 17.0686 5.70703 16.9717 5.80136C16.874 5.89632 16.8126 6.0224 16.7981 6.15782L16.7981 6.15798C16.7869 6.26307 16.66 7.52808 16.6858 9.06705C16.7116 10.6012 16.8891 12.4276 17.4983 13.6436L17.4984 13.6437C18.2242 15.0904 19.4494 16.2152 20.5053 16.9849C21.5474 17.7445 22.4321 18.1637 22.5279 18.2091L22.5315 18.2108L22.5324 18.2112C22.6093 18.2468 22.6931 18.2653 22.7778 18.2653C22.8626 18.2653 22.9463 18.2468 23.0233 18.2112L23.0241 18.2108L23.0278 18.2091C23.1235 18.1637 24.0082 17.7445 25.0503 16.9849C26.1062 16.2152 27.3314 15.0904 28.0573 13.6437L28.0575 13.6432C28.6605 12.4274 28.835 10.601 28.8592 9.06695C28.8835 7.52803 28.7566 6.26305 28.7455 6.15798ZM26.9994 13.1205L26.9993 13.1205C26.4648 14.1883 25.5782 15.0761 24.7299 15.746C23.9172 16.3879 23.1452 16.8256 22.7657 17.0266C22.3862 16.8256 21.6142 16.3879 20.8015 15.746C19.9532 15.0761 19.0666 14.1883 18.5321 13.1205C18.0966 12.2496 17.9189 10.9307 17.8632 9.67157C17.8101 8.4699 17.8687 7.33764 17.9119 6.73288C18.7753 6.57641 19.6182 6.32206 20.4243 5.97469C21.2567 5.62261 22.043 5.17022 22.7657 4.62763C23.4884 5.17022 24.2747 5.62261 25.1071 5.97469C25.9132 6.32208 26.7562 6.57644 27.6197 6.73291C27.664 7.33749 27.7231 8.46982 27.67 9.67157C27.6144 10.9307 27.436 12.2496 26.9994 13.1205Z" fill="#0060D3" stroke="#0060D3" stroke-width="0.2"/>
<path d="M17.9219 23.35H22.7656C22.9206 23.35 23.0692 23.2884 23.1788 23.1788C23.2884 23.0692 23.35 22.9206 23.35 22.7656C23.35 22.6106 23.2884 22.462 23.1788 22.3524C23.0692 22.2428 22.9206 22.1812 22.7656 22.1812H17.9219C17.7669 22.1812 17.6183 22.2428 17.5087 22.3524C17.3991 22.462 17.3375 22.6106 17.3375 22.7656C17.3375 22.9206 17.3991 23.0692 17.5087 23.1788C17.6183 23.2884 17.7669 23.35 17.9219 23.35Z" fill="#0060D3" stroke="#0060D3" stroke-width="0.2"/>
<path d="M17.9219 20.4438H20.8281C20.9831 20.4438 21.1317 20.3822 21.2413 20.2726C21.3509 20.163 21.4125 20.0144 21.4125 19.8594C21.4125 19.7044 21.3509 19.5558 21.2413 19.4462C21.1317 19.3366 20.9831 19.275 20.8281 19.275H17.9219C17.7669 19.275 17.6183 19.3366 17.5087 19.4462C17.3991 19.5558 17.3375 19.7044 17.3375 19.8594C17.3375 20.0144 17.3991 20.163 17.5087 20.2726C17.6183 20.3822 17.7669 20.4438 17.9219 20.4438Z" fill="#0060D3" stroke="#0060D3" stroke-width="0.2"/>
</svg>


