<svg width="24" height="24" viewBox="0 0 24 24" fill="none" xmlns="http://www.w3.org/2000/svg">
<path d="M20.2098 8.20981C20.2098 3.67566 16.5342 0 12 0C7.46586 0 3.79021 3.67566 3.79021 8.20981C2.61803 8.35576 1.5097 9.12201 1.5097 10.9008V15.1881C1.5097 17.195 2.91449 17.9247 4.24631 17.9247H5.569C5.82088 17.9247 6.0251 17.7205 6.0251 17.4686V8.63854C6.0251 8.38666 5.82088 8.18244 5.569 8.18244H4.70241C4.70241 4.15211 7.96968 0.884835 12 0.884835C16.0303 0.884835 19.2976 4.15211 19.2976 8.18244H18.431C18.1791 8.18244 17.9749 8.38666 17.9749 8.63854V17.455C17.9749 17.7068 18.1791 17.9111 18.431 17.9111H19.2976C19.1699 21.0445 17.6648 21.7788 14.6591 21.9111V21.6055C14.6591 21.1017 14.2507 20.6933 13.7469 20.6933H10.878C10.3742 20.6933 9.96581 21.1017 9.96581 21.6055V23.0878C9.96581 23.5916 10.3742 24 10.878 24H13.756C14.2598 24 14.6682 23.5916 14.6682 23.0878V22.8233C17.5599 22.691 20.0593 22.0935 20.2098 17.8837C21.382 17.7377 22.4903 16.9715 22.4903 15.1927V10.9054C22.4903 9.11745 21.3866 8.35576 20.2098 8.20981ZM5.1129 9.06271V16.9989H4.2235C3.54847 16.9989 2.3991 16.7617 2.3991 15.1745V10.8871C2.3991 9.31357 3.53479 9.06271 4.2235 9.06271H5.1129ZM13.756 22.3991V23.0924H10.878V21.61H13.756V22.3991ZM21.5781 15.1881C21.5781 16.7617 20.4424 17.0125 19.7537 17.0125H18.8871V9.09464H19.7765C20.4516 9.09464 21.6009 9.33181 21.6009 10.919L21.5781 15.1881Z" fill="black"/>
</svg>
