<svg width="11" height="16" viewBox="0 0 11 16" fill="none" xmlns="http://www.w3.org/2000/svg">
<path d="M5.52845 0.801514C2.53293 0.801514 0.0952148 3.25613 0.0952148 6.27399C0.0952148 10.562 5.01773 14.9895 5.22721 15.1754C5.31354 15.2521 5.421 15.2901 5.52845 15.2901C5.63591 15.2901 5.74337 15.2521 5.8297 15.1761C6.03918 14.9895 10.9617 10.562 10.9617 6.27399C10.9617 3.25613 8.52398 0.801514 5.52845 0.801514ZM5.52845 9.25322C3.86407 9.25322 2.50999 7.89913 2.50999 6.23475C2.50999 4.57037 3.86407 3.21629 5.52845 3.21629C7.19284 3.21629 8.54692 4.57037 8.54692 6.23475C8.54692 7.89913 7.19284 9.25322 5.52845 9.25322Z" fill="white"/>
</svg>
