<svg
  width="23"
  height="23"
  viewBox="0 0 23 23"
  fill="none"
  xmlns="http://www.w3.org/2000/svg"
>
  <g clipPath="url(#clip0_11_242)">
    <path
      d="M12.9375 4.00583C12.673 4.00583 12.4583 3.79117 12.4583 3.52667V1.91667C12.4583 1.38862 12.028 0.958333 11.5 0.958333C10.9719 0.958333 10.5416 1.38862 10.5416 1.91667V3.52667C10.5416 3.79117 10.327 4.00583 10.0625 4.00583C9.79798 4.00583 9.58331 3.79212 9.58331 3.52667V1.91667C9.58331 0.859625 10.4429 0 11.5 0C12.557 0 13.4166 0.859625 13.4166 1.91667V3.52667C13.4166 3.79212 13.202 4.00583 12.9375 4.00583Z"
      fill="#101010"
    />
    <path
      d="M11.5 23C9.6504 23 8.14581 21.4954 8.14581 19.6458C8.14581 19.3813 8.36048 19.1667 8.62498 19.1667C8.88948 19.1667 9.10415 19.3813 9.10415 19.6458C9.10415 20.9664 10.1794 22.0417 11.5 22.0417C12.8206 22.0417 13.8958 20.9664 13.8958 19.6458C13.8958 19.3813 14.1105 19.1667 14.375 19.1667C14.6395 19.1667 14.8541 19.3813 14.8541 19.6458C14.8541 21.4954 13.3496 23 11.5 23Z"
      fill="#101010"
    />
    <path
      d="M2.38754 17.5568L2.38729 17.557C2.05612 17.8406 1.86669 18.2522 1.86669 18.6875C1.86669 19.5077 2.53403 20.175 3.35419 20.175H19.6459C20.467 20.175 21.1334 19.5076 21.1334 18.6875C21.1334 18.252 20.9438 17.8405 20.6051 17.5503L20.6048 17.5501C19.1134 16.2898 18.2584 14.4475 18.2584 12.4948V9.58333C18.2584 5.85655 15.2268 2.825 11.5 2.825C7.77324 2.825 4.74169 5.85655 4.74169 9.58333V12.4948C4.74169 14.4465 3.88666 16.2898 2.38754 17.5568ZM5.80002 9.58333C5.80002 6.43982 8.35651 3.88333 11.5 3.88333C14.6435 3.88333 17.2 6.43982 17.2 9.58333V12.4948C17.2 14.7587 18.1926 16.8963 19.925 18.3615C20.0202 18.4431 20.075 18.5623 20.075 18.6875C20.075 18.9244 19.8827 19.1167 19.6459 19.1167H3.35419C3.1173 19.1167 2.92502 18.9244 2.92502 18.6875C2.92502 18.5625 2.97975 18.4431 3.07897 18.3585C4.80842 16.8962 5.80002 14.7596 5.80002 12.4948V9.58333Z"
      fill="#202020"
      stroke="black"
      strokeWidth="0.1"
    />
  </g>
  <defs>
    <clipPath id="clip0_11_242">
      <rect width="23" height="23" fill="white" />
    </clipPath>
  </defs>
</svg>
