<svg width="20" height="18" viewBox="0 0 20 18" fill="none" xmlns="http://www.w3.org/2000/svg">
<path d="M19.75 15.5V12.25C19.75 12.0345 19.6644 11.8278 19.512 11.6755C19.3597 11.5231 19.153 11.4375 18.9375 11.4375C18.722 11.4375 18.5153 11.5231 18.363 11.6755C18.2106 11.8278 18.125 12.0345 18.125 12.25V15.5C18.125 15.7155 18.0394 15.9222 17.887 16.0745C17.7347 16.2269 17.528 16.3125 17.3125 16.3125H2.6875C2.47201 16.3125 2.26535 16.2269 2.11298 16.0745C1.9606 15.9222 1.875 15.7155 1.875 15.5V12.25C1.875 12.0345 1.7894 11.8278 1.63702 11.6755C1.48465 11.5231 1.27799 11.4375 1.0625 11.4375C0.847012 11.4375 0.640349 11.5231 0.487976 11.6755C0.335603 11.8278 0.25 12.0345 0.25 12.25V15.5C0.25 16.1465 0.506807 16.7665 0.963927 17.2236C1.42105 17.6807 2.04103 17.9375 2.6875 17.9375H17.3125C17.959 17.9375 18.579 17.6807 19.0361 17.2236C19.4932 16.7665 19.75 16.1465 19.75 15.5ZM14.5663 11.2588L10.5038 14.5088C10.3603 14.6221 10.1828 14.6838 10 14.6838C9.81718 14.6838 9.63969 14.6221 9.49625 14.5088L5.43375 11.2588C5.28573 11.119 5.19554 10.9288 5.18104 10.7258C5.16653 10.5228 5.22877 10.3217 5.35543 10.1623C5.48209 10.003 5.66394 9.89698 5.86502 9.8653C6.06609 9.83362 6.27173 9.87857 6.44125 9.99125L9.1875 12.185V0.875C9.1875 0.659512 9.2731 0.452849 9.42548 0.300476C9.57785 0.148103 9.78451 0.0625 10 0.0625C10.2155 0.0625 10.4222 0.148103 10.5745 0.300476C10.7269 0.452849 10.8125 0.659512 10.8125 0.875V12.185L13.5587 9.99125C13.6406 9.91402 13.7375 9.85462 13.8435 9.81682C13.9495 9.77903 14.0621 9.76365 14.1744 9.77167C14.2866 9.77968 14.3959 9.81092 14.4954 9.8634C14.595 9.91588 14.6825 9.98845 14.7525 10.0765C14.8225 10.1646 14.8735 10.2663 14.9021 10.3751C14.9308 10.4839 14.9366 10.5974 14.9191 10.7086C14.9016 10.8197 14.8612 10.926 14.8004 11.0207C14.7397 11.1154 14.6599 11.1965 14.5663 11.2588Z" fill="#252525"/>
</svg>
