<svg width="286" height="286" viewBox="0 0 286 286" fill="none" xmlns="http://www.w3.org/2000/svg">
<path d="M143.014 269.988L199.672 255.68C232.011 228.826 252.61 188.321 252.61 143.001C252.61 73.0964 203.615 14.6357 138.092 0.0837402C61.3878 2.67059 0 65.6666 0 143.001C0 182.723 16.1992 218.66 42.3481 244.573L143.014 269.988Z" fill="#CBE2FF"/>
<path d="M249.642 143C249.642 189.874 227.086 231.476 192.239 257.556L243.647 244.574C269.797 218.66 285.999 182.724 285.999 143C285.999 64.0232 221.976 0 142.999 0C136.841 0 130.774 0.389898 124.821 1.14512C195.214 10.0759 249.642 70.1817 249.642 143Z" fill="#BED8FB"/>
<path d="M178.538 54.1565C178.538 46.8529 172.618 40.9324 165.314 40.9324H119.743C102.934 40.9324 89.3081 54.5587 89.3081 71.3674V105.158H196.675V71.8466C196.675 64.543 190.754 58.6225 183.451 58.6225H183.005C180.538 58.6225 178.538 56.6233 178.538 54.1565Z" fill="#365E7D"/>
<path d="M183.449 58.623H183.004C180.537 58.623 178.537 56.6233 178.537 54.1565C178.537 46.8529 172.617 40.9324 165.313 40.9324H160.316V105.158H196.673V71.8466C196.674 64.5441 190.753 58.623 183.449 58.623Z" fill="#2B4D66"/>
<path d="M237.426 207.996C233.93 204.542 229.605 201.872 224.696 200.318L185.655 187.957L143.008 186.458L100.342 187.957L61.3016 200.318C48.0942 204.499 39.1182 216.756 39.1182 230.61V241.276C64.137 267.713 99.1396 284.605 138.091 285.918C181.733 276.225 218.042 247.054 237.426 207.996Z" fill="#4A80AA"/>
<path d="M246.879 241.275V230.609C246.879 220.813 242.388 211.82 235.09 205.912C214.36 248.156 173.409 278.679 124.854 284.85C130.715 285.593 136.684 285.989 142.744 285.999C148.566 285.991 154.311 285.653 159.962 285.004C194.053 280.975 224.471 264.954 246.879 241.275Z" fill="#407093"/>
<path d="M146.236 283.859C154.888 266.682 177.418 217.908 170.993 187.441L143.007 176.549L114.995 187.442C108.372 218.849 132.518 269.71 140.512 285.358C142.434 284.896 144.343 284.396 146.236 283.859Z" fill="#E4F6FF"/>
<path d="M160.984 270.242L149.636 225.601H136.36L125.041 270.12L139.038 285.703C142.591 284.889 146.096 283.946 149.545 282.878L160.984 270.242Z" fill="#E28086"/>
<path d="M139.257 285.947C140.416 285.977 141.577 285.998 142.743 286C144.092 285.998 145.437 285.974 146.777 285.937L153.987 277.972C148.312 279.963 142.474 281.606 136.498 282.876L139.257 285.947Z" fill="#DD636E"/>
<path d="M166.894 183.321V158.148H119.089V183.321C119.089 196.522 142.992 210.942 142.992 210.942C142.992 210.942 166.894 196.522 166.894 183.321Z" fill="#FFDDCE"/>
<path d="M196.675 100.725H187.537C182.455 100.725 178.335 96.6052 178.335 91.5232V86.4874C178.335 79.8675 171.858 75.1871 165.573 77.2645C150.914 82.1097 135.085 82.1109 120.426 77.2678L120.408 77.2623C114.123 75.186 107.647 79.8664 107.647 86.4858V91.5237C107.647 96.6058 103.528 100.725 98.4456 100.725H89.3081V115.773C89.3081 119.618 92.4251 122.735 96.2704 122.735C97.4837 122.735 98.4707 123.685 98.5472 124.896C100.015 148.172 119.346 166.598 142.992 166.598C166.637 166.598 185.968 148.172 187.436 124.896C187.513 123.686 188.5 122.735 189.713 122.735C193.558 122.735 196.675 119.618 196.675 115.773V100.725H196.675Z" fill="#FFDDCE"/>
<path d="M187.538 100.725C182.456 100.725 178.336 96.6049 178.336 91.5229V86.4871C178.336 79.8672 171.859 75.1868 165.574 77.2642C163.838 77.8379 162.084 78.3384 160.319 78.7763V128.476C160.074 144.646 151.214 158.719 138.129 166.325C139.727 166.498 141.348 166.596 142.992 166.596C166.637 166.596 185.969 148.17 187.437 124.895C187.513 123.684 188.5 122.734 189.713 122.734C193.558 122.734 196.676 119.617 196.676 115.771V100.724L187.538 100.725Z" fill="#FFCBBE"/>
<path d="M119.088 176.549L100.343 191.78L120.001 216.086C122.392 218.415 126.156 218.558 128.718 216.418L143.501 204.069L119.088 176.549Z" fill="#F4FBFF"/>
<path d="M166.901 176.549L143.5 204.069L157.394 215.949C159.94 218.126 163.722 218.016 166.137 215.696L185.654 191.78L166.901 176.549Z" fill="#F4FBFF"/>
<path d="M119.089 176.549L91.5748 190.066C89.4801 191.095 88.6388 193.644 89.7085 195.718L95.099 206.169C96.496 208.877 95.9804 212.177 93.8243 214.33C92.7143 215.438 91.5122 216.638 90.4705 217.678C88.6059 219.539 87.9361 222.289 88.7573 224.793C95.2654 244.632 126.588 274.97 138.442 285.946C139.239 285.968 140.038 285.982 140.838 285.991C132.242 269.271 101.78 205.746 119.089 176.549Z" fill="#365E7D"/>
<path d="M192.166 214.33C190.009 212.177 189.494 208.877 190.891 206.169L196.282 195.717C197.351 193.643 196.51 191.095 194.415 190.066L166.901 176.549C184.205 205.738 153.765 269.236 145.159 285.978C145.968 285.964 146.775 285.944 147.581 285.917C159.459 274.915 190.731 244.614 197.233 224.793C198.054 222.29 197.384 219.54 195.52 217.678C194.478 216.638 193.276 215.437 192.166 214.33Z" fill="#365E7D"/>
<path d="M143.5 204.07L128.943 216.227L136.36 225.601H149.636L157.054 215.674L143.5 204.07Z" fill="#DD636E"/>
</svg>
