<svg width="24" height="24" viewBox="0 0 24 24" fill="none" xmlns="http://www.w3.org/2000/svg">
<g clip-path="url(#clip0_378_364)">
<path d="M1.74994 8.15006H9.24994C10.2979 8.15006 11.1501 7.29793 11.1501 6.24994V1.74994C11.1501 0.70212 10.2979 -0.15 9.24994 -0.15H1.74994C0.70213 -0.15 -0.15 0.70213 -0.15 1.74994V6.24994C-0.15 7.29792 0.70212 8.15006 1.74994 8.15006ZM1.65 1.74994C1.65 1.6949 1.6949 1.65 1.74994 1.65H9.24994C9.30523 1.65 9.35006 1.69497 9.35006 1.74994V6.24994C9.35006 6.30516 9.30516 6.35006 9.24994 6.35006H1.74994C1.69497 6.35006 1.65 6.30523 1.65 6.24994V1.74994Z" fill="#0060D3" stroke="#D9D9D9" stroke-width="0.3"/>
<path d="M1.74994 24.15H9.24994C10.2979 24.15 11.1501 23.2979 11.1501 22.2501V11.7501C11.1501 10.7021 10.2979 9.84994 9.24994 9.84994H1.74994C0.70212 9.84994 -0.15 10.7021 -0.15 11.7501V22.2501C-0.15 23.2979 0.70213 24.15 1.74994 24.15ZM1.65 11.7501C1.65 11.6948 1.69497 11.6499 1.74994 11.6499H9.24994C9.30516 11.6499 9.35006 11.6948 9.35006 11.7501V22.2501C9.35006 22.305 9.30523 22.35 9.24994 22.35H1.74994C1.6949 22.35 1.65 22.3051 1.65 22.2501V11.7501Z" fill="#0060D3" stroke="#D9D9D9" stroke-width="0.3"/>
<path d="M14.7501 24.15H22.2501C23.2979 24.15 24.15 23.2979 24.15 22.2501V17.7501C24.15 16.7021 23.2979 15.8499 22.2501 15.8499H14.7501C13.7021 15.8499 12.85 16.7021 12.85 17.7501V22.2501C12.85 23.2979 13.7021 24.15 14.7501 24.15ZM14.65 17.7501C14.65 17.6948 14.6949 17.6499 14.7501 17.6499H22.2501C22.3051 17.6499 22.35 17.6948 22.35 17.7501V22.2501C22.35 22.3051 22.3051 22.35 22.2501 22.35H14.7501C14.6948 22.35 14.65 22.305 14.65 22.2501V17.7501Z" fill="#0060D3" stroke="#D9D9D9" stroke-width="0.3"/>
<path d="M14.7501 14.1501H22.2501C23.2979 14.1501 24.15 13.2979 24.15 12.2499V1.74994C24.15 0.70213 23.2979 -0.15 22.2501 -0.15H14.7501C13.7021 -0.15 12.85 0.70212 12.85 1.74994V12.2499C12.85 13.2979 13.7021 14.1501 14.7501 14.1501ZM14.65 1.74994C14.65 1.69497 14.6948 1.65 14.7501 1.65H22.2501C22.3051 1.65 22.35 1.6949 22.35 1.74994V12.2499C22.35 12.3052 22.3051 12.3501 22.2501 12.3501H14.7501C14.6949 12.3501 14.65 12.3052 14.65 12.2499V1.74994Z" fill="#0060D3" stroke="#D9D9D9" stroke-width="0.3"/>
</g>
<defs>
<clipPath id="clip0_378_364">
<rect width="24" height="24" fill="white"/>
</clipPath>
</defs>
</svg>
