<svg width="31" height="31" viewBox="0 0 31 31" fill="none" xmlns="http://www.w3.org/2000/svg">
<path d="M5.81224 21.3125V21.5547C5.81224 22.0043 5.99085 22.4355 6.30879 22.7534C6.62672 23.0714 7.05793 23.25 7.50755 23.25H13.8044C14.2541 23.25 14.6853 23.0714 15.0032 22.7534C15.3211 22.4355 15.4997 22.0043 15.4997 21.5547V21.3125C15.5192 20.4767 15.2605 19.658 14.7643 18.9852C14.2681 18.3123 13.5624 17.8233 12.7582 17.5949C13.2326 17.1694 13.5667 16.61 13.7164 15.9905C13.866 15.3711 13.8242 14.7208 13.5964 14.1256C13.3686 13.5305 12.9656 13.0185 12.4405 12.6573C11.9155 12.296 11.2933 12.1027 10.656 12.1027C10.0187 12.1027 9.39646 12.296 8.87144 12.6573C8.34643 13.0185 7.94338 13.5305 7.71558 14.1256C7.48778 14.7208 7.44595 15.3711 7.59561 15.9905C7.74528 16.61 8.0794 17.1694 8.5538 17.5949C7.74954 17.8233 7.04391 18.3123 6.54769 18.9852C6.05148 19.658 5.79279 20.4767 5.81224 21.3125ZM10.656 13.0781C11.0871 13.0781 11.5085 13.206 11.867 13.4455C12.2254 13.685 12.5048 14.0254 12.6698 14.4237C12.8347 14.822 12.8779 15.2602 12.7938 15.683C12.7097 16.1059 12.5021 16.4942 12.1973 16.7991C11.8924 17.1039 11.504 17.3115 11.0812 17.3956C10.6584 17.4797 10.2201 17.4365 9.82186 17.2716C9.42357 17.1066 9.08315 16.8272 8.84365 16.4688C8.60414 16.1103 8.4763 15.6889 8.4763 15.2578C8.4763 14.6797 8.70595 14.1253 9.11472 13.7165C9.52349 13.3078 10.0779 13.0781 10.656 13.0781ZM9.68724 18.4062H11.6247C12.0087 18.3976 12.3905 18.4669 12.747 18.6099C13.1035 18.7529 13.4273 18.9667 13.6989 19.2383C13.9705 19.5099 14.1843 19.8337 14.3273 20.1902C14.4703 20.5467 14.5396 20.9285 14.531 21.3125V21.5547C14.531 21.7474 14.4544 21.9322 14.3182 22.0684C14.1819 22.2047 13.9971 22.2812 13.8044 22.2812H7.50755C7.31486 22.2812 7.13005 22.2047 6.9938 22.0684C6.85754 21.9322 6.78099 21.7474 6.78099 21.5547V21.3125C6.77239 20.9285 6.84168 20.5467 6.98469 20.1902C7.1277 19.8337 7.34145 19.5099 7.61305 19.2383C7.88466 18.9667 8.20848 18.7529 8.56497 18.6099C8.92146 18.4669 9.30323 18.3976 9.68724 18.4062Z" fill="#0060D3"/>
<path d="M25.6719 17.9219C25.5434 17.9219 25.4202 17.9729 25.3294 18.0637C25.2385 18.1546 25.1875 18.2778 25.1875 18.4062V24.4609C25.1875 24.6536 25.111 24.8384 24.9747 24.9747C24.8384 25.111 24.6536 25.1875 24.4609 25.1875H4.60156C4.40887 25.1875 4.22406 25.111 4.08781 24.9747C3.95155 24.8384 3.875 24.6536 3.875 24.4609V10.4141C3.875 10.2214 3.95155 10.0366 4.08781 9.90031C4.22406 9.76405 4.40887 9.6875 4.60156 9.6875H15.2578C15.3863 9.6875 15.5095 9.63647 15.6003 9.54563C15.6912 9.45479 15.7422 9.33159 15.7422 9.20312C15.7422 9.07466 15.6912 8.95146 15.6003 8.86062C15.5095 8.76978 15.3863 8.71875 15.2578 8.71875H4.60156C4.15194 8.71875 3.72073 8.89736 3.4028 9.2153C3.08486 9.53323 2.90625 9.96444 2.90625 10.4141V24.4609C2.90625 24.9106 3.08486 25.3418 3.4028 25.6597C3.72073 25.9776 4.15194 26.1562 4.60156 26.1562H24.4609C24.9106 26.1562 25.3418 25.9776 25.6597 25.6597C25.9776 25.3418 26.1562 24.9106 26.1562 24.4609V18.4062C26.1562 18.2778 26.1052 18.1546 26.0144 18.0637C25.9235 17.9729 25.8003 17.9219 25.6719 17.9219Z" fill="#0060D3"/>
<path d="M25.2482 8.86164L22.2015 11.9084L20.2833 9.99024C20.1924 9.89935 20.0692 9.84829 19.9406 9.84829C19.8121 9.84829 19.6888 9.89935 19.5979 9.99024C19.5071 10.0811 19.456 10.2044 19.456 10.3329C19.456 10.4615 19.5071 10.5847 19.5979 10.6756L21.8576 12.9352C21.9026 12.9806 21.9562 13.0165 22.0152 13.0411C22.0742 13.0656 22.1375 13.0782 22.2015 13.0781C22.3297 13.0776 22.4525 13.0262 22.5429 12.9352L25.9336 9.54461C26.0169 9.45232 26.0615 9.33153 26.0583 9.20723C26.055 9.08293 26.004 8.96466 25.916 8.87689C25.8279 8.78912 25.7094 8.73859 25.5851 8.73575C25.4608 8.73291 25.3402 8.77799 25.2482 8.86164Z" fill="#0060D3"/>
<path d="M28.646 6.1685C28.634 6.05664 28.5835 5.95243 28.5031 5.87377C28.4226 5.79511 28.3173 5.7469 28.2052 5.73741C27.2813 5.61791 26.3793 5.36671 25.5266 4.99147C24.6459 4.62473 23.8254 4.12752 23.0927 3.51655C23.0034 3.43486 22.8867 3.38956 22.7657 3.38956C22.6447 3.38956 22.528 3.43486 22.4388 3.51655C21.7062 4.12779 20.8856 4.62502 20.0048 4.99147C19.1566 5.36513 18.2596 5.61629 17.3407 5.73741C17.2282 5.74636 17.1223 5.79433 17.0414 5.87305C16.9605 5.95176 16.9096 6.05626 16.8975 6.1685C16.8757 6.37436 16.3913 11.2108 17.5877 13.5988C19.0191 16.4518 22.4315 18.0526 22.5744 18.1205C22.6381 18.15 22.7076 18.1653 22.7778 18.1653C22.8481 18.1653 22.9175 18.15 22.9813 18.1205C23.1241 18.0526 26.5366 16.4518 27.9679 13.5988C29.1522 11.2108 28.6678 6.37436 28.646 6.1685ZM27.0888 13.1653C26.0013 15.3377 23.4923 16.7594 22.7657 17.1396C22.0391 16.7594 19.5301 15.3377 18.4427 13.1653C17.5514 11.3828 17.7306 7.81538 17.8178 6.64804C18.7005 6.49423 19.5622 6.23737 20.385 5.88272C21.2332 5.52402 22.033 5.06023 22.7657 4.50225C23.4984 5.06023 24.2982 5.52402 25.1464 5.88272C25.9693 6.23737 26.8309 6.49423 27.7136 6.64804C27.8032 7.81538 27.9824 11.3828 27.0888 13.1653Z" fill="#0060D3"/>
<path d="M17.9219 23.25H22.7656C22.8941 23.25 23.0173 23.199 23.1081 23.1081C23.199 23.0173 23.25 22.8941 23.25 22.7656C23.25 22.6372 23.199 22.514 23.1081 22.4231C23.0173 22.3323 22.8941 22.2812 22.7656 22.2812H17.9219C17.7934 22.2812 17.6702 22.3323 17.5794 22.4231C17.4885 22.514 17.4375 22.6372 17.4375 22.7656C17.4375 22.8941 17.4885 23.0173 17.5794 23.1081C17.6702 23.199 17.7934 23.25 17.9219 23.25Z" fill="#0060D3"/>
<path d="M17.9219 20.3438H20.8281C20.9566 20.3438 21.0798 20.2927 21.1706 20.2019C21.2615 20.111 21.3125 19.9878 21.3125 19.8594C21.3125 19.7309 21.2615 19.6077 21.1706 19.5169C21.0798 19.426 20.9566 19.375 20.8281 19.375H17.9219C17.7934 19.375 17.6702 19.426 17.5794 19.5169C17.4885 19.6077 17.4375 19.7309 17.4375 19.8594C17.4375 19.9878 17.4885 20.111 17.5794 20.2019C17.6702 20.2927 17.7934 20.3438 17.9219 20.3438Z" fill="#0060D3"/>
</svg>
