<svg width="29" height="29" viewBox="0 0 29 29" fill="none" xmlns="http://www.w3.org/2000/svg">
<path d="M14.5 10.875C15.3066 10.875 16.095 10.6358 16.7657 10.1877C17.4363 9.7396 17.959 9.10269 18.2677 8.35751C18.5764 7.61233 18.6571 6.79235 18.4998 6.00127C18.3424 5.2102 17.954 4.48354 17.3837 3.91321C16.8133 3.34287 16.0867 2.95447 15.2956 2.79711C14.5045 2.63976 13.6845 2.72052 12.9394 3.02918C12.1942 3.33784 11.5573 3.86055 11.1092 4.53119C10.6611 5.20184 10.4219 5.9903 10.4219 6.79688C10.4219 7.87846 10.8515 8.91575 11.6163 9.68055C12.3811 10.4453 13.4184 10.875 14.5 10.875ZM14.5 3.625C15.1273 3.625 15.7406 3.81103 16.2622 4.15956C16.7838 4.50809 17.1904 5.00347 17.4304 5.58305C17.6705 6.16264 17.7333 6.8004 17.6109 7.41568C17.4885 8.03096 17.1864 8.59614 16.7429 9.03973C16.2993 9.48333 15.7341 9.78542 15.1188 9.90781C14.5035 10.0302 13.8658 9.96738 13.2862 9.72731C12.7066 9.48724 12.2112 9.08069 11.8627 8.55908C11.5142 8.03746 11.3281 7.42421 11.3281 6.79688C11.3281 5.95564 11.6623 5.14886 12.2571 4.55402C12.852 3.95918 13.6588 3.625 14.5 3.625Z" fill="#101010"/>
<path d="M6.34375 26.2812H22.6562C22.7764 26.2812 22.8917 26.2335 22.9767 26.1485C23.0616 26.0636 23.1094 25.9483 23.1094 25.8281V17.3094C23.1082 15.8436 22.5254 14.4382 21.4889 13.4017C20.4524 12.3653 19.047 11.7824 17.5812 11.7812H11.4188C9.95297 11.7824 8.54756 12.3653 7.5111 13.4017C6.47464 14.4382 5.89182 15.8436 5.89062 17.3094V25.8281C5.89062 25.9483 5.93836 26.0636 6.02334 26.1485C6.10832 26.2335 6.22357 26.2812 6.34375 26.2812ZM13.7206 12.6875H15.2839C15.3638 12.8252 15.406 12.9815 15.4062 13.1406C15.4095 13.278 15.3814 13.4142 15.3242 13.5391C15.2671 13.664 15.1822 13.7743 15.0762 13.8616C14.9701 13.9489 14.8456 14.0109 14.712 14.043C14.5784 14.0751 14.4393 14.0764 14.3052 14.0469C14.129 14.0115 13.9672 13.9246 13.8406 13.7971C13.7139 13.6696 13.628 13.5074 13.5938 13.3309C13.5542 13.1081 13.5995 12.8786 13.7206 12.6875ZM16.2762 19.4119L14.5 22.253L12.7238 19.4119L13.9608 14.8806C14.1383 14.9192 14.3186 14.9435 14.5 14.9531C14.6833 14.9504 14.8651 14.9198 15.0392 14.8625L16.2762 19.4119ZM6.79688 17.3094C6.79688 16.0836 7.28382 14.908 8.15059 14.0412C9.01736 13.1744 10.193 12.6875 11.4188 12.6875H12.7464C12.6775 12.9557 12.6698 13.236 12.7238 13.5077C12.7943 13.829 12.9509 14.125 13.1769 14.3641L11.8175 19.3484C11.8008 19.4083 11.7966 19.471 11.8052 19.5326C11.8138 19.5942 11.8349 19.6534 11.8673 19.7064L14.133 23.3314C14.1736 23.397 14.2303 23.4511 14.2977 23.4886C14.3651 23.5261 14.441 23.5458 14.5181 23.5458C14.5953 23.5458 14.6711 23.5261 14.7385 23.4886C14.8059 23.4511 14.8626 23.397 14.9033 23.3314L17.1689 19.7064C17.2013 19.6534 17.2225 19.5942 17.2311 19.5326C17.2396 19.471 17.2354 19.4083 17.2188 19.3484L15.8594 14.3641C16.157 14.0266 16.3186 13.5905 16.3125 13.1406C16.3095 12.9876 16.2882 12.8355 16.2491 12.6875H17.5812C18.1882 12.6875 18.7892 12.807 19.35 13.0393C19.9107 13.2716 20.4202 13.612 20.8494 14.0412C21.2786 14.4704 21.619 14.9799 21.8513 15.5407C22.0836 16.1014 22.2031 16.7024 22.2031 17.3094V25.375H6.79688V17.3094Z" fill="#101010"/>
</svg>
