<svg width="245" height="184" viewBox="0 0 245 184" fill="none" xmlns="http://www.w3.org/2000/svg">
<path d="M245 161.388H0V161.511H245V161.388Z" fill="#EBEBEB"/>
<path d="M220.451 169.272H209.828V169.395H220.451V169.272Z" fill="#EBEBEB"/>
<path d="M168.889 166.734H152.175V166.856H168.889V166.734Z" fill="#EBEBEB"/>
<path d="M216.149 164.725H194.329V164.847H216.149V164.725Z" fill="#EBEBEB"/>
<path d="M84.7799 167.195H79.3213V167.317H84.7799V167.195Z" fill="#EBEBEB"/>
<path d="M74.9551 167.195H56.144V167.317H74.9551V167.195Z" fill="#EBEBEB"/>
<path d="M46.0647 165.127H32.4917V165.249H46.0647V165.127Z" fill="#EBEBEB"/>
<path d="M116.13 139.534H21.5157C20.7745 139.533 20.0641 139.237 19.5404 138.713C19.0168 138.188 18.7227 137.477 18.7227 136.736V3.73544C18.7291 2.99849 19.0261 2.29385 19.549 1.77456C20.072 1.25528 20.7787 0.963299 21.5157 0.962036H116.13C116.872 0.962036 117.583 1.25681 118.108 1.78152C118.633 2.30623 118.928 3.01789 118.928 3.75994V136.736C118.928 137.478 118.633 138.19 118.108 138.715C117.583 139.239 116.872 139.534 116.13 139.534ZM21.5157 1.06004C20.8069 1.06133 20.1277 1.34378 19.627 1.84537C19.1264 2.34697 18.8452 3.02672 18.8452 3.73544V136.736C18.8452 137.445 19.1264 138.125 19.627 138.626C20.1277 139.128 20.8069 139.41 21.5157 139.412H116.13C116.839 139.41 117.519 139.128 118.02 138.626C118.522 138.125 118.804 137.445 118.805 136.736V3.73544C118.804 3.02627 118.522 2.34653 118.02 1.84507C117.519 1.34362 116.839 1.06133 116.13 1.06004H21.5157Z" fill="#EBEBEB"/>
<path d="M222.122 139.534H127.503C126.761 139.533 126.05 139.238 125.526 138.713C125.002 138.189 124.706 137.478 124.705 136.736V3.73544C124.713 2.99804 125.011 2.2934 125.535 1.77426C126.058 1.25511 126.766 0.963285 127.503 0.962036H222.122C222.858 0.964586 223.564 1.25714 224.085 1.77628C224.607 2.29543 224.904 2.99933 224.91 3.73544V136.736C224.91 137.476 224.617 138.187 224.094 138.711C223.571 139.236 222.862 139.531 222.122 139.534ZM127.503 1.06004C126.794 1.06133 126.114 1.34362 125.613 1.84507C125.111 2.34653 124.829 3.02627 124.828 3.73544V136.736C124.829 137.445 125.111 138.125 125.613 138.626C126.114 139.128 126.794 139.41 127.503 139.412H222.122C222.831 139.41 223.511 139.128 224.012 138.626C224.514 138.125 224.796 137.445 224.797 136.736V3.73544C224.796 3.02627 224.514 2.34653 224.012 1.84507C223.511 1.34362 222.831 1.06133 222.122 1.06004H127.503Z" fill="#EBEBEB"/>
<path d="M105.875 72.4433L106.095 66.0047L102.146 64.7111C101.976 62.5291 101.622 60.3654 101.087 58.2431L104.439 55.7931L102.165 49.7465L98.02 50.0797C97.0371 48.1315 95.8896 46.2709 94.59 44.5182L96.7362 40.9363L92.3262 36.2274L88.6218 38.1237C86.956 36.6998 85.1762 35.4149 83.3004 34.2821L83.8982 30.1661L78.0182 27.5005L75.3232 30.6561C73.2441 29.991 71.1134 29.4993 68.9532 29.1861L67.9732 25.1534L61.515 24.9329L60.241 28.8872C58.0611 29.0585 55.8993 29.4109 53.7779 29.9407L51.2887 26.6087L45.2421 28.8676L45.5753 33.013C43.6281 34.0108 41.7678 35.1696 40.0138 36.4773L36.4074 34.2821L31.6789 38.6921L33.5752 42.4161C32.1509 44.0735 30.8722 45.8506 29.7532 47.7277L25.6421 47.1103L22.9569 52.9903L26.1321 55.6804C25.4623 57.7582 24.9705 59.8892 24.6621 62.0504L20.5804 63.0745L20.3599 69.5131L24.3289 70.8067C24.493 72.9874 24.8455 75.1498 25.3824 77.2698L22.0308 79.7198L24.3093 85.7713L28.4547 85.4381C29.435 87.3876 30.5827 89.2484 31.8847 90.9996L29.7336 94.5815L34.1436 99.2904L37.848 97.3941C39.5094 98.8176 41.286 100.101 43.1596 101.231L42.5422 105.342L48.4222 108.012L51.1319 104.857C53.2109 105.528 55.3413 106.028 57.5019 106.351L58.4819 110.384L64.9401 110.604L66.2141 106.65C68.3953 106.477 70.5586 106.124 72.6821 105.597L75.1321 108.929L81.1787 106.67L80.8651 102.524C82.8086 101.52 84.6684 100.362 86.4266 99.0601L89.9889 101.206L94.7174 96.7963L92.8211 93.0723C94.2457 91.4152 95.5245 89.638 96.6431 87.7607L100.754 88.3781L103.439 82.4981L100.264 79.8031C100.945 77.7268 101.445 75.5955 101.759 73.4331L105.875 72.4433ZM62.3676 93.3026C57.3147 93.1319 52.4259 91.4664 48.3197 88.5168C44.2134 85.5673 41.0742 81.4661 39.2992 76.7322C37.5241 71.9983 37.1929 66.8442 38.3475 61.922C39.5021 56.9998 42.0905 52.5306 45.7855 49.0798C49.4804 45.6289 54.1158 43.3514 59.1053 42.5354C64.0948 41.7194 69.2143 42.4015 73.816 44.4955C78.4178 46.5895 82.2952 50.0012 84.9577 54.2991C87.6202 58.5971 88.9482 63.5881 88.7737 68.6409C88.5411 75.4124 85.6287 81.8145 80.6769 86.4392C75.7251 91.0639 69.1392 93.5326 62.3676 93.3026Z" fill="#EBEBEB"/>
<path d="M216.09 51.1479L217.712 49.6338L217.07 48.3549C217.56 47.7819 218.001 47.1689 218.388 46.5223L219.809 46.733L220.726 44.7044L219.638 43.7783C219.872 43.0611 220.044 42.325 220.152 41.5782L221.549 41.2303L221.617 39.0057L220.255 38.5647C220.195 37.8113 220.074 37.064 219.893 36.3303L221.044 35.4728L220.26 33.3903L218.834 33.503C218.49 32.8314 218.092 32.189 217.643 31.5822L218.383 30.3572L216.859 28.7304L215.585 29.3821C215.012 28.8936 214.399 28.4527 213.753 28.064L213.959 26.643L211.935 25.7169L211.004 26.8096C210.285 26.5859 209.549 26.422 208.804 26.3196L208.456 24.928L206.231 24.8447L205.785 26.2167C205.035 26.2741 204.291 26.3954 203.561 26.5793L202.708 25.4278L200.621 26.2069L200.738 27.6377C200.065 27.9782 199.422 28.3766 198.818 28.8284L197.583 28.0885L195.956 29.6026L196.588 30.8521C196.095 31.4235 195.652 32.0367 195.265 32.6847L193.849 32.474L192.928 34.5026L194.021 35.4336C193.794 36.1498 193.63 36.8843 193.531 37.6288L192.129 37.9767L192.061 40.2013L193.428 40.6423C193.483 41.3959 193.603 42.1434 193.785 42.8767L192.629 43.7293L193.413 45.8118L194.844 45.704C195.188 46.3757 195.586 47.0181 196.034 47.6248L195.295 48.8498L196.818 50.4766L198.092 49.8249C198.665 50.3151 199.278 50.756 199.925 51.143L199.714 52.5591L201.743 53.4852L202.674 52.3974C203.393 52.6189 204.129 52.7827 204.874 52.8874L205.222 54.279L207.447 54.3623L207.892 52.9903C208.643 52.9333 209.387 52.812 210.117 52.6277L210.97 53.7792L213.057 53.0001L212.944 51.5693C213.616 51.2283 214.257 50.83 214.86 50.3786L216.09 51.1479ZM204.516 41.7742C204.088 41.3157 203.806 40.7406 203.705 40.1216C203.604 39.5027 203.689 38.8676 203.949 38.2969C204.209 37.7262 204.632 37.2454 205.166 36.9154C205.699 36.5853 206.318 36.4209 206.945 36.4428C207.572 36.4648 208.178 36.6721 208.687 37.0386C209.196 37.4052 209.585 37.9144 209.804 38.5019C210.023 39.0894 210.064 39.7288 209.92 40.3392C209.776 40.9496 209.454 41.5036 208.995 41.931C208.69 42.2182 208.332 42.4421 207.94 42.5898C207.549 42.7375 207.131 42.806 206.713 42.7914C206.295 42.7769 205.883 42.6794 205.503 42.5048C205.123 42.3302 204.781 42.0819 204.497 41.7742H204.516Z" fill="#EBEBEB"/>
<path d="M156.8 117.259L151.734 113.755C151.237 111.931 150.554 110.162 149.695 108.478L150.994 103.382L143.644 95.5125L138.469 96.4582C136.846 95.4857 135.127 94.6827 133.339 94.0621L130.193 88.7652L119.413 88.3977L115.915 93.4643C114.092 93.9606 112.326 94.642 110.642 95.4978L105.546 94.1993L97.6768 101.549L98.6225 106.714C97.6508 108.34 96.8495 110.063 96.2313 111.854L90.9344 115L90.5669 125.78L95.6384 129.278C96.1268 131.113 96.8084 132.89 97.6719 134.58L96.3587 139.632L103.709 147.501L108.849 146.561C110.484 147.534 112.215 148.339 114.013 148.962L117.154 154.249L127.934 154.621L131.428 149.555C133.267 149.058 135.05 148.375 136.749 147.516L141.816 148.81L149.69 141.46L148.745 136.295C149.719 134.668 150.521 132.944 151.136 131.15L156.433 128.004L156.8 117.259ZM123.26 133.62C120.867 133.538 118.551 132.748 116.607 131.351C114.663 129.953 113.176 128.011 112.336 125.769C111.495 123.526 111.339 121.085 111.885 118.754C112.432 116.423 113.658 114.306 115.408 112.671C117.157 111.037 119.353 109.958 121.716 109.57C124.079 109.183 126.503 109.505 128.683 110.496C130.863 111.487 132.701 113.102 133.963 115.137C135.225 117.172 135.855 119.535 135.774 121.928C135.662 125.138 134.28 128.172 131.933 130.364C129.586 132.556 126.465 133.727 123.255 133.62H123.26Z" fill="#EBEBEB"/>
<path d="M168.34 86.712H168.305L159.818 86.4229C159.647 86.4198 159.478 86.3732 159.329 86.2875C159.18 86.2018 159.055 86.0798 158.966 85.9329L156.678 82.0864C155.444 81.6352 154.251 81.0812 153.11 80.4302L149.45 81.0623C149.28 81.0935 149.104 81.0811 148.939 81.0263C148.775 80.9715 148.627 80.876 148.509 80.7487L142.713 74.5453C142.591 74.4168 142.504 74.2591 142.462 74.0874C142.419 73.9158 142.421 73.7359 142.468 73.5653L143.394 69.9344C142.82 68.7578 142.351 67.533 141.992 66.2741L138.303 63.7261C138.159 63.6279 138.044 63.495 137.966 63.34C137.888 63.1849 137.85 63.0126 137.857 62.8392L138.146 54.3524C138.152 54.181 138.199 54.0137 138.285 53.8651C138.37 53.7164 138.491 53.591 138.636 53.4998L142.492 51.2115C142.937 49.981 143.489 48.7922 144.143 47.659L143.467 43.9693C143.436 43.798 143.448 43.6215 143.503 43.4562C143.557 43.2908 143.653 43.142 143.781 43.0236L149.984 37.2318C150.112 37.1097 150.27 37.0226 150.442 36.9788C150.613 36.9351 150.793 36.9361 150.964 36.9819L154.61 37.9129C155.783 37.3388 157.005 36.8683 158.26 36.5066L160.808 32.8169C160.903 32.6703 161.035 32.5517 161.191 32.4733C161.347 32.3949 161.521 32.3596 161.695 32.371L170.177 32.665C170.35 32.6686 170.518 32.7154 170.668 32.801C170.818 32.8866 170.944 33.0083 171.035 33.155L173.323 37.0064C174.547 37.456 175.731 38.0101 176.861 38.6626L180.565 37.9815C180.736 37.9498 180.911 37.962 181.076 38.0168C181.241 38.0717 181.388 38.1674 181.506 38.2951L187.303 44.4985C187.423 44.6275 187.509 44.7852 187.552 44.9567C187.595 45.1282 187.593 45.3078 187.548 45.4785L186.617 49.1192C187.191 50.2934 187.663 51.5147 188.028 52.7697L191.713 55.3177C191.856 55.4159 191.972 55.5487 192.05 55.7038C192.128 55.8589 192.165 56.0311 192.158 56.2046L191.869 64.6865C191.864 64.8585 191.816 65.0265 191.731 65.1759C191.645 65.3253 191.525 65.4517 191.379 65.544L187.523 67.8323C187.075 69.06 186.523 70.2469 185.872 71.3799L186.548 75.0745C186.58 75.245 186.568 75.4208 186.513 75.5854C186.458 75.7499 186.362 75.8979 186.234 76.0153L179.992 81.812C179.863 81.9336 179.706 82.0201 179.534 82.063C179.362 82.1059 179.182 82.1039 179.012 82.057L175.386 81.1309C174.204 81.7023 172.977 82.1728 171.716 82.5372L169.192 86.222C169.101 86.3674 168.976 86.4882 168.827 86.5737C168.679 86.6592 168.511 86.7067 168.34 86.712ZM160.455 84.3747L167.805 84.6246L170.255 81.1015C170.391 80.8959 170.599 80.7489 170.839 80.6899C172.217 80.3128 173.555 79.799 174.832 79.1562C175.055 79.0489 175.308 79.0229 175.547 79.0827L178.977 79.9598L184.367 74.9373L183.75 71.3946C183.702 71.147 183.748 70.8905 183.877 70.6743C184.605 69.461 185.205 68.1751 185.666 66.8376C185.744 66.5951 185.908 66.3895 186.127 66.2594L189.816 64.074L190.066 56.724L186.538 54.274C186.352 54.1471 186.213 53.963 186.141 53.7497C186.141 53.7252 186.141 53.6958 186.141 53.6664C185.764 52.312 185.252 50.9988 184.612 49.7464C184.499 49.5222 184.471 49.2644 184.534 49.0212L185.416 45.552L180.394 40.162L176.87 40.8088C176.624 40.8534 176.371 40.8082 176.155 40.6814C174.939 39.9522 173.652 39.3496 172.313 38.8831C172.237 38.8585 172.163 38.8256 172.093 38.7851C171.952 38.697 171.834 38.5759 171.75 38.4323L169.54 34.7328L162.19 34.478L159.74 38.0109C159.594 38.218 159.378 38.3658 159.132 38.4274C157.768 38.8003 156.445 39.3109 155.183 39.9513C154.961 40.0648 154.704 40.0927 154.463 40.0297L150.994 39.1477L145.604 44.1702L146.25 47.6835C146.289 47.9051 146.256 48.1332 146.157 48.3352L146.108 48.4185C145.38 49.6365 144.78 50.9273 144.32 52.2699C144.239 52.5001 144.079 52.6944 143.869 52.8187L140.179 55.009L139.929 62.359L143.462 64.809C143.664 64.9468 143.81 65.1517 143.874 65.3872C144.241 66.7631 144.752 68.0967 145.398 69.366C145.433 69.4383 145.461 69.5137 145.481 69.5914C145.518 69.7526 145.518 69.9201 145.481 70.0814L144.599 73.5114L149.622 78.9014L153.12 78.2595C153.365 78.2148 153.617 78.26 153.831 78.3869C155.056 79.1147 156.351 79.7172 157.697 80.1852C157.94 80.2573 158.145 80.4206 158.27 80.6409L160.455 84.3747ZM164.998 75.0794C164.816 75.0794 164.635 75.0794 164.454 75.0794C160.381 75.0077 156.5 73.33 153.658 70.4115C150.816 67.493 149.241 63.5699 149.277 59.4961C149.313 55.4223 150.956 51.5275 153.849 48.6595C156.743 45.7915 160.652 44.1824 164.726 44.1824C168.8 44.1824 172.709 45.7915 175.602 48.6595C178.496 51.5275 180.139 55.4223 180.175 59.4961C180.211 63.5699 178.636 67.493 175.794 70.4115C172.951 73.33 169.071 75.0077 164.998 75.0794ZM164.998 46.1253C161.438 46.1867 158.047 47.6517 155.562 50.2014C153.078 52.7512 151.701 56.1792 151.732 59.7392C151.762 63.2992 153.198 66.7029 155.726 69.2094C158.254 71.7159 161.67 73.1223 165.231 73.1223C168.791 73.1223 172.207 71.7159 174.735 69.2094C177.263 66.7029 178.699 63.2992 178.73 59.7392C178.76 56.1792 177.383 52.7512 174.899 50.2014C172.414 47.6517 169.023 46.1867 165.463 46.1253H164.998Z" fill="#EBEBEB"/>
<path d="M187.886 25.6188L184.368 24.678L183.427 21.1598L184.804 19.7878L186.254 22.7915L189.263 24.2468L187.886 25.6188Z" fill="#E0E0E0"/>
<path d="M188.101 23.2669C188.253 23.1147 188.374 22.934 188.456 22.7352C188.539 22.5363 188.581 22.3232 188.581 22.108C188.581 21.8928 188.539 21.6797 188.456 21.4808C188.374 21.282 188.253 21.1013 188.101 20.9492C187.949 20.797 187.768 20.6763 187.569 20.5939C187.37 20.5115 187.157 20.4691 186.942 20.4691C186.727 20.4691 186.514 20.5115 186.315 20.5939C186.116 20.6763 185.935 20.797 185.783 20.9492L187.533 18.3228L189.875 19.5086L190.389 21.9586L188.101 23.2669Z" fill="#E0E0E0"/>
<path d="M184.524 20.072L187.101 17.4946L190.61 18.4305L191.555 21.9438L188.978 24.5212L185.465 23.5755L184.524 20.072ZM189.203 22.179C189.433 21.9494 189.589 21.6569 189.652 21.3385C189.715 21.0202 189.683 20.6902 189.559 20.3903C189.434 20.0905 189.224 19.8342 188.954 19.6539C188.684 19.4736 188.367 19.3774 188.042 19.3774C187.718 19.3774 187.4 19.4736 187.13 19.6539C186.86 19.8342 186.65 20.0905 186.526 20.3903C186.401 20.6902 186.369 21.0202 186.432 21.3385C186.495 21.6569 186.651 21.9494 186.881 22.179C187.191 22.4835 187.609 22.6533 188.044 22.6515C188.479 22.6496 188.896 22.4764 189.203 22.1692V22.179Z" fill="#F0F0F0"/>
<path d="M44.2077 119.4L46.0942 118.89L46.5989 117.004L45.8639 116.269L45.0848 117.881L43.4678 118.66L44.2077 119.4Z" fill="#E0E0E0"/>
<path d="M44.1001 118.136C43.9527 117.967 43.8748 117.749 43.8822 117.526C43.8896 117.302 43.9818 117.089 44.14 116.931C44.2983 116.773 44.5108 116.681 44.7345 116.673C44.9582 116.666 45.1763 116.744 45.3447 116.891L44.4088 115.485L43.1201 116.112L42.8457 117.435L44.1001 118.136Z" fill="#E0E0E0"/>
<path d="M46.0112 116.416L44.6294 115.034L42.7429 115.524L42.2529 117.411L43.6102 118.807L45.4967 118.317L46.0112 116.416ZM43.5024 117.548C43.4116 117.468 43.338 117.371 43.2863 117.262C43.2347 117.153 43.2059 117.034 43.2019 116.913C43.1979 116.793 43.2187 116.672 43.2631 116.56C43.3075 116.448 43.3744 116.346 43.4598 116.261C43.5452 116.175 43.6472 116.108 43.7595 116.064C43.8718 116.019 43.992 115.999 44.1127 116.003C44.2333 116.007 44.3519 116.035 44.461 116.087C44.5701 116.139 44.6675 116.212 44.747 116.303C44.8945 116.472 44.9724 116.69 44.965 116.913C44.9575 117.137 44.8654 117.35 44.7071 117.508C44.5488 117.666 44.3363 117.758 44.1127 117.766C43.889 117.773 43.6708 117.695 43.5024 117.548Z" fill="#F0F0F0"/>
<path d="M37.4165 15.9854L38.9845 17.5534C39.1806 17.7461 39.4445 17.8541 39.7195 17.8541C39.9944 17.8541 40.2584 17.7461 40.4545 17.5534C40.646 17.3567 40.7532 17.093 40.7532 16.8184C40.7532 16.5438 40.646 16.2801 40.4545 16.0834L38.8914 14.5203C38.6947 14.3288 38.4309 14.2216 38.1564 14.2216C37.8818 14.2216 37.6181 14.3288 37.4214 14.5203C37.2295 14.7156 37.1215 14.9781 37.1206 15.2519C37.1197 15.5256 37.2259 15.7889 37.4165 15.9854Z" fill="#F0F0F0"/>
<path d="M36.3139 12.09C36.7231 11.9762 37.1566 11.9844 37.5612 12.1135C37.9657 12.2426 38.3238 12.4871 38.5914 12.8169C38.8589 13.1467 39.0244 13.5474 39.0674 13.97C39.1104 14.3925 39.0291 14.8183 38.8335 15.1953C38.6378 15.5722 38.3363 15.8838 37.9661 16.0918C37.5958 16.2998 37.1729 16.3952 36.7492 16.3662C36.3255 16.3372 35.9195 16.1851 35.581 15.9285C35.2426 15.672 34.9864 15.3222 34.8439 14.9222C34.7535 14.6397 34.7198 14.3422 34.7448 14.0466C34.7698 13.7511 34.8531 13.4635 34.9897 13.2002C35.1263 12.937 35.3137 12.7034 35.5409 12.5128C35.7682 12.3223 36.0309 12.1786 36.3139 12.09Z" fill="#E0E0E0"/>
<path d="M34.609 14.6599L34.8359 15.2916L39.4935 13.6185L39.2666 12.9867L34.609 14.6599Z" fill="#F0F0F0"/>
<path d="M122.5 183.516C174.97 183.516 217.506 181.033 217.506 177.97C217.506 174.906 174.97 172.423 122.5 172.423C70.0293 172.423 27.4937 174.906 27.4937 177.97C27.4937 181.033 70.0293 183.516 122.5 183.516Z" fill="#F5F5F5"/>
<path d="M42.4926 33.1306C42.0026 30.9697 42.2182 29.1567 43.1492 27.6769C44.0802 26.1971 45.5992 25.2269 47.7601 24.7369C49.921 24.2469 51.7879 24.4429 53.2481 25.3543C54.7083 26.2657 55.6981 27.8043 56.1881 29.9113C56.534 31.2118 56.5626 32.5763 56.2714 33.8901C55.9865 34.9812 55.3846 35.9634 54.5417 36.7125C53.5405 37.5554 52.3389 38.1258 51.0529 38.3687C49.7923 38.7034 48.4723 38.7486 47.1917 38.501C46.0785 38.2305 45.0717 37.6332 44.3007 36.786C43.3795 35.7528 42.7548 34.4898 42.4926 33.1306ZM46.5792 32.2192C46.883 33.552 47.3485 34.4536 47.9757 34.924C48.2995 35.1399 48.6635 35.288 49.046 35.3596C49.4285 35.4312 49.8215 35.4246 50.2014 35.3404C50.5814 35.2562 50.9403 35.096 51.2567 34.8695C51.5731 34.643 51.8405 34.3549 52.0427 34.0224C52.3955 33.3413 52.4004 32.2584 52.0672 30.7835C51.783 29.5389 51.324 28.6863 50.6903 28.2257C50.3712 27.9967 50.0049 27.8421 49.6182 27.7735C49.2315 27.7048 48.8343 27.7237 48.4559 27.8288C48.0771 27.8997 47.7194 28.0556 47.4096 28.2848C47.0998 28.5139 46.8461 28.8104 46.6674 29.1518C46.3048 29.8721 46.2705 30.8521 46.5792 32.2192Z" fill="#263238"/>
<path d="M58.1091 31.5135C57.9351 30.8457 57.904 30.1487 58.018 29.4681C58.132 28.7875 58.3885 28.1387 58.7706 27.5641C59.199 26.9536 59.7438 26.4338 60.3736 26.0344C61.0034 25.635 61.7059 25.3638 62.4407 25.2366C64.3582 24.8021 65.9328 25.0292 67.1643 25.9177C68.2007 26.7211 68.9054 27.8778 69.1439 29.1673C69.3825 30.4568 69.1383 31.7889 68.4579 32.91C67.6935 34.0762 66.4489 34.8537 64.7241 35.2424C63.3953 35.6139 61.9775 35.4992 60.7257 34.919C60.0563 34.5918 59.4717 34.1141 59.0178 33.5233C58.5638 32.9325 58.2528 32.2446 58.1091 31.5135ZM61.789 30.6658C61.8881 31.3505 62.2225 31.9794 62.7347 32.4445C62.9378 32.5982 63.1718 32.7058 63.4206 32.7599C63.6695 32.814 63.9271 32.8133 64.1756 32.7578C64.4241 32.7023 64.6576 32.5934 64.8598 32.4386C65.062 32.2838 65.228 32.0868 65.3464 31.8614C65.603 31.2032 65.6272 30.4772 65.415 29.8034C65.3119 29.1347 64.9814 28.5221 64.4791 28.0688C64.2842 27.9108 64.0555 27.7998 63.8107 27.7446C63.566 27.6894 63.3118 27.6913 63.0679 27.7503C62.8137 27.803 62.5748 27.9129 62.3693 28.0716C62.1638 28.2304 61.9972 28.4339 61.8821 28.6666C61.6182 29.3016 61.5853 30.009 61.789 30.6658Z" fill="#263238"/>
<path d="M72.804 37.0113L69.8003 23.7813L73.2303 22.9973L73.5537 24.4134C73.7957 23.8487 74.1471 23.3374 74.5876 22.9091C75.071 22.4988 75.6484 22.2143 76.2683 22.081C76.8411 21.9252 77.444 21.9162 78.0213 22.055C78.5985 22.1937 79.1314 22.4757 79.5709 22.8748C80.5394 23.7801 81.1963 24.9688 81.4476 26.2705C81.8102 27.863 81.7024 29.1664 81.134 30.1905C80.8637 30.6802 80.49 31.1051 80.0391 31.436C79.5881 31.7668 79.0705 31.9956 78.5223 32.1064C77.9941 32.2317 77.4466 32.2533 76.9102 32.1701C76.3957 32.08 75.9053 31.8848 75.4696 31.5968L76.5084 36.1685L72.804 37.0113ZM74.5729 27.7699C74.6629 28.3819 74.9688 28.9415 75.4353 29.3477C75.6224 29.491 75.8395 29.5901 76.0703 29.6376C76.3011 29.6851 76.5396 29.6798 76.7681 29.6221C76.9803 29.5796 77.1795 29.4878 77.3497 29.3542C77.5199 29.2206 77.6564 29.0488 77.7481 28.8528C77.9564 28.2396 77.9564 27.5747 77.7481 26.9614C77.6585 26.3464 77.3632 25.7798 76.9102 25.3542C76.7422 25.2147 76.5443 25.1156 76.3319 25.0646C76.1195 25.0136 75.8983 25.0121 75.6852 25.0602C75.4601 25.1088 75.2488 25.2077 75.0672 25.3494C74.8857 25.4911 74.7385 25.672 74.6366 25.8785C74.3967 26.4825 74.3742 27.1511 74.5729 27.7699Z" fill="#263238"/>
<path d="M83.0207 28.059L86.5879 26.8879C86.7776 27.2327 87.073 27.5075 87.4307 27.6719C87.8155 27.7833 88.2229 27.7922 88.6122 27.6977C89.0016 27.6031 89.3595 27.4084 89.6504 27.1329C89.7317 27.0464 89.7907 26.9414 89.8223 26.827C89.8539 26.7126 89.8571 26.5922 89.8317 26.4763C89.8022 26.3436 89.7338 26.2228 89.6351 26.1294C89.5364 26.0359 89.412 25.9742 89.278 25.952C88.7243 25.8912 88.1657 25.8912 87.612 25.952C86.6827 26.031 85.7483 26.031 84.819 25.952C84.275 25.873 83.7649 25.6401 83.349 25.2807C82.9053 24.8966 82.5988 24.3785 82.4759 23.8047C82.353 23.2309 82.4204 22.6326 82.6679 22.1006C82.9536 21.5312 83.3977 21.0565 83.9468 20.7335C84.7284 20.2894 85.5776 19.9766 86.4605 19.8074C87.3032 19.5786 88.1747 19.473 89.0477 19.4938C89.5959 19.5291 90.1273 19.6972 90.5961 19.9838C91.0955 20.3207 91.5194 20.7579 91.8407 21.2676L88.4107 22.3995C88.2825 22.1442 88.0694 21.9415 87.808 21.8262C87.4506 21.6983 87.0629 21.6812 86.6957 21.7772C86.3711 21.8224 86.0702 21.9721 85.8382 22.2035C85.7645 22.2824 85.7112 22.3781 85.6831 22.4823C85.6549 22.5865 85.6526 22.696 85.6765 22.8013C85.703 22.9171 85.7641 23.0222 85.8515 23.1027C85.939 23.1832 86.0488 23.2353 86.1665 23.2521C86.7143 23.3156 87.2682 23.3041 87.8129 23.2178C88.7577 23.0808 89.7164 23.0677 90.6647 23.1786C91.2612 23.2628 91.82 23.5201 92.2719 23.9185C92.6805 24.289 92.9646 24.7768 93.0853 25.315C93.2108 25.8921 93.1648 26.4933 92.953 27.0447C92.6939 27.6974 92.2428 28.2561 91.6594 28.647C90.8 29.2088 89.8371 29.5936 88.8272 29.7789C87.0795 30.1774 85.7728 30.2117 84.9072 29.8818C84.0637 29.5449 83.3863 28.8904 83.0207 28.059Z" fill="#263238"/>
<path d="M94.9863 15.9413H99.0092V19.0283L98.2693 25.2366H95.7801L94.9863 19.0381V15.9413ZM95.1823 26.1725H98.9357V29.4947H95.1823V26.1725Z" fill="#263238"/>
<path d="M63.0529 58.0862H62.9647C60.7597 57.2287 59.4416 56.3957 58.7556 55.3912C58.2187 55.493 57.6631 55.4173 57.1729 55.1756C56.5987 54.8946 56.1224 54.4472 55.8058 53.8918C55.6395 54.0195 55.4435 54.1031 55.2362 54.1347C55.0289 54.1664 54.817 54.1452 54.62 54.0731C54.0162 53.8472 53.5008 53.4332 53.15 52.8922C52.9306 53.0557 52.6578 53.1309 52.3856 53.1029C50.9156 52.9853 48.9556 50.0845 48.8135 46.9975C48.8121 46.9324 48.8357 46.8691 48.8794 46.8208C48.9232 46.7725 48.9838 46.7428 49.0487 46.7378C49.0809 46.7365 49.113 46.7415 49.1433 46.7527C49.1735 46.7638 49.2012 46.7807 49.2249 46.8026C49.2486 46.8244 49.2677 46.8507 49.2812 46.88C49.2947 46.9092 49.3023 46.9408 49.3035 46.973C49.4407 49.913 51.3174 52.5247 52.4297 52.6129C52.5107 52.622 52.5926 52.615 52.6708 52.5923C52.749 52.5696 52.822 52.5316 52.8854 52.4806C52.5022 51.782 52.2616 51.0142 52.1774 50.2219C52.0933 49.4295 52.1674 48.6283 52.3954 47.8648C52.8168 46.3948 53.1892 45.8166 53.64 45.9048C54.4828 46.1155 54.3701 49.3348 53.9242 51.4369C53.8567 51.816 53.7169 52.1787 53.5126 52.5051C53.8015 52.9895 54.2376 53.3689 54.7572 53.588C54.8957 53.6407 55.0465 53.6526 55.1915 53.6222C55.3366 53.5918 55.4699 53.5204 55.5755 53.4165C55.1933 52.4708 55.0855 51.1772 55.6343 49.5308C56.3203 47.3601 56.6143 47.3013 56.7662 47.2621C56.8234 47.2501 56.8827 47.2538 56.9379 47.2728C56.9931 47.2917 57.0422 47.3253 57.0798 47.3699C57.5355 47.8844 56.9916 51.2556 56.4232 52.9216C56.3567 53.1221 56.2644 53.3132 56.1488 53.49C56.4117 54.02 56.84 54.45 57.3689 54.715C57.7159 54.8837 58.1016 54.9565 58.4861 54.9257C58.442 54.8326 58.4028 54.7395 58.3636 54.6415C57.9765 53.588 58.1676 52.3777 58.9467 50.9273C59.4612 49.9718 59.8826 49.521 60.2746 49.521C60.3787 49.5224 60.4802 49.5536 60.567 49.6109C60.6539 49.6682 60.7225 49.7493 60.7646 49.8444C61.1909 50.6333 60.8822 53.2352 60.0394 54.5288C59.8421 54.8254 59.5677 55.0625 59.2456 55.2148C59.9022 56.0772 61.1517 56.8367 63.1656 57.6109C63.1958 57.6218 63.2235 57.6386 63.2471 57.6604C63.2707 57.6822 63.2897 57.7085 63.3029 57.7377C63.3162 57.7669 63.3234 57.7985 63.3243 57.8306C63.3251 57.8627 63.3195 57.8946 63.3077 57.9245C63.2887 57.9756 63.2535 58.019 63.2075 58.0482C63.1615 58.0774 63.1072 58.0907 63.0529 58.0862ZM60.2697 50.0159C60.2697 50.0159 59.9904 50.0159 59.373 51.1674C58.6625 52.4806 58.4812 53.5635 58.8193 54.4749C58.8603 54.5878 58.9095 54.6975 58.9663 54.8032C59.2318 54.6935 59.4574 54.5055 59.6131 54.2642C60.2991 53.2156 60.6274 51.0596 60.3726 50.2168C60.3383 50.0453 60.2697 50.0159 60.2697 50.0159ZM56.7515 47.953C56.4863 48.5109 56.2667 49.0893 56.0949 49.6827C55.7191 50.7111 55.6544 51.8273 55.9087 52.8922L55.9528 52.7648C56.4674 51.2116 56.7417 49.589 56.7662 47.953H56.7515ZM53.5273 46.4095C53.444 46.483 53.2039 46.7917 52.8658 47.9873C52.466 49.3291 52.5921 50.7728 53.2186 52.0249C53.3192 51.8058 53.3932 51.5755 53.4391 51.3389C53.9634 48.933 53.8164 46.7574 53.542 46.4095H53.5273Z" fill="#263238"/>
<path d="M81.6831 83.7721C80.8998 83.7796 80.1285 83.5784 79.4487 83.189C79.3928 83.1553 79.3522 83.1011 79.3357 83.0379C79.3192 82.9747 79.3282 82.9076 79.3605 82.8509C79.3767 82.8233 79.3982 82.7991 79.4238 82.7799C79.4494 82.7608 79.4786 82.7469 79.5096 82.7391C79.5407 82.7313 79.5729 82.7299 79.6045 82.7348C79.6362 82.7397 79.6665 82.7508 79.6937 82.7676C81.443 83.7917 83.7019 83.0763 84.1674 82.3266C84.2011 82.2796 84.2249 82.2263 84.2375 82.1699C84.2502 82.1135 84.2513 82.0551 84.2409 81.9983C83.3464 82.0497 82.4607 81.7976 81.7272 81.2829C80.4777 80.5038 80.3797 80.2686 80.3895 80.0824C80.3919 80.0289 80.4087 79.977 80.438 79.9322C80.4673 79.8874 80.5081 79.8512 80.5561 79.8276C81.0461 79.5826 83.256 80.5969 84.1772 81.2045C84.2877 81.2778 84.3896 81.3633 84.481 81.4593C84.843 81.3772 85.1693 81.1815 85.412 80.9007C85.5487 80.7401 85.6475 80.5509 85.7011 80.347H85.6031C84.8191 80.4254 84.0351 80.0873 83.1972 79.3131C82.619 78.7839 82.3985 78.4164 82.472 78.1273C82.4943 78.0461 82.5393 77.9729 82.6019 77.9164C82.6644 77.86 82.7418 77.8226 82.8248 77.8088C83.501 77.6373 85.1768 78.3527 85.8579 79.1024C86.0098 79.2654 86.1178 79.4644 86.1715 79.6806C86.8134 79.3817 87.4896 78.7006 88.2883 77.5883C88.3069 77.5618 88.3305 77.5392 88.3579 77.5219C88.3852 77.5046 88.4157 77.4929 88.4476 77.4874C88.4795 77.4819 88.5121 77.4828 88.5437 77.4901C88.5752 77.4973 88.605 77.5107 88.6313 77.5295C88.6838 77.5678 88.7193 77.625 88.7303 77.6891C88.7412 77.7531 88.7268 77.8189 88.6901 77.8725C87.764 79.1661 86.9898 79.9011 86.2156 80.2C86.1755 80.5622 86.0269 80.9037 85.7893 81.18C85.507 81.5081 85.1362 81.7479 84.7211 81.8709C84.7445 81.9878 84.7443 82.1083 84.7208 82.2252C84.6972 82.3421 84.6507 82.4532 84.5839 82.552C84.1723 83.2527 82.9865 83.7721 81.6831 83.7721ZM81.247 80.3715C81.4136 80.494 81.6488 80.6557 81.9869 80.8615C82.5138 81.2169 83.1192 81.4389 83.7509 81.5083C82.9623 81.0354 82.1222 80.6539 81.247 80.3715ZM82.9571 78.289C83.0979 78.554 83.2933 78.7862 83.5304 78.9701C84.2556 79.6414 84.9171 79.9501 85.5541 79.8717H85.7109C85.6761 79.7195 85.6017 79.5792 85.4953 79.465C84.8093 78.6908 83.3001 78.2106 82.9571 78.289Z" fill="#263238"/>
<path d="M88.1704 83.1008L80.5362 84.4875L73.6027 46.6497L58.8733 49.3251L34.8633 91.9551L37.4407 106.023L68.2372 100.432L70.3442 111.937L85.0736 109.252L82.9666 97.7469L90.6008 96.3602L88.1704 83.1008ZM49.5339 90.1421L62.2739 67.8128L65.8264 87.1874L49.5339 90.1421Z" fill="#407BFF"/>
<path d="M149.661 44.082C149.429 41.7034 148.902 39.3629 148.093 37.1142C147.26 34.9602 146.103 32.946 144.663 31.1411C142.957 29.0413 140.839 27.3135 138.44 26.0647C135.826 24.6307 132.36 23.6327 128.042 23.0708C119.075 21.9014 112.088 23.4922 107.08 27.8434C102.072 32.1946 98.7726 40.5246 97.1817 52.8334C96.5465 57.4336 96.3823 62.0865 96.6917 66.72C97.0184 70.9667 97.7991 74.3853 99.0339 76.9757C100.605 80.4691 103.084 83.4775 106.212 85.6879C109.306 87.8603 113.553 89.2959 118.952 89.995C128.55 91.2461 135.666 89.4021 140.302 84.4629C144.937 79.5237 148.008 71.1774 149.514 59.4239C150.183 54.3347 150.233 49.1831 149.661 44.082Z" fill="#407BFF"/>
<path d="M123.367 84.9628C122.186 84.9236 120.917 84.8158 119.638 84.6492C115.15 84.0661 111.681 82.9293 109.319 81.2731C106.963 79.6099 105.101 77.3413 103.929 74.7071L103.904 74.6532C102.964 72.6932 102.346 69.8757 102.077 66.3232C101.791 62.0559 101.942 57.7707 102.527 53.5342C104.277 39.9514 107.888 34.2821 110.608 31.9203C113.783 29.1665 118.07 27.9219 123.705 28.1179C124.862 28.1571 126.087 28.26 127.346 28.4217C130.962 28.9117 133.829 29.6957 135.857 30.8031C137.61 31.7058 139.162 32.9543 140.419 34.4732C141.519 35.845 142.403 37.3768 143.041 39.0155C143.692 40.8427 144.113 42.7438 144.295 44.675C144.818 49.3544 144.77 54.0799 144.153 58.7478C142.796 69.3024 140.169 76.721 136.352 80.7978C133.52 83.8162 129.272 85.2078 123.362 84.9824L123.367 84.9628Z" fill="#263238"/>
<path d="M132.956 44.2242L133.02 42.3671L131.878 41.9947C131.83 41.3666 131.728 40.7437 131.575 40.1327L132.555 39.4173L131.898 37.6729L130.702 37.7709C130.421 37.2103 130.094 36.6743 129.722 36.1686L130.34 35.1347L129.066 33.7774L127.998 34.3262C127.52 33.9153 127.008 33.5449 126.469 33.2188L126.64 32.033L124.945 31.2637L124.171 32.1751C123.571 31.9808 122.957 31.8366 122.333 31.7439L122.044 30.5826L120.182 30.5189L119.815 31.6557C119.187 31.706 118.564 31.8076 117.953 31.9595L117.232 30.9795L115.488 31.6312L115.586 32.8268C115.025 33.1082 114.49 33.436 113.984 33.8068L112.955 33.1845L111.592 34.4536L112.141 35.5267C111.729 36.0044 111.36 36.5176 111.039 37.0604L109.853 36.8791L109.079 38.5745L109.995 39.3487C109.796 39.9486 109.652 40.5653 109.564 41.1911L108.398 41.4851L108.334 43.3373L109.476 43.7097C109.524 44.3395 109.625 44.9641 109.779 45.5766L108.799 46.2871L109.456 48.0315L110.652 47.9335C110.93 48.4957 111.258 49.032 111.632 49.5358L111.009 50.5697L112.283 51.927L113.352 51.3831C113.83 51.7925 114.341 52.1613 114.88 52.4856L114.704 53.6714L116.399 54.4407L117.178 53.5342C117.78 53.7274 118.396 53.87 119.021 53.9605L119.31 55.1267L121.167 55.1904L121.535 54.0487C122.164 54.0009 122.789 53.8992 123.401 53.7449L124.112 54.7249L125.856 54.0732L125.763 52.8825C126.322 52.5975 126.857 52.2699 127.366 51.9025L128.395 52.5199L129.757 51.2508L129.213 50.1777C129.623 49.7017 129.991 49.1901 130.31 48.6489L131.496 48.8253L132.27 47.1299L131.359 46.3557C131.554 45.7567 131.697 45.1419 131.785 44.5182L132.956 44.2242ZM120.412 50.2365C118.961 50.1835 117.558 49.7017 116.38 48.852C115.203 48.0023 114.303 46.8227 113.795 45.4621C113.287 44.1016 113.194 42.621 113.526 41.2074C113.859 39.7937 114.603 38.5103 115.665 37.5192C116.726 36.5281 118.058 35.8736 119.491 35.6384C120.924 35.4033 122.394 35.5979 123.717 36.1978C125.04 36.7977 126.155 37.776 126.922 39.0092C127.689 40.2423 128.074 41.6751 128.027 43.1266C127.996 44.0941 127.774 45.046 127.374 45.9276C126.975 46.8091 126.405 47.603 125.697 48.2636C124.989 48.9243 124.158 49.4386 123.252 49.7772C122.345 50.1158 121.38 50.2719 120.412 50.2365Z" fill="#407BFF"/>
<path opacity="0.3" d="M140.689 78.3183L140.826 77.0639L140.071 76.7601C140.07 76.3332 140.034 75.9072 139.963 75.4861L140.644 75.05L140.297 73.8397H139.483C139.322 73.4461 139.127 73.0673 138.9 72.7078L139.361 72.0414L138.577 71.0614L137.827 71.375C137.523 71.0745 137.195 70.7992 136.847 70.5518L137.028 69.758L135.926 69.1504L135.348 69.7335C134.954 69.5715 134.547 69.442 134.132 69.3464L133.995 68.5477L132.746 68.4056L132.437 69.1602C132.011 69.1622 131.587 69.2016 131.168 69.2778L130.732 68.582L129.521 68.9397V69.7531C129.128 69.9157 128.749 70.1125 128.39 70.3411L127.723 69.8511L126.743 70.6351L127.057 71.3848C126.758 71.6889 126.484 72.0166 126.238 72.3648L125.445 72.1884L124.842 73.2909L125.42 73.8642C125.256 74.2589 125.126 74.6672 125.033 75.0843L124.229 75.2166L124.097 76.4661L124.847 76.7797C124.847 77.2036 124.885 77.6267 124.96 78.0439L124.269 78.48L124.621 79.6903H125.44C125.603 80.0821 125.8 80.4591 126.028 80.8173L125.538 81.4837L126.322 82.4637L127.081 82.1452C127.383 82.4468 127.711 82.7206 128.061 82.9635L127.89 83.772L128.992 84.3747L129.566 83.8014C129.96 83.9597 130.366 84.0859 130.781 84.1787L130.923 84.9823L132.172 85.1195L132.476 84.3698C132.91 84.3692 133.342 84.3332 133.77 84.262L134.206 84.9529L135.411 84.6001V83.7867C135.805 83.6212 136.185 83.4246 136.548 83.1987L137.205 83.6887L138.185 82.8998L137.866 82.1501C138.168 81.8462 138.445 81.5185 138.694 81.1701L139.483 81.3465L140.091 80.244L139.513 79.6756C139.67 79.2811 139.796 78.8748 139.89 78.4604L140.689 78.3183ZM134.382 77.8283C134.175 78.2077 133.86 78.5171 133.477 78.7173C133.093 78.9175 132.659 78.9995 132.23 78.953C131.8 78.9065 131.393 78.7335 131.062 78.456C130.73 78.1785 130.489 77.8089 130.367 77.3939C130.246 76.979 130.25 76.5373 130.38 76.1249C130.509 75.7124 130.759 75.3477 131.095 75.0769C131.432 74.806 131.842 74.6412 132.273 74.6033C132.704 74.5654 133.136 74.656 133.515 74.8638C134.022 75.1431 134.398 75.6117 134.56 76.1672C134.723 76.7227 134.659 77.3199 134.382 77.8283Z" fill="#407BFF"/>
<path d="M147.632 57.1405L146.162 56.1311C146.017 55.6064 145.82 55.0975 145.574 54.6121L145.946 53.1421L143.829 50.8734L142.359 51.1478C141.893 50.8702 141.401 50.6388 140.889 50.4569L139.983 48.9281L136.881 48.8252L135.872 50.2952C135.346 50.4377 134.837 50.6347 134.353 50.8832L132.883 50.5059L130.614 52.6276L130.889 54.0976C130.607 54.5618 130.375 55.0546 130.198 55.5676L128.674 56.4741L128.566 59.5758L130.036 60.5852C130.178 61.1138 130.375 61.6262 130.624 62.114L130.252 63.584L132.368 65.8527L133.838 65.5832C134.305 65.8604 134.797 66.0918 135.308 66.2741L136.21 67.798L139.317 67.9058L140.321 66.4358C140.851 66.292 141.365 66.095 141.855 65.8478L143.325 66.2202L145.593 64.1034L145.324 62.6334C145.602 62.1675 145.834 61.6751 146.015 61.1634L147.539 60.2569L147.632 57.1405ZM137.964 61.8543C137.274 61.8306 136.607 61.603 136.047 61.2001C135.487 60.7973 135.059 60.2373 134.817 59.5911C134.575 58.9449 134.53 58.2414 134.687 57.5697C134.845 56.8979 135.199 56.288 135.703 55.8172C136.208 55.3463 136.84 55.0356 137.521 54.9244C138.202 54.8131 138.901 54.9064 139.529 55.1923C140.157 55.4781 140.686 55.9439 141.05 56.5305C141.413 57.1171 141.594 57.7984 141.571 58.488C141.537 59.4122 141.139 60.2855 140.463 60.9165C139.787 61.5475 138.888 61.8847 137.964 61.8543Z" fill="white"/>
<path d="M158.27 32.3808L158.525 31.7683C158.698 31.6707 158.862 31.5575 159.015 31.4302H159.583L160.249 30.4502L160.034 29.9259C160.116 29.7513 160.182 29.5692 160.23 29.382L160.72 28.9312L160.514 27.7797L159.897 27.5249C159.8 27.3512 159.687 27.1871 159.558 27.0349V26.4665L158.603 25.8001L158.074 26.0206C157.88 25.9525 157.68 25.9065 157.476 25.8834L157.025 25.3934L155.879 25.5992L155.619 26.2166C155.437 26.3109 155.265 26.4225 155.104 26.5498H154.541L153.874 27.5298L154.09 28.0541C154.024 28.2482 153.978 28.4485 153.953 28.6519L153.463 29.1076L153.669 30.2542L154.286 30.509C154.38 30.6837 154.491 30.8479 154.619 30.999V31.5625L155.599 32.2289L156.124 32.0133C156.32 32.077 156.522 32.1214 156.726 32.1456L157.177 32.6356L158.27 32.3808ZM155.82 29.2056C155.773 28.95 155.804 28.6863 155.908 28.448C156.011 28.2097 156.183 28.0075 156.402 27.8669C156.62 27.7264 156.875 27.6538 157.135 27.6584C157.395 27.6631 157.648 27.7446 157.861 27.8929C158.074 28.0411 158.239 28.2493 158.334 28.4911C158.429 28.7329 158.45 28.9975 158.395 29.2514C158.34 29.5052 158.21 29.737 158.023 29.9172C157.836 30.0975 157.599 30.2182 157.344 30.264C157.001 30.3241 156.649 30.2466 156.364 30.0484C156.079 29.8502 155.883 29.5473 155.82 29.2056Z" fill="#407BFF"/>
<path d="M144.849 29.1321L144.472 28.8136C145.28 27.8108 146.279 26.9781 147.412 26.3636L147.642 26.7948C146.565 27.3811 145.616 28.1756 144.849 29.1321Z" fill="#407BFF"/>
<path d="M148.759 26.3441L148.568 25.8933C150.377 25.107 152.356 24.7901 154.32 24.9721L154.271 25.4621C152.389 25.2846 150.492 25.5881 148.759 26.3441Z" fill="#407BFF"/>
<path d="M147.833 29.7348L147.431 29.4604C148.612 27.8663 150.33 26.7539 152.267 26.3293L152.361 26.8193C150.55 27.2148 148.942 28.2499 147.833 29.7348Z" fill="#407BFF"/>
<path d="M115.317 76.912C115.25 76.9101 115.186 76.8819 115.14 76.8336L114.116 75.7752C113.594 75.7279 113.077 75.6328 112.573 75.491L110.97 76.1966C110.935 76.2159 110.895 76.2261 110.855 76.2261C110.815 76.2261 110.775 76.2159 110.74 76.1966L108.055 74.4179C108.02 74.3951 107.992 74.3637 107.973 74.3268C107.954 74.2899 107.945 74.2487 107.947 74.2072V72.4628C107.619 72.0529 107.331 71.6133 107.085 71.1496L105.708 70.6204C105.669 70.6055 105.635 70.581 105.608 70.5493C105.582 70.5176 105.564 70.4797 105.556 70.4391L104.919 67.2835C104.91 67.2432 104.912 67.2015 104.924 67.1621C104.936 67.1227 104.958 67.0869 104.987 67.0581L106.046 66.034C106.096 65.5124 106.191 64.996 106.33 64.4905L105.624 62.8882C105.605 62.8529 105.595 62.8133 105.595 62.7731C105.595 62.7329 105.605 62.6933 105.624 62.6579L107.403 59.9727C107.425 59.9374 107.456 59.9087 107.494 59.8897C107.531 59.8707 107.572 59.8622 107.614 59.8649L109.358 59.8894C109.767 59.5601 110.207 59.2713 110.671 59.027L111.205 57.6501C111.22 57.6119 111.243 57.578 111.274 57.5514C111.305 57.5248 111.342 57.5065 111.382 57.4982L114.537 56.8612C114.578 56.8523 114.62 56.854 114.659 56.866C114.699 56.878 114.734 56.9 114.763 56.9298L115.787 57.9882C116.311 58.036 116.829 58.1311 117.335 58.2724L118.933 57.5668C118.969 57.5475 119.009 57.5374 119.05 57.5374C119.091 57.5374 119.132 57.5475 119.168 57.5668L121.848 59.3455C121.882 59.3694 121.91 59.4008 121.93 59.4374C121.949 59.474 121.96 59.5147 121.961 59.5562L121.932 61.3006C122.261 61.7105 122.551 62.1501 122.799 62.6138L124.171 63.1479C124.209 63.1621 124.243 63.1856 124.27 63.2165C124.296 63.2474 124.314 63.2845 124.323 63.3243L124.965 66.4799C124.972 66.5203 124.97 66.5618 124.958 66.601C124.946 66.6403 124.925 66.6761 124.896 66.7053L123.833 67.7343C123.784 68.2546 123.689 68.7695 123.549 69.2729L124.254 70.8752C124.273 70.9114 124.284 70.9518 124.284 70.9928C124.284 71.0339 124.273 71.0743 124.254 71.1104L122.5 73.7711C122.477 73.8044 122.446 73.8316 122.41 73.8504C122.375 73.8692 122.335 73.879 122.294 73.8789L120.545 73.8544C120.135 74.1794 119.697 74.4679 119.237 74.7168L118.702 76.0937C118.688 76.1326 118.664 76.1669 118.632 76.1936C118.6 76.2202 118.562 76.2381 118.521 76.2456L115.366 76.912H115.317ZM112.558 74.952C112.581 74.9476 112.604 74.9476 112.626 74.952C113.156 75.1062 113.699 75.2063 114.248 75.2509C114.307 75.2579 114.362 75.2837 114.405 75.3244L115.385 76.3534L118.276 75.7703L118.796 74.4277C118.82 74.3735 118.861 74.3287 118.913 74.3003C119.403 74.0472 119.864 73.7434 120.29 73.3938C120.335 73.3559 120.393 73.3366 120.452 73.3399L122.152 73.3644L123.779 70.9144L123.093 69.3562C123.073 69.3024 123.073 69.2435 123.093 69.1896C123.244 68.6599 123.345 68.1167 123.392 67.5677C123.397 67.5084 123.423 67.4528 123.465 67.4109L124.494 66.4309L123.911 63.5399L122.573 63.0205C122.516 62.9996 122.469 62.9576 122.441 62.9029C122.187 62.4142 121.883 61.9528 121.535 61.526C121.5 61.4812 121.481 61.4261 121.481 61.3692V59.664L119.031 58.0372L117.477 58.7232C117.422 58.7431 117.361 58.7431 117.306 58.7232C116.775 58.5699 116.23 58.4698 115.679 58.4243C115.62 58.4174 115.565 58.3916 115.522 58.3508L114.542 57.3218L111.651 57.9098L111.137 59.272C111.116 59.3282 111.076 59.3751 111.024 59.4043C110.533 59.6568 110.07 59.9607 109.642 60.3108C109.621 60.33 109.596 60.3446 109.569 60.3539C109.543 60.3631 109.514 60.3668 109.486 60.3647L107.785 60.3402L106.154 62.7902L106.84 64.3484C106.855 64.3814 106.863 64.4173 106.863 64.4538C106.863 64.4902 106.855 64.5262 106.84 64.5591C106.694 65.0764 106.599 65.6064 106.555 66.1418C106.551 66.2013 106.525 66.2571 106.482 66.2986L105.453 67.2786L106.041 70.1696L107.374 70.689C107.433 70.7137 107.482 70.7589 107.511 70.8164C107.764 71.302 108.066 71.7601 108.412 72.1835C108.449 72.2275 108.468 72.2833 108.466 72.3403V74.0455L110.916 75.6723L112.475 74.9863C112.5 74.9701 112.528 74.9584 112.558 74.952ZM114.964 73.3644C113.784 73.3634 112.627 73.0428 111.615 72.4367C110.604 71.8306 109.775 70.9616 109.218 69.9222C108.66 68.8828 108.395 67.7118 108.45 66.5337C108.505 65.3555 108.878 64.2143 109.53 63.2312C110.153 62.2882 111.01 61.523 112.018 61.0106C113.026 60.4982 114.149 60.2561 115.278 60.3079C116.408 60.3598 117.504 60.7039 118.461 61.3065C119.417 61.9091 120.201 62.7496 120.735 63.7459C121.269 64.7421 121.536 65.86 121.509 66.9901C121.481 68.1202 121.161 69.224 120.58 70.1933C119.998 71.1627 119.175 71.9645 118.19 72.5203C117.206 73.0762 116.094 73.367 114.964 73.3644ZM109.941 63.5007C109.282 64.4959 108.932 65.6642 108.936 66.8581C108.941 68.0519 109.299 69.2176 109.966 70.2079C110.633 71.1981 111.578 71.9684 112.683 72.4213C113.788 72.8742 115.002 72.9895 116.172 72.7524C117.342 72.5154 118.415 71.9367 119.257 71.0896C120.098 70.2425 120.669 69.165 120.898 67.9933C121.127 66.8216 121.003 65.6084 120.543 64.5069C120.082 63.4055 119.305 62.4653 118.31 61.8053C117.651 61.3638 116.91 61.0572 116.131 60.9034C115.352 60.7496 114.551 60.7515 113.773 60.9092C112.994 61.0668 112.255 61.377 111.598 61.8218C110.94 62.2666 110.377 62.8372 109.941 63.5007Z" fill="white"/>
<path d="M208.656 87.5205L200.963 86.4817L206.05 48.3548L191.212 46.3556L155.222 79.4894L153.331 93.6651L184.343 97.8497L182.794 109.448L197.631 111.447L199.18 99.8538L206.873 100.893L208.656 87.5205ZM169.741 82.2677L188.733 64.956L186.126 84.4776L169.741 82.2677Z" fill="#407BFF"/>
<path d="M193.123 111.085H193.06C192.996 111.073 192.94 111.036 192.903 110.983C192.866 110.93 192.852 110.864 192.864 110.801L204.33 48.1099C204.343 48.0469 204.38 47.9914 204.433 47.9549C204.485 47.9184 204.55 47.9037 204.614 47.9139C204.677 47.9258 204.734 47.9624 204.77 48.0156C204.807 48.0689 204.821 48.1345 204.81 48.1981L193.368 110.884C193.357 110.94 193.327 110.991 193.282 111.028C193.237 111.065 193.181 111.085 193.123 111.085Z" fill="#263238"/>
<path d="M203.267 49.1633C203.263 49.2699 203.217 49.3706 203.139 49.4432C203.061 49.5158 202.957 49.5543 202.85 49.5505C202.744 49.5466 202.643 49.5005 202.57 49.4224C202.498 49.3443 202.459 49.2405 202.463 49.1339C202.467 49.0274 202.513 48.9267 202.591 48.8541C202.669 48.7815 202.773 48.743 202.88 48.7469C202.986 48.7507 203.087 48.7968 203.159 48.8749C203.232 48.953 203.271 49.0568 203.267 49.1633Z" fill="#263238"/>
<path d="M201.635 57.6404C201.632 57.7198 201.605 57.7965 201.559 57.8609C201.512 57.9253 201.448 57.9744 201.373 58.0021C201.299 58.0297 201.218 58.0347 201.141 58.0164C201.063 57.998 200.993 57.9572 200.939 57.899C200.885 57.8408 200.849 57.7679 200.837 57.6894C200.824 57.611 200.835 57.5306 200.868 57.4583C200.901 57.3861 200.955 57.3252 201.022 57.2835C201.09 57.2418 201.168 57.221 201.248 57.2239C201.301 57.2258 201.352 57.2381 201.4 57.26C201.448 57.282 201.492 57.3132 201.528 57.3519C201.564 57.3906 201.592 57.436 201.61 57.4855C201.628 57.535 201.637 57.5876 201.635 57.6404Z" fill="#263238"/>
<path d="M200.003 66.132C200.001 66.1848 199.989 66.2367 199.967 66.2847C199.945 66.3327 199.914 66.3759 199.875 66.4119C199.836 66.4478 199.791 66.4758 199.742 66.4942C199.692 66.5126 199.639 66.521 199.587 66.5191C199.534 66.5178 199.482 66.5061 199.434 66.4847C199.386 66.4633 199.343 66.4325 199.307 66.3942C199.271 66.3559 199.243 66.3109 199.224 66.2616C199.206 66.2124 199.198 66.16 199.199 66.1075C199.201 66.0543 199.213 66.0019 199.234 65.9533C199.256 65.9047 199.287 65.8609 199.326 65.8244C199.365 65.788 199.41 65.7595 199.46 65.7408C199.51 65.7221 199.563 65.7135 199.616 65.7155C199.722 65.7206 199.822 65.767 199.894 65.8448C199.967 65.9227 200.006 66.0258 200.003 66.132Z" fill="#263238"/>
<path d="M196.789 74.9521C196.778 75.0504 196.731 75.1412 196.658 75.2071C196.584 75.2731 196.488 75.3096 196.39 75.3096C196.291 75.3096 196.195 75.2731 196.122 75.2071C196.048 75.1412 196.001 75.0504 195.99 74.9521C195.984 74.8959 195.99 74.8391 196.007 74.7853C196.024 74.7315 196.053 74.6819 196.09 74.6398C196.128 74.5977 196.174 74.564 196.226 74.541C196.277 74.5179 196.333 74.506 196.39 74.506C196.446 74.506 196.502 74.5179 196.554 74.541C196.605 74.564 196.651 74.5977 196.689 74.6398C196.727 74.6819 196.755 74.7315 196.772 74.7853C196.789 74.8391 196.795 74.8959 196.789 74.9521Z" fill="#263238"/>
<path d="M196.735 83.0714C196.734 83.1244 196.722 83.1766 196.7 83.2249C196.678 83.2732 196.647 83.3167 196.608 83.3528C196.57 83.3889 196.524 83.4168 196.474 83.435C196.424 83.4531 196.371 83.4611 196.318 83.4585C196.239 83.4555 196.162 83.4291 196.098 83.3825C196.034 83.336 195.984 83.2714 195.957 83.1969C195.929 83.1224 195.924 83.0414 195.943 82.9641C195.961 82.8868 196.002 82.8167 196.06 82.7626C196.118 82.7086 196.191 82.6729 196.269 82.6603C196.348 82.6476 196.428 82.6585 196.501 82.6915C196.573 82.7246 196.634 82.7783 196.675 82.8459C196.717 82.9135 196.738 82.992 196.735 83.0714Z" fill="#263238"/>
<path d="M195.103 91.5483C195.101 91.628 195.076 91.7052 195.03 91.7703C194.984 91.8353 194.919 91.8852 194.845 91.9136C194.771 91.9421 194.689 91.9477 194.612 91.9299C194.534 91.9121 194.463 91.8716 194.409 91.8135C194.354 91.7555 194.318 91.6826 194.305 91.604C194.292 91.5254 194.303 91.4447 194.336 91.3722C194.369 91.2996 194.422 91.2385 194.49 91.1966C194.558 91.1547 194.637 91.1338 194.716 91.1367C194.822 91.1406 194.922 91.1859 194.994 91.263C195.067 91.3401 195.106 91.4426 195.103 91.5483Z" fill="#263238"/>
<path d="M193.472 100.025C193.468 100.132 193.422 100.234 193.344 100.307C193.266 100.38 193.162 100.42 193.055 100.417C193.003 100.415 192.951 100.403 192.903 100.381C192.855 100.359 192.811 100.328 192.775 100.289C192.739 100.251 192.712 100.205 192.693 100.156C192.675 100.106 192.666 100.054 192.668 100.001C192.67 99.948 192.682 99.8961 192.704 99.848C192.725 99.7999 192.756 99.7565 192.795 99.7203C192.833 99.6841 192.878 99.6559 192.928 99.6372C192.977 99.6184 193.03 99.6097 193.082 99.6113C193.135 99.6129 193.187 99.6249 193.235 99.6465C193.283 99.6682 193.327 99.6992 193.363 99.7376C193.399 99.7761 193.427 99.8213 193.446 99.8706C193.465 99.92 193.473 99.9726 193.472 100.025Z" fill="#263238"/>
<path d="M191.835 108.507C191.832 108.587 191.806 108.663 191.759 108.728C191.713 108.792 191.648 108.841 191.574 108.869C191.499 108.897 191.418 108.902 191.341 108.883C191.263 108.865 191.193 108.824 191.139 108.766C191.085 108.708 191.05 108.635 191.037 108.556C191.024 108.478 191.035 108.397 191.068 108.325C191.101 108.253 191.155 108.192 191.223 108.15C191.29 108.109 191.369 108.088 191.448 108.091C191.501 108.092 191.553 108.104 191.601 108.126C191.65 108.147 191.693 108.178 191.729 108.217C191.765 108.256 191.793 108.302 191.812 108.352C191.83 108.401 191.838 108.454 191.835 108.507Z" fill="#263238"/>
<path d="M196.387 75.1725C196.332 75.1726 196.278 75.1536 196.235 75.1188C196.192 75.084 196.163 75.0355 196.152 74.9814C196.144 74.9499 196.144 74.9172 196.149 74.8853C196.154 74.8534 196.166 74.823 196.184 74.7956C196.201 74.7683 196.223 74.7446 196.25 74.7261C196.276 74.7075 196.306 74.6944 196.338 74.6874L197.553 74.4277C197.585 74.4206 197.618 74.4198 197.65 74.4256C197.682 74.4314 197.713 74.4435 197.74 74.4613C197.768 74.4791 197.791 74.5023 197.81 74.5293C197.828 74.5563 197.841 74.5868 197.847 74.6188C197.854 74.6504 197.854 74.6828 197.848 74.7144C197.841 74.746 197.829 74.7761 197.811 74.803C197.794 74.8298 197.771 74.8529 197.744 74.8709C197.717 74.8889 197.688 74.9015 197.656 74.9079L196.441 75.1676L196.387 75.1725Z" fill="#263238"/>
<path d="M200.449 70.6597C199.871 72.1589 199.38 73.6902 198.979 75.2461C198.611 76.9758 198.592 80.8468 198.592 80.8468" fill="#263238"/>
<path d="M198.592 81.0917C198.527 81.0893 198.466 81.062 198.42 81.0155C198.374 80.969 198.348 80.9069 198.347 80.8419C198.347 80.6851 198.377 76.9219 198.744 75.1971C199.143 73.6277 199.634 72.0831 200.214 70.5714C200.224 70.5392 200.24 70.5093 200.262 70.4837C200.284 70.458 200.311 70.4372 200.341 70.4224C200.372 70.4077 200.405 70.3993 200.438 70.3979C200.472 70.3965 200.505 70.4021 200.537 70.4142C200.568 70.4264 200.597 70.4449 200.621 70.4686C200.645 70.4924 200.664 70.5208 200.676 70.5521C200.689 70.5834 200.694 70.6169 200.693 70.6506C200.692 70.6843 200.684 70.7174 200.67 70.7478C200.092 72.2356 199.601 73.7555 199.2 75.3C198.842 76.9856 198.818 80.8075 198.813 80.8467C198.813 80.9077 198.791 80.9666 198.75 81.0119C198.709 81.0572 198.653 81.0857 198.592 81.0917Z" fill="#263238"/>
<path d="M109 123.384C109.682 112.408 108.432 92.4499 129.066 95.0959C151.18 97.9232 144.854 123.785 144.854 123.785L109 123.384Z" fill="#263238"/>
<path d="M123.24 116.788C128.214 116.788 132.246 112.756 132.246 107.782C132.246 102.808 128.214 98.7759 123.24 98.7759C118.266 98.7759 114.234 102.808 114.234 107.782C114.234 112.756 118.266 116.788 123.24 116.788Z" fill="white"/>
<path d="M124.426 98.7905C120.158 98.0653 115.606 101.206 115.15 104.391L132.06 105.949C131.462 102.318 127.807 99.3687 124.426 98.7905Z" fill="#263238"/>
<path d="M130.134 107.557C130.012 109.913 128.728 111.761 127.268 111.682C125.807 111.604 124.72 109.639 124.818 107.272C124.916 104.906 126.224 103.068 127.684 103.147C129.144 103.225 130.252 105.205 130.134 107.557Z" fill="#263238"/>
<path d="M123.24 117.278C121.362 117.278 119.526 116.721 117.964 115.678C116.402 114.634 115.185 113.151 114.467 111.416C113.748 109.681 113.56 107.771 113.926 105.929C114.293 104.087 115.197 102.395 116.525 101.067C117.853 99.7391 119.545 98.8347 121.387 98.4682C123.229 98.1018 125.139 98.2899 126.874 99.0086C128.609 99.7274 130.092 100.945 131.136 102.506C132.179 104.068 132.736 105.904 132.736 107.782C132.733 110.3 131.732 112.714 129.952 114.494C128.172 116.274 125.758 117.276 123.24 117.278ZM123.24 99.2707C121.555 99.2707 119.909 99.7703 118.508 100.706C117.107 101.642 116.016 102.973 115.371 104.529C114.727 106.085 114.559 107.798 114.888 109.45C115.217 111.102 116.028 112.62 117.22 113.81C118.411 115.001 119.929 115.812 121.581 116.14C123.234 116.468 124.946 116.299 126.502 115.653C128.058 115.008 129.388 113.916 130.323 112.515C131.258 111.114 131.757 109.467 131.756 107.782C131.753 105.525 130.855 103.36 129.259 101.765C127.662 100.169 125.497 99.272 123.24 99.2707Z" fill="#407BFF"/>
<path opacity="0.3" d="M142.34 123.109H142.281C142.25 123.102 142.22 123.089 142.194 123.07C142.167 123.052 142.145 123.028 142.128 123.001C142.111 122.973 142.1 122.943 142.095 122.911C142.09 122.879 142.092 122.846 142.1 122.815C142.1 122.751 143.678 116.107 142.056 109.389C142.04 109.324 142.051 109.256 142.086 109.199C142.121 109.142 142.177 109.101 142.242 109.085C142.307 109.07 142.375 109.081 142.432 109.116C142.489 109.15 142.53 109.207 142.546 109.272C144.197 116.132 142.605 122.864 142.59 122.928C142.575 122.982 142.543 123.03 142.497 123.063C142.452 123.096 142.396 123.112 142.34 123.109Z" fill="white"/>
<path opacity="0.3" d="M140.973 105.704C140.926 105.704 140.88 105.69 140.84 105.665C140.801 105.64 140.769 105.605 140.748 105.562C140.139 104.216 139.358 102.955 138.425 101.809C138.385 101.759 138.365 101.695 138.372 101.63C138.378 101.566 138.41 101.507 138.459 101.466C138.484 101.445 138.513 101.429 138.544 101.42C138.576 101.41 138.608 101.407 138.641 101.41C138.673 101.413 138.704 101.423 138.733 101.438C138.762 101.454 138.787 101.475 138.807 101.5C139.763 102.679 140.565 103.975 141.194 105.357C141.208 105.385 141.216 105.417 141.217 105.449C141.219 105.481 141.214 105.513 141.203 105.543C141.192 105.573 141.175 105.601 141.153 105.624C141.132 105.648 141.105 105.667 141.076 105.68C141.044 105.695 141.009 105.703 140.973 105.704Z" fill="white"/>
<path d="M63.0778 174.873H62.8965C62.2467 174.855 61.6308 174.579 61.1842 174.107C60.7376 173.634 60.4969 173.004 60.5151 172.354C60.5333 171.704 60.8089 171.088 61.2812 170.642C61.7535 170.195 62.3839 169.955 63.0337 169.973H63.0778C64.4939 169.973 67.8994 168.253 75.024 157.022C75.2131 156.724 75.4645 156.47 75.7609 156.278C76.0573 156.086 76.3917 155.96 76.7412 155.909C77.0908 155.859 77.4471 155.884 77.7859 155.984C78.1246 156.084 78.4378 156.256 78.7039 156.488C84.299 161.298 90.4012 165.484 96.9025 168.973C97.2034 169.11 97.4735 169.306 97.6965 169.55C97.9195 169.794 98.0908 170.081 98.2002 170.393C98.3096 170.705 98.3547 171.035 98.3329 171.365C98.311 171.695 98.2227 172.017 98.0731 172.312C97.9236 172.607 97.716 172.868 97.4627 173.08C97.2095 173.293 96.9159 173.452 96.5996 173.548C96.2833 173.644 95.9509 173.675 95.6223 173.639C95.2938 173.603 94.9759 173.501 94.6877 173.339C88.6454 170.128 82.9338 166.33 77.6357 162C71.6626 170.992 67.233 174.873 63.0778 174.873Z" fill="#263238"/>
<path d="M78.2383 156.047H78.0276C77.6425 155.991 77.2953 155.785 77.062 155.474C76.8287 155.162 76.7283 154.771 76.783 154.386C77.1309 151.936 76.6997 142.807 73.6078 135.702C73.4706 135.388 73.4475 135.036 73.5423 134.707C73.6371 134.378 73.844 134.092 74.1272 133.899C80.8402 129.327 95.1384 128.778 95.746 128.759C95.939 128.752 96.1314 128.784 96.3122 128.852C96.493 128.92 96.6587 129.023 96.7998 129.155C96.9408 129.287 97.0545 129.445 97.1343 129.621C97.2141 129.797 97.2585 129.987 97.265 130.18C97.2714 130.373 97.2397 130.565 97.1718 130.746C97.1039 130.927 97.001 131.093 96.8691 131.234C96.7371 131.375 96.5787 131.488 96.4028 131.568C96.2269 131.648 96.037 131.692 95.844 131.699C95.7117 131.699 83.2118 132.189 76.7928 135.717C79.527 142.792 80.1493 151.608 79.6936 154.797C79.6408 155.145 79.4648 155.463 79.1978 155.692C78.9307 155.922 78.5902 156.047 78.2383 156.047Z" fill="#263238"/>
<path d="M80.7078 154.146C79.7278 151.838 75.3178 152.098 72.7355 154.077C71.3537 155.131 69.4819 158.311 69.3055 159.467C69.2467 159.742 69.2555 160.027 69.3312 160.298C69.4068 160.568 69.5471 160.816 69.74 161.021C69.9328 161.225 70.1724 161.38 70.4381 161.471C70.7039 161.562 70.9878 161.588 71.2655 161.545C72.956 161.398 75.2737 158.943 75.2737 158.943C73.7302 160.457 75.7245 161.525 78.7037 159.335C80.3305 158.115 81.8005 156.728 80.7078 154.146Z" fill="#407BFF"/>
<path d="M164.988 124.03C164.965 124.035 164.942 124.035 164.919 124.03C164.888 124.022 164.859 124.007 164.833 123.987C164.808 123.967 164.787 123.942 164.771 123.914C164.756 123.886 164.746 123.854 164.743 123.822C164.74 123.79 164.743 123.757 164.753 123.727C165.404 121.453 166.115 120.066 167.051 119.317C166.904 118.79 166.932 118.229 167.129 117.719C167.358 117.124 167.761 116.611 168.286 116.249C168.143 116.095 168.042 115.907 167.991 115.703C167.94 115.499 167.942 115.286 167.997 115.083C168.174 114.469 168.541 113.927 169.045 113.535C168.863 113.331 168.764 113.067 168.766 112.795C168.766 111.325 171.466 109.11 174.528 108.688C174.593 108.679 174.659 108.696 174.712 108.736C174.764 108.775 174.798 108.834 174.808 108.899C174.817 108.964 174.8 109.03 174.76 109.082C174.721 109.135 174.662 109.169 174.597 109.178C171.686 109.575 169.246 111.682 169.256 112.795C169.255 112.96 169.318 113.12 169.432 113.241C170.091 112.794 170.833 112.482 171.614 112.325C172.394 112.168 173.199 112.167 173.979 112.324C175.484 112.613 176.096 112.932 176.028 113.388C175.89 114.245 172.691 114.426 170.545 114.172C170.16 114.137 169.786 114.028 169.442 113.853C168.98 114.182 168.636 114.651 168.462 115.191C168.42 115.334 168.42 115.485 168.463 115.628C168.506 115.771 168.589 115.898 168.702 115.994C169.614 115.504 170.892 115.328 172.583 115.7C174.803 116.19 174.886 116.46 174.94 116.622C174.957 116.679 174.958 116.739 174.944 116.797C174.929 116.855 174.899 116.908 174.857 116.95C174.391 117.44 170.986 117.21 169.275 116.788C169.069 116.741 168.87 116.667 168.683 116.568C168.176 116.875 167.787 117.342 167.575 117.896C167.434 118.253 167.395 118.644 167.462 119.023C167.55 118.97 167.64 118.923 167.732 118.88C168.746 118.39 169.971 118.479 171.485 119.125C172.465 119.552 172.955 119.934 173.004 120.321C173.006 120.42 172.982 120.518 172.932 120.605C172.883 120.691 172.812 120.762 172.725 120.811C171.975 121.301 169.359 121.232 167.997 120.507C167.683 120.337 167.422 120.085 167.242 119.777C166.443 120.512 165.796 121.82 165.208 123.874C165.191 123.918 165.16 123.957 165.121 123.984C165.082 124.012 165.036 124.028 164.988 124.03ZM167.644 119.459C167.78 119.712 167.988 119.92 168.242 120.056C169.349 120.644 171.525 120.777 172.338 120.448C172.505 120.38 172.529 120.326 172.529 120.326C172.529 120.326 172.505 120.052 171.304 119.537C169.932 118.949 168.854 118.866 167.957 119.282C167.849 119.334 167.744 119.393 167.644 119.459ZM169.28 116.239L169.403 116.274C170.999 116.641 172.641 116.765 174.273 116.641C173.694 116.426 173.097 116.262 172.49 116.151C171.434 115.865 170.318 115.896 169.28 116.239ZM169.898 113.486C170.124 113.567 170.359 113.619 170.598 113.642C173.048 113.931 175.2 113.593 175.498 113.285C175.415 113.211 175.087 113 173.872 112.77C172.504 112.497 171.084 112.753 169.898 113.486Z" fill="#263238"/>
<path d="M101.2 174.055C101.523 173.952 101.415 173.638 101.053 173.638H94.4181C81.7859 172.3 72.961 174.094 78.5225 174.515C84.084 174.937 78.1305 174.848 74.0684 176.387C70.0063 177.926 104.277 178.313 107.388 176.387C110.25 174.613 96.7211 175.49 101.2 174.055Z" fill="#263238"/>
<path d="M148.701 176.01L90.9786 174.094L88.5825 118.126L156.746 119.65L148.701 176.01Z" fill="#407BFF"/>
<path d="M109 174.936C108.939 174.937 108.879 174.914 108.834 174.872C108.788 174.83 108.76 174.773 108.755 174.711L104.13 118.498C104.126 118.434 104.147 118.37 104.189 118.32C104.231 118.271 104.291 118.24 104.355 118.234C104.42 118.231 104.483 118.252 104.532 118.294C104.581 118.336 104.613 118.395 104.62 118.459L109.27 174.672C109.273 174.704 109.269 174.736 109.259 174.767C109.249 174.798 109.233 174.826 109.212 174.851C109.191 174.876 109.166 174.896 109.137 174.911C109.108 174.925 109.077 174.934 109.045 174.936H109Z" fill="#263238"/>
<path d="M148.7 176.01L164.214 173.648L169.099 121.605L156.746 119.65L148.7 176.01Z" fill="#407BFF"/>
<path opacity="0.2" d="M148.7 176.01L164.214 173.648L169.099 121.605L156.746 119.65L148.7 176.01Z" fill="black"/>
<path d="M95.9074 163.309L94.4864 130.053C94.4514 129.231 94.5852 128.411 94.8797 127.643C95.1742 126.875 95.623 126.176 96.1985 125.589C96.774 125.001 97.4638 124.538 98.2253 124.228C98.9869 123.918 99.804 123.767 100.626 123.785L143.776 124.765C144.625 124.785 145.461 124.984 146.228 125.35C146.995 125.715 147.676 126.24 148.226 126.888C148.775 127.536 149.181 128.294 149.417 129.11C149.652 129.927 149.712 130.784 149.592 131.625L144.809 165.112C144.603 166.579 143.861 167.917 142.728 168.871C141.595 169.825 140.15 170.327 138.67 170.281L101.729 169.056C100.212 169.01 98.7694 168.391 97.6898 167.325C96.6102 166.259 95.9735 164.825 95.9074 163.309Z" fill="#263238"/>
<path d="M100.573 133.992L107.246 134.203L107.193 135.923L103.013 135.79L102.974 137.074L106.85 137.197L106.796 138.843L102.92 138.716L102.871 140.308L107.168 140.445L107.109 142.268L100.313 142.053L100.573 133.992Z" fill="white"/>
<path d="M108.486 142.312L108.741 134.252L112.896 134.384C113.492 134.381 114.085 134.467 114.655 134.639C115.059 134.774 115.405 135.044 115.635 135.403C115.805 135.665 115.92 135.959 115.972 136.267C116.023 136.575 116.011 136.89 115.936 137.193C115.86 137.496 115.723 137.78 115.533 138.028C115.343 138.275 115.104 138.481 114.831 138.632C114.553 138.776 114.254 138.875 113.944 138.926C114.172 139 114.388 139.105 114.586 139.24C114.729 139.373 114.857 139.521 114.969 139.681C115.095 139.834 115.206 139.998 115.302 140.171L116.434 142.548L113.621 142.454L112.367 139.951C112.267 139.711 112.12 139.495 111.935 139.314C111.76 139.186 111.55 139.115 111.333 139.108H111.112L111.009 142.376L108.486 142.312ZM111.142 137.599L112.19 137.633C112.413 137.619 112.634 137.588 112.852 137.54C113.016 137.515 113.164 137.429 113.268 137.3C113.374 137.169 113.434 137.007 113.44 136.839C113.449 136.727 113.433 136.614 113.393 136.509C113.353 136.404 113.291 136.309 113.209 136.231C112.936 136.055 112.613 135.971 112.288 135.991L111.191 135.957L111.142 137.599Z" fill="white"/>
<path d="M117.247 142.572L117.502 134.511L121.652 134.644C122.248 134.64 122.841 134.726 123.411 134.899C123.816 135.033 124.163 135.303 124.391 135.663C124.64 136.056 124.757 136.517 124.724 136.981C124.726 137.372 124.621 137.756 124.422 138.093C124.223 138.429 123.936 138.705 123.593 138.892C123.314 139.035 123.015 139.134 122.706 139.186C122.932 139.259 123.147 139.365 123.343 139.5C123.489 139.629 123.619 139.775 123.73 139.936C123.855 140.089 123.967 140.253 124.063 140.426L125.195 142.797L122.382 142.709L121.128 140.205C121.028 139.967 120.881 139.75 120.697 139.568C120.522 139.436 120.308 139.364 120.089 139.362H119.873L119.766 142.636L117.247 142.572ZM119.898 137.858L120.951 137.888C121.174 137.879 121.396 137.85 121.613 137.799C121.776 137.775 121.923 137.689 122.025 137.559C122.134 137.431 122.195 137.268 122.196 137.099C122.207 136.987 122.192 136.874 122.153 136.769C122.114 136.664 122.052 136.569 121.971 136.491C121.697 136.31 121.371 136.226 121.045 136.251L119.952 136.217L119.898 137.858Z" fill="white"/>
<path d="M125.597 138.828C125.559 138.266 125.646 137.702 125.852 137.177C126.058 136.653 126.378 136.18 126.788 135.793C127.199 135.407 127.69 135.116 128.226 134.942C128.762 134.768 129.33 134.714 129.889 134.786C130.454 134.767 131.016 134.862 131.543 135.065C132.07 135.268 132.551 135.575 132.957 135.967C133.319 136.384 133.593 136.871 133.761 137.397C133.93 137.924 133.99 138.479 133.937 139.029C133.941 139.83 133.753 140.62 133.388 141.332C133.058 141.915 132.564 142.389 131.967 142.695C131.264 143.031 130.486 143.179 129.708 143.126C128.933 143.132 128.166 142.965 127.464 142.636C126.866 142.311 126.378 141.817 126.062 141.215C125.692 140.477 125.531 139.651 125.597 138.828ZM128.086 138.917C128.013 139.534 128.153 140.158 128.483 140.686C128.638 140.858 128.825 140.998 129.035 141.096C129.244 141.194 129.472 141.25 129.703 141.258C129.934 141.267 130.165 141.229 130.382 141.147C130.598 141.064 130.795 140.939 130.962 140.779C131.326 140.229 131.498 139.574 131.452 138.917C131.518 138.326 131.374 137.731 131.046 137.236C130.897 137.065 130.714 136.928 130.507 136.834C130.301 136.74 130.077 136.691 129.85 136.692C129.621 136.676 129.392 136.711 129.179 136.796C128.966 136.881 128.775 137.013 128.62 137.182C128.249 137.682 128.061 138.294 128.086 138.917Z" fill="white"/>
<path d="M135.196 143.165L135.451 135.099L139.601 135.232C140.197 135.231 140.789 135.317 141.36 135.487C141.763 135.624 142.108 135.893 142.34 136.251C142.587 136.644 142.704 137.106 142.673 137.569C142.676 137.961 142.571 138.346 142.372 138.684C142.173 139.021 141.886 139.298 141.541 139.485C141.261 139.624 140.962 139.721 140.654 139.774C140.881 139.849 141.096 139.956 141.291 140.093C141.438 140.221 141.568 140.368 141.679 140.529C141.805 140.681 141.916 140.845 142.012 141.019L143.144 143.395L140.331 143.307L139.077 140.798C138.977 140.561 138.83 140.346 138.645 140.166C138.47 140.035 138.257 139.961 138.038 139.955H137.822L137.714 143.229L135.196 143.165ZM137.847 138.446L138.9 138.48C139.123 138.472 139.344 138.442 139.562 138.392C139.724 138.366 139.871 138.281 139.973 138.152C140.089 138.016 140.15 137.841 140.145 137.662C140.155 137.551 140.141 137.439 140.102 137.335C140.063 137.23 140 137.136 139.919 137.059C139.646 136.878 139.32 136.794 138.993 136.819L137.901 136.785L137.847 138.446Z" fill="white"/>
<path d="M139.16 156.86C139.068 156.862 138.977 156.844 138.893 156.808C138.808 156.772 138.732 156.718 138.67 156.65L134.476 152.058L129.948 156.194C129.823 156.309 129.657 156.369 129.487 156.362C129.317 156.355 129.157 156.28 129.042 156.155L124.847 151.563L120.32 155.699C120.194 155.814 120.028 155.874 119.858 155.867C119.688 155.86 119.528 155.785 119.413 155.66L115.214 151.069L110.691 155.204C110.625 155.264 110.548 155.31 110.464 155.338C110.379 155.367 110.29 155.378 110.201 155.371C110.031 155.361 109.871 155.285 109.755 155.16L105.561 150.574L101.038 154.704C100.912 154.82 100.745 154.88 100.575 154.873C100.404 154.865 100.243 154.791 100.127 154.665C100.07 154.603 100.025 154.53 99.9966 154.451C99.9679 154.371 99.9551 154.287 99.9592 154.203C99.9634 154.118 99.9842 154.036 100.021 153.959C100.057 153.883 100.108 153.815 100.171 153.759L105.169 149.187C105.295 149.072 105.462 149.011 105.633 149.019C105.804 149.026 105.965 149.101 106.08 149.226L110.275 153.817L114.798 149.682C114.926 149.569 115.092 149.51 115.263 149.515C115.434 149.524 115.594 149.6 115.709 149.726L119.903 154.317L124.431 150.182C124.493 150.124 124.565 150.08 124.645 150.05C124.724 150.021 124.808 150.008 124.892 150.012C124.977 150.015 125.06 150.036 125.136 150.072C125.212 150.107 125.281 150.158 125.337 150.221L129.532 154.812L134.059 150.677C134.185 150.562 134.351 150.501 134.521 150.509C134.691 150.516 134.851 150.59 134.966 150.716L139.65 155.802C139.734 155.896 139.789 156.011 139.808 156.136C139.827 156.26 139.809 156.387 139.757 156.501C139.705 156.615 139.621 156.712 139.515 156.779C139.409 156.846 139.286 156.882 139.16 156.88V156.86Z" fill="white"/>
<path d="M61.6175 177.2L58.5501 175.735L55.8159 162.422L57.3006 160.79L61.6175 177.2Z" fill="#407BFF"/>
<path d="M61.6177 177.2L65.6896 174.819L62.2008 163.853L57.3008 160.79L61.6177 177.2Z" fill="#407BFF"/>
<path opacity="0.2" d="M61.6177 177.2L65.6896 174.819L62.2008 163.853L57.3008 160.79L61.6177 177.2Z" fill="black"/>
<path d="M128.38 179.621H128.042C127.392 179.603 126.776 179.328 126.329 178.857C125.882 178.385 125.641 177.755 125.658 177.105C125.676 176.455 125.951 175.839 126.422 175.392C126.894 174.945 127.524 174.703 128.174 174.721C131.947 174.843 139.934 172.526 144.501 168.096C144.777 167.826 145.113 167.624 145.481 167.508C153.218 165.186 156.094 169.875 156.212 170.076L151.998 172.57C152.013 172.601 152.031 172.631 152.052 172.658C152.008 172.594 150.91 171.188 147.421 172.05C141.693 177.274 132.903 179.621 128.38 179.621Z" fill="#263238"/>
<path d="M128.081 182.874L119.158 182.316L118.458 165.862L130.448 166.308L128.081 182.874Z" fill="#407BFF"/>
<path d="M128.081 182.875L130.168 180.797L131.462 170.541L130.448 166.308L128.081 182.875Z" fill="#407BFF"/>
<path opacity="0.2" d="M128.081 182.875L130.168 180.797L131.462 170.541L130.448 166.308L128.081 182.875Z" fill="black"/>
<path d="M179.786 176.647C179.466 176.646 179.154 176.541 178.899 176.348C173.803 172.477 166.919 165.602 164.278 158.972C164.238 158.876 164.21 158.776 164.194 158.673C162.906 151.01 161.676 134.884 161.622 134.203C161.607 134.01 161.631 133.816 161.692 133.632C161.752 133.448 161.848 133.278 161.974 133.131C162.229 132.835 162.592 132.652 162.982 132.623C163.371 132.593 163.757 132.72 164.053 132.975C164.35 133.23 164.533 133.592 164.562 133.982C164.562 134.144 165.821 150.427 167.076 158.027C169.712 164.475 176.876 171.095 180.688 174.005C180.933 174.192 181.114 174.45 181.204 174.745C181.295 175.039 181.291 175.355 181.192 175.647C181.093 175.939 180.906 176.192 180.655 176.372C180.405 176.551 180.104 176.647 179.796 176.647H179.786Z" fill="#263238"/>
<path d="M186.582 177.386C185.445 177.386 184.157 176.872 182.75 175.858C182.435 175.629 182.223 175.284 182.161 174.899C182.099 174.514 182.193 174.12 182.422 173.805C182.651 173.489 182.996 173.277 183.381 173.215C183.766 173.154 184.159 173.248 184.475 173.476C185.69 174.353 186.352 174.456 186.582 174.456C186.972 174.456 187.346 174.611 187.622 174.887C187.897 175.163 188.052 175.536 188.052 175.926C188.052 176.316 187.897 176.69 187.622 176.966C187.346 177.241 186.972 177.396 186.582 177.396V177.386Z" fill="#263238"/>
<path d="M183.162 175.814C184.735 171.144 191.183 172.065 193.408 172.761C195.308 173.313 197.131 174.103 198.832 175.113C200.033 175.897 200.052 177.215 198.45 177.965C196.49 178.886 191.512 178.068 191.512 178.068C194.079 179.19 191.512 181.008 186.999 179.224C185.534 178.646 182.608 177.529 183.162 175.814Z" fill="#407BFF"/>
<path d="M167.512 136.202C166.929 140.171 163.641 143.096 160.965 142.704C158.29 142.312 158.182 138.784 158.765 134.796C159.348 130.807 160.407 127.936 163.082 128.328C165.757 128.72 168.095 132.248 167.512 136.202Z" fill="#263238"/>
<path d="M102.841 120.375C103.063 120.375 103.243 120.195 103.243 119.973C103.243 119.751 103.063 119.571 102.841 119.571C102.619 119.571 102.439 119.751 102.439 119.973C102.439 120.195 102.619 120.375 102.841 120.375Z" fill="#263238"/>
<path d="M106.923 122.864C106.923 122.944 106.9 123.021 106.856 123.087C106.811 123.154 106.749 123.205 106.675 123.235C106.602 123.266 106.521 123.274 106.443 123.258C106.365 123.243 106.294 123.205 106.237 123.148C106.181 123.092 106.143 123.021 106.127 122.943C106.112 122.865 106.12 122.784 106.15 122.71C106.181 122.637 106.232 122.574 106.298 122.53C106.364 122.486 106.442 122.462 106.521 122.462C106.628 122.462 106.73 122.505 106.806 122.58C106.881 122.655 106.923 122.758 106.923 122.864Z" fill="#263238"/>
<path d="M107.374 170.345C107.374 170.425 107.35 170.502 107.306 170.568C107.262 170.634 107.199 170.686 107.126 170.716C107.052 170.747 106.972 170.755 106.894 170.739C106.816 170.724 106.744 170.685 106.688 170.629C106.632 170.573 106.594 170.501 106.578 170.424C106.563 170.346 106.57 170.265 106.601 170.191C106.631 170.118 106.683 170.055 106.749 170.011C106.815 169.967 106.893 169.943 106.972 169.943C107.079 169.943 107.181 169.986 107.256 170.061C107.332 170.136 107.374 170.239 107.374 170.345Z" fill="#263238"/>
<path d="M111.054 173.241C111.054 173.321 111.03 173.398 110.986 173.464C110.942 173.53 110.879 173.582 110.806 173.612C110.732 173.643 110.651 173.651 110.573 173.635C110.495 173.62 110.424 173.581 110.368 173.525C110.311 173.469 110.273 173.397 110.258 173.32C110.242 173.242 110.25 173.161 110.281 173.087C110.311 173.014 110.362 172.951 110.429 172.907C110.495 172.863 110.572 172.839 110.652 172.839C110.758 172.839 110.861 172.882 110.936 172.957C111.011 173.032 111.054 173.135 111.054 173.241Z" fill="#263238"/>
<path d="M40.4297 178.058C39.7243 178.025 39.0353 177.834 38.4136 177.499C37.7919 177.164 37.2534 176.693 36.838 176.122C36.8176 176.096 36.8028 176.066 36.7945 176.034C36.7861 176.001 36.7844 175.968 36.7894 175.935C36.7945 175.902 36.8061 175.871 36.8237 175.843C36.8413 175.814 36.8645 175.79 36.8918 175.771C36.9191 175.752 36.95 175.739 36.9825 175.732C37.0151 175.725 37.0487 175.726 37.0812 175.732C37.1138 175.739 37.1446 175.752 37.1719 175.771C37.1992 175.79 37.2223 175.815 37.2398 175.843C38.1561 177.166 40.1798 177.867 41.0618 177.45C41.1501 177.413 41.2288 177.356 41.2921 177.284C40.8464 177.087 40.4559 176.785 40.1551 176.402C39.8543 176.019 39.6524 175.568 39.5673 175.088C39.4546 174.466 39.3664 173.618 39.876 173.511C40.5816 173.354 41.5028 175.054 41.836 176.343C41.8963 176.556 41.9179 176.778 41.8997 176.999C42.1823 177.084 42.4796 177.107 42.7719 177.068C42.9036 177.058 43.0318 177.02 43.1482 176.958C43.2646 176.895 43.3668 176.809 43.4481 176.705C43.1256 176.462 42.8581 176.153 42.6631 175.8C42.468 175.446 42.3498 175.055 42.3162 174.652C42.13 173.31 42.2721 173.079 42.4191 172.962C42.4667 172.925 42.5236 172.903 42.5833 172.897C42.643 172.891 42.7032 172.901 42.7572 172.927C43.2815 173.148 43.9136 175.049 44.0361 176.127C44.0508 176.239 44.0508 176.353 44.0361 176.465C44.2473 176.546 44.4713 176.59 44.6976 176.593C45.1131 176.609 45.524 176.501 45.8785 176.284C45.8099 176.24 45.7462 176.191 45.6825 176.142C45.1925 175.706 44.9671 175.01 45.0553 174.02C45.1239 173.251 45.2954 172.829 45.6041 172.697C45.7037 172.657 45.8127 172.647 45.918 172.668C46.0233 172.689 46.1202 172.74 46.197 172.815C46.5278 173.18 46.7749 173.613 46.9213 174.083C47.0677 174.554 47.1098 175.051 47.0447 175.539C47.0022 175.743 46.917 175.935 46.7948 176.103C47.6964 176.259 48.9606 176.005 50.0533 175.735C50.0855 175.727 50.1188 175.726 50.1515 175.731C50.1842 175.737 50.2155 175.748 50.2438 175.765C50.272 175.783 50.2965 175.805 50.3159 175.832C50.3354 175.859 50.3494 175.889 50.3571 175.921C50.3648 175.954 50.3661 175.987 50.3609 176.02C50.3558 176.052 50.3442 176.084 50.3269 176.112C50.3096 176.14 50.2869 176.165 50.2602 176.184C50.2334 176.203 50.2031 176.217 50.1709 176.225C48.843 176.553 47.4122 176.823 46.4028 176.529C45.9101 176.904 45.3067 177.104 44.6878 177.097C44.4131 177.094 44.1412 177.042 43.8842 176.945C43.7702 177.122 43.6173 177.27 43.4372 177.377C43.2571 177.485 43.0546 177.55 42.8454 177.568C42.4771 177.615 42.1029 177.583 41.7478 177.475C41.6335 177.667 41.4623 177.82 41.2578 177.911C40.995 178.017 40.7129 178.067 40.4297 178.058ZM40.0083 174.001C39.9405 174.334 39.954 174.678 40.0475 175.005C40.1166 175.397 40.2792 175.766 40.5214 176.082C40.7637 176.397 41.0785 176.65 41.4391 176.818C41.4322 176.702 41.4125 176.587 41.3803 176.475C40.9981 175.074 40.2631 174.108 40.0083 174.001ZM42.7376 173.574C42.7408 173.912 42.7686 174.25 42.8209 174.584C42.8749 175.181 43.1388 175.74 43.5657 176.161C43.4451 175.257 43.1647 174.381 42.7376 173.574ZM45.8197 173.148C45.8197 173.148 45.6335 173.241 45.5649 174.059C45.4963 174.878 45.6384 175.441 46.0206 175.769C46.111 175.843 46.2097 175.905 46.3146 175.956C46.4434 175.818 46.5346 175.649 46.5792 175.466C46.6665 174.694 46.4581 173.919 45.9961 173.295C45.8932 173.168 45.8344 173.148 45.8197 173.148Z" fill="#263238"/>
<path d="M112.146 181.762L113.474 179.459L112.146 177.156H110.725L111.529 179.459L110.725 181.762H112.146Z" fill="#263238"/>
<path d="M110.818 180.66C110.654 180.67 110.49 180.647 110.336 180.592C110.181 180.536 110.04 180.45 109.92 180.337C109.8 180.225 109.705 180.089 109.64 179.939C109.575 179.788 109.541 179.626 109.541 179.462C109.541 179.298 109.575 179.135 109.64 178.985C109.705 178.834 109.8 178.698 109.92 178.586C110.04 178.474 110.181 178.387 110.336 178.332C110.49 178.276 110.654 178.253 110.818 178.264L108.564 177.813L107.961 179.636L108.971 181.174L110.818 180.66Z" fill="#263238"/>
<path d="M111.014 177.156H108.354L107.026 179.459L108.354 181.762H111.014L112.342 179.459L111.014 177.156ZM109.687 180.66C109.449 180.661 109.216 180.591 109.018 180.46C108.82 180.328 108.666 180.141 108.574 179.922C108.482 179.703 108.458 179.461 108.504 179.228C108.549 178.995 108.663 178.78 108.831 178.612C108.999 178.444 109.213 178.329 109.446 178.282C109.679 178.235 109.92 178.259 110.14 178.35C110.36 178.44 110.547 178.594 110.68 178.792C110.812 178.989 110.882 179.221 110.882 179.459C110.882 179.777 110.756 180.081 110.532 180.306C110.308 180.531 110.004 180.658 109.687 180.66Z" fill="#407BFF"/>
<path d="M204.766 176.999L203.781 175.289L204.766 173.579H205.82L205.227 175.289L205.82 176.999H204.766Z" fill="#407BFF"/>
<path d="M205.751 176.181C205.873 176.19 205.996 176.174 206.112 176.133C206.228 176.093 206.334 176.029 206.424 175.945C206.514 175.862 206.585 175.761 206.634 175.648C206.684 175.536 206.709 175.414 206.709 175.292C206.709 175.169 206.684 175.048 206.634 174.935C206.585 174.823 206.514 174.722 206.424 174.638C206.334 174.555 206.228 174.491 206.112 174.45C205.996 174.41 205.873 174.393 205.751 174.402L207.427 174.069L207.873 175.422L207.128 176.563L205.751 176.181Z" fill="#407BFF"/>
<path d="M205.609 173.579H207.569L208.549 175.289L207.569 176.999H205.609L204.629 175.289L205.609 173.579ZM206.589 176.181C206.765 176.182 206.938 176.131 207.086 176.033C207.233 175.936 207.348 175.797 207.416 175.634C207.485 175.471 207.503 175.292 207.469 175.118C207.435 174.945 207.351 174.786 207.226 174.66C207.102 174.535 206.943 174.45 206.77 174.415C206.596 174.38 206.417 174.398 206.254 174.465C206.09 174.532 205.951 174.647 205.853 174.793C205.754 174.94 205.702 175.113 205.702 175.289C205.701 175.407 205.724 175.523 205.769 175.631C205.813 175.74 205.879 175.838 205.962 175.921C206.045 176.004 206.143 176.07 206.252 176.115C206.36 176.159 206.477 176.182 206.594 176.181H206.589Z" fill="#263238"/>
<path d="M168.07 179.273H170.285C170.562 179.272 170.828 179.161 171.023 178.964C171.219 178.768 171.329 178.502 171.329 178.224C171.329 177.947 171.219 177.681 171.023 177.485C170.828 177.288 170.562 177.177 170.285 177.176H168.07C167.792 177.176 167.525 177.286 167.329 177.483C167.132 177.68 167.021 177.946 167.021 178.224C167.021 178.502 167.132 178.769 167.329 178.966C167.525 179.162 167.792 179.273 168.07 179.273Z" fill="#263238"/>
<path d="M164.508 177.293C164.713 176.92 165.024 176.614 165.401 176.415C165.778 176.215 166.205 176.13 166.63 176.171C167.055 176.211 167.458 176.375 167.791 176.642C168.123 176.909 168.371 177.268 168.502 177.673C168.633 178.079 168.643 178.515 168.53 178.926C168.417 179.337 168.186 179.707 167.865 179.988C167.545 180.27 167.149 180.451 166.726 180.511C166.304 180.57 165.873 180.504 165.488 180.322C164.958 180.048 164.557 179.577 164.374 179.009C164.19 178.442 164.238 177.825 164.508 177.293Z" fill="#407BFF"/>
<path d="M165.105 180.321L165.712 180.607L167.823 176.131L167.216 175.845L165.105 180.321Z" fill="#263238"/>
</svg>
