<svg width="24" height="24" viewBox="0 0 24 24" fill="none" xmlns="http://www.w3.org/2000/svg">
<g clip-path="url(#clip0_476_184)">
<mask id="path-1-outside-1_476_184" maskUnits="userSpaceOnUse" x="-1" y="-0.99897" width="26" height="26" fill="black">
<rect fill="white" x="-1" y="-0.99897" width="26" height="26"/>
<path d="M23.6574 7.89838L12.4666 0.146381C12.3298 0.0517326 12.1674 0.00102997 12.001 0.00102997C11.8346 0.00102997 11.6722 0.0517326 11.5354 0.146381L8.0002 2.59438V2.39998C8.0002 2.08172 7.87377 1.7765 7.64873 1.55145C7.42369 1.32641 7.11846 1.19998 6.8002 1.19998H5.6002C5.28194 1.19998 4.97672 1.32641 4.75167 1.55145C4.52663 1.7765 4.4002 2.08172 4.4002 2.39998V5.08798L0.343001 7.89838C0.256853 7.95807 0.183327 8.03417 0.126634 8.12232C0.0699418 8.21047 0.0311968 8.30894 0.0126185 8.41209C-0.00595983 8.51523 -0.00400649 8.62103 0.0183666 8.72342C0.0407398 8.82581 0.0830931 8.92278 0.143001 9.00878L0.653401 9.74038C0.77869 9.91955 0.969785 10.0419 1.18495 10.0806C1.40012 10.1194 1.62188 10.0714 1.8018 9.94718L2.0018 9.80998V19.6C2.00244 20.1302 2.21335 20.6386 2.58829 21.0135C2.96322 21.3884 3.47156 21.5993 4.0018 21.6V22.4C4.0018 22.8243 4.17037 23.2313 4.47043 23.5314C4.77049 23.8314 5.17745 24 5.6018 24H18.4002C18.8245 24 19.2315 23.8314 19.5316 23.5314C19.8316 23.2313 20.0002 22.8243 20.0002 22.4V21.6C20.5304 21.5993 21.0388 21.3884 21.4137 21.0135C21.7887 20.6386 21.9996 20.1302 22.0002 19.6V9.80998L22.2002 9.94718C22.3802 10.0713 22.6019 10.1192 22.817 10.0804C23.0322 10.0417 23.2232 9.91946 23.3486 9.74038L23.859 9.00838C23.9189 8.92242 23.9612 8.82548 23.9836 8.72312C24.006 8.62076 24.0079 8.51499 23.9894 8.41188C23.9708 8.30876 23.932 8.21033 23.8753 8.12221C23.8187 8.0341 23.7451 7.95803 23.659 7.89838H23.6574ZM5.2002 2.39998C5.2002 2.29389 5.24234 2.19215 5.31736 2.11714C5.39237 2.04212 5.49411 1.99998 5.6002 1.99998H6.8002C6.90629 1.99998 7.00803 2.04212 7.08304 2.11714C7.15806 2.19215 7.2002 2.29389 7.2002 2.39998V3.14878L5.2002 4.53398V2.39998ZM19.2002 22.4C19.2002 22.6122 19.1159 22.8156 18.9659 22.9657C18.8159 23.1157 18.6124 23.2 18.4002 23.2H5.6002C5.38803 23.2 5.18455 23.1157 5.03452 22.9657C4.88449 22.8156 4.8002 22.6122 4.8002 22.4V16.8C4.8002 16.5878 4.88449 16.3843 5.03452 16.2343C5.18455 16.0843 5.38803 16 5.6002 16H18.4002C18.6124 16 18.8159 16.0843 18.9659 16.2343C19.1159 16.3843 19.2002 16.5878 19.2002 16.8V22.4ZM12.0002 13.6C11.842 13.6 11.6873 13.5531 11.5557 13.4652C11.4242 13.3773 11.3216 13.2523 11.2611 13.1061C11.2005 12.9599 11.1847 12.7991 11.2156 12.6439C11.2464 12.4887 11.3226 12.3462 11.4345 12.2343C11.5464 12.1224 11.6889 12.0462 11.8441 12.0154C11.9993 11.9845 12.1602 12.0003 12.3063 12.0609C12.4525 12.1214 12.5775 12.224 12.6654 12.3555C12.7533 12.4871 12.8002 12.6418 12.8002 12.8C12.8002 13.0122 12.7159 13.2156 12.5659 13.3657C12.4159 13.5157 12.2124 13.6 12.0002 13.6ZM10.969 14.0132C11.2547 14.2626 11.621 14.4 12.0002 14.4C12.3794 14.4 12.7457 14.2626 13.0314 14.0132L15.2222 15.2H8.7782L10.969 14.0132ZM21.2002 19.6C21.2002 19.9182 21.0738 20.2235 20.8487 20.4485C20.6237 20.6736 20.3185 20.8 20.0002 20.8V16.8C20.0002 16.3756 19.8316 15.9687 19.5316 15.6686C19.2315 15.3686 18.8245 15.2 18.4002 15.2H16.9014L13.4954 13.3548C13.5877 13.1125 13.6197 12.8515 13.5887 12.5941C13.5578 12.3367 13.4647 12.0907 13.3176 11.8773C13.1705 11.6638 12.9738 11.4893 12.7443 11.3688C12.5148 11.2482 12.2594 11.1852 12.0002 11.1852C11.741 11.1852 11.4856 11.2482 11.2561 11.3688C11.0266 11.4893 10.8299 11.6638 10.6828 11.8773C10.5357 12.0907 10.4426 12.3367 10.4117 12.5941C10.3807 12.8515 10.4127 13.1125 10.505 13.3548L7.099 15.2H5.6002C5.17585 15.2 4.76889 15.3686 4.46883 15.6686C4.16877 15.9687 4.0002 16.3756 4.0002 16.8V20.8C3.68194 20.8 3.37672 20.6736 3.15167 20.4485C2.92663 20.2235 2.8002 19.9182 2.8002 19.6V9.25718L12.0098 2.89358L21.2002 9.25598V19.6ZM22.6542 9.28958L12.4666 2.23638C12.3298 2.14173 12.1674 2.09103 12.001 2.09103C11.8346 2.09103 11.6722 2.14173 11.5354 2.23638L1.3462 9.28958C1.34338 9.29163 1.34018 9.2931 1.33679 9.29388C1.3334 9.29467 1.32988 9.29477 1.32645 9.29418C1.32301 9.29358 1.31973 9.2923 1.31681 9.29041C1.31388 9.28852 1.31136 9.28606 1.3094 9.28318L0.800201 8.55638L12.0098 0.803581L23.2002 8.55118L22.6542 9.28958Z"/>
</mask>
<path d="M23.6574 7.89838L12.4666 0.146381C12.3298 0.0517326 12.1674 0.00102997 12.001 0.00102997C11.8346 0.00102997 11.6722 0.0517326 11.5354 0.146381L8.0002 2.59438V2.39998C8.0002 2.08172 7.87377 1.7765 7.64873 1.55145C7.42369 1.32641 7.11846 1.19998 6.8002 1.19998H5.6002C5.28194 1.19998 4.97672 1.32641 4.75167 1.55145C4.52663 1.7765 4.4002 2.08172 4.4002 2.39998V5.08798L0.343001 7.89838C0.256853 7.95807 0.183327 8.03417 0.126634 8.12232C0.0699418 8.21047 0.0311968 8.30894 0.0126185 8.41209C-0.00595983 8.51523 -0.00400649 8.62103 0.0183666 8.72342C0.0407398 8.82581 0.0830931 8.92278 0.143001 9.00878L0.653401 9.74038C0.77869 9.91955 0.969785 10.0419 1.18495 10.0806C1.40012 10.1194 1.62188 10.0714 1.8018 9.94718L2.0018 9.80998V19.6C2.00244 20.1302 2.21335 20.6386 2.58829 21.0135C2.96322 21.3884 3.47156 21.5993 4.0018 21.6V22.4C4.0018 22.8243 4.17037 23.2313 4.47043 23.5314C4.77049 23.8314 5.17745 24 5.6018 24H18.4002C18.8245 24 19.2315 23.8314 19.5316 23.5314C19.8316 23.2313 20.0002 22.8243 20.0002 22.4V21.6C20.5304 21.5993 21.0388 21.3884 21.4137 21.0135C21.7887 20.6386 21.9996 20.1302 22.0002 19.6V9.80998L22.2002 9.94718C22.3802 10.0713 22.6019 10.1192 22.817 10.0804C23.0322 10.0417 23.2232 9.91946 23.3486 9.74038L23.859 9.00838C23.9189 8.92242 23.9612 8.82548 23.9836 8.72312C24.006 8.62076 24.0079 8.51499 23.9894 8.41188C23.9708 8.30876 23.932 8.21033 23.8753 8.12221C23.8187 8.0341 23.7451 7.95803 23.659 7.89838H23.6574ZM5.2002 2.39998C5.2002 2.29389 5.24234 2.19215 5.31736 2.11714C5.39237 2.04212 5.49411 1.99998 5.6002 1.99998H6.8002C6.90629 1.99998 7.00803 2.04212 7.08304 2.11714C7.15806 2.19215 7.2002 2.29389 7.2002 2.39998V3.14878L5.2002 4.53398V2.39998ZM19.2002 22.4C19.2002 22.6122 19.1159 22.8156 18.9659 22.9657C18.8159 23.1157 18.6124 23.2 18.4002 23.2H5.6002C5.38803 23.2 5.18455 23.1157 5.03452 22.9657C4.88449 22.8156 4.8002 22.6122 4.8002 22.4V16.8C4.8002 16.5878 4.88449 16.3843 5.03452 16.2343C5.18455 16.0843 5.38803 16 5.6002 16H18.4002C18.6124 16 18.8159 16.0843 18.9659 16.2343C19.1159 16.3843 19.2002 16.5878 19.2002 16.8V22.4ZM12.0002 13.6C11.842 13.6 11.6873 13.5531 11.5557 13.4652C11.4242 13.3773 11.3216 13.2523 11.2611 13.1061C11.2005 12.9599 11.1847 12.7991 11.2156 12.6439C11.2464 12.4887 11.3226 12.3462 11.4345 12.2343C11.5464 12.1224 11.6889 12.0462 11.8441 12.0154C11.9993 11.9845 12.1602 12.0003 12.3063 12.0609C12.4525 12.1214 12.5775 12.224 12.6654 12.3555C12.7533 12.4871 12.8002 12.6418 12.8002 12.8C12.8002 13.0122 12.7159 13.2156 12.5659 13.3657C12.4159 13.5157 12.2124 13.6 12.0002 13.6ZM10.969 14.0132C11.2547 14.2626 11.621 14.4 12.0002 14.4C12.3794 14.4 12.7457 14.2626 13.0314 14.0132L15.2222 15.2H8.7782L10.969 14.0132ZM21.2002 19.6C21.2002 19.9182 21.0738 20.2235 20.8487 20.4485C20.6237 20.6736 20.3185 20.8 20.0002 20.8V16.8C20.0002 16.3756 19.8316 15.9687 19.5316 15.6686C19.2315 15.3686 18.8245 15.2 18.4002 15.2H16.9014L13.4954 13.3548C13.5877 13.1125 13.6197 12.8515 13.5887 12.5941C13.5578 12.3367 13.4647 12.0907 13.3176 11.8773C13.1705 11.6638 12.9738 11.4893 12.7443 11.3688C12.5148 11.2482 12.2594 11.1852 12.0002 11.1852C11.741 11.1852 11.4856 11.2482 11.2561 11.3688C11.0266 11.4893 10.8299 11.6638 10.6828 11.8773C10.5357 12.0907 10.4426 12.3367 10.4117 12.5941C10.3807 12.8515 10.4127 13.1125 10.505 13.3548L7.099 15.2H5.6002C5.17585 15.2 4.76889 15.3686 4.46883 15.6686C4.16877 15.9687 4.0002 16.3756 4.0002 16.8V20.8C3.68194 20.8 3.37672 20.6736 3.15167 20.4485C2.92663 20.2235 2.8002 19.9182 2.8002 19.6V9.25718L12.0098 2.89358L21.2002 9.25598V19.6ZM22.6542 9.28958L12.4666 2.23638C12.3298 2.14173 12.1674 2.09103 12.001 2.09103C11.8346 2.09103 11.6722 2.14173 11.5354 2.23638L1.3462 9.28958C1.34338 9.29163 1.34018 9.2931 1.33679 9.29388C1.3334 9.29467 1.32988 9.29477 1.32645 9.29418C1.32301 9.29358 1.31973 9.2923 1.31681 9.29041C1.31388 9.28852 1.31136 9.28606 1.3094 9.28318L0.800201 8.55638L12.0098 0.803581L23.2002 8.55118L22.6542 9.28958Z" fill="#0060D3"/>
<path d="M23.6574 7.89838L12.4666 0.146381C12.3298 0.0517326 12.1674 0.00102997 12.001 0.00102997C11.8346 0.00102997 11.6722 0.0517326 11.5354 0.146381L8.0002 2.59438V2.39998C8.0002 2.08172 7.87377 1.7765 7.64873 1.55145C7.42369 1.32641 7.11846 1.19998 6.8002 1.19998H5.6002C5.28194 1.19998 4.97672 1.32641 4.75167 1.55145C4.52663 1.7765 4.4002 2.08172 4.4002 2.39998V5.08798L0.343001 7.89838C0.256853 7.95807 0.183327 8.03417 0.126634 8.12232C0.0699418 8.21047 0.0311968 8.30894 0.0126185 8.41209C-0.00595983 8.51523 -0.00400649 8.62103 0.0183666 8.72342C0.0407398 8.82581 0.0830931 8.92278 0.143001 9.00878L0.653401 9.74038C0.77869 9.91955 0.969785 10.0419 1.18495 10.0806C1.40012 10.1194 1.62188 10.0714 1.8018 9.94718L2.0018 9.80998V19.6C2.00244 20.1302 2.21335 20.6386 2.58829 21.0135C2.96322 21.3884 3.47156 21.5993 4.0018 21.6V22.4C4.0018 22.8243 4.17037 23.2313 4.47043 23.5314C4.77049 23.8314 5.17745 24 5.6018 24H18.4002C18.8245 24 19.2315 23.8314 19.5316 23.5314C19.8316 23.2313 20.0002 22.8243 20.0002 22.4V21.6C20.5304 21.5993 21.0388 21.3884 21.4137 21.0135C21.7887 20.6386 21.9996 20.1302 22.0002 19.6V9.80998L22.2002 9.94718C22.3802 10.0713 22.6019 10.1192 22.817 10.0804C23.0322 10.0417 23.2232 9.91946 23.3486 9.74038L23.859 9.00838C23.9189 8.92242 23.9612 8.82548 23.9836 8.72312C24.006 8.62076 24.0079 8.51499 23.9894 8.41188C23.9708 8.30876 23.932 8.21033 23.8753 8.12221C23.8187 8.0341 23.7451 7.95803 23.659 7.89838H23.6574ZM5.2002 2.39998C5.2002 2.29389 5.24234 2.19215 5.31736 2.11714C5.39237 2.04212 5.49411 1.99998 5.6002 1.99998H6.8002C6.90629 1.99998 7.00803 2.04212 7.08304 2.11714C7.15806 2.19215 7.2002 2.29389 7.2002 2.39998V3.14878L5.2002 4.53398V2.39998ZM19.2002 22.4C19.2002 22.6122 19.1159 22.8156 18.9659 22.9657C18.8159 23.1157 18.6124 23.2 18.4002 23.2H5.6002C5.38803 23.2 5.18455 23.1157 5.03452 22.9657C4.88449 22.8156 4.8002 22.6122 4.8002 22.4V16.8C4.8002 16.5878 4.88449 16.3843 5.03452 16.2343C5.18455 16.0843 5.38803 16 5.6002 16H18.4002C18.6124 16 18.8159 16.0843 18.9659 16.2343C19.1159 16.3843 19.2002 16.5878 19.2002 16.8V22.4ZM12.0002 13.6C11.842 13.6 11.6873 13.5531 11.5557 13.4652C11.4242 13.3773 11.3216 13.2523 11.2611 13.1061C11.2005 12.9599 11.1847 12.7991 11.2156 12.6439C11.2464 12.4887 11.3226 12.3462 11.4345 12.2343C11.5464 12.1224 11.6889 12.0462 11.8441 12.0154C11.9993 11.9845 12.1602 12.0003 12.3063 12.0609C12.4525 12.1214 12.5775 12.224 12.6654 12.3555C12.7533 12.4871 12.8002 12.6418 12.8002 12.8C12.8002 13.0122 12.7159 13.2156 12.5659 13.3657C12.4159 13.5157 12.2124 13.6 12.0002 13.6ZM10.969 14.0132C11.2547 14.2626 11.621 14.4 12.0002 14.4C12.3794 14.4 12.7457 14.2626 13.0314 14.0132L15.2222 15.2H8.7782L10.969 14.0132ZM21.2002 19.6C21.2002 19.9182 21.0738 20.2235 20.8487 20.4485C20.6237 20.6736 20.3185 20.8 20.0002 20.8V16.8C20.0002 16.3756 19.8316 15.9687 19.5316 15.6686C19.2315 15.3686 18.8245 15.2 18.4002 15.2H16.9014L13.4954 13.3548C13.5877 13.1125 13.6197 12.8515 13.5887 12.5941C13.5578 12.3367 13.4647 12.0907 13.3176 11.8773C13.1705 11.6638 12.9738 11.4893 12.7443 11.3688C12.5148 11.2482 12.2594 11.1852 12.0002 11.1852C11.741 11.1852 11.4856 11.2482 11.2561 11.3688C11.0266 11.4893 10.8299 11.6638 10.6828 11.8773C10.5357 12.0907 10.4426 12.3367 10.4117 12.5941C10.3807 12.8515 10.4127 13.1125 10.505 13.3548L7.099 15.2H5.6002C5.17585 15.2 4.76889 15.3686 4.46883 15.6686C4.16877 15.9687 4.0002 16.3756 4.0002 16.8V20.8C3.68194 20.8 3.37672 20.6736 3.15167 20.4485C2.92663 20.2235 2.8002 19.9182 2.8002 19.6V9.25718L12.0098 2.89358L21.2002 9.25598V19.6ZM22.6542 9.28958L12.4666 2.23638C12.3298 2.14173 12.1674 2.09103 12.001 2.09103C11.8346 2.09103 11.6722 2.14173 11.5354 2.23638L1.3462 9.28958C1.34338 9.29163 1.34018 9.2931 1.33679 9.29388C1.3334 9.29467 1.32988 9.29477 1.32645 9.29418C1.32301 9.29358 1.31973 9.2923 1.31681 9.29041C1.31388 9.28852 1.31136 9.28606 1.3094 9.28318L0.800201 8.55638L12.0098 0.803581L23.2002 8.55118L22.6542 9.28958Z" stroke="#0060D3" stroke-width="0.4" mask="url(#path-1-outside-1_476_184)"/>
<path d="M6.9 20.1V21.2C6.9 21.3326 6.84732 21.4598 6.75355 21.5536C6.65979 21.6473 6.53261 21.7 6.4 21.7C6.26739 21.7 6.14022 21.6473 6.04645 21.5536C5.95268 21.4598 5.9 21.3326 5.9 21.2V18C5.9 17.8674 5.95268 17.7402 6.04645 17.6464C6.14021 17.5527 6.26739 17.5 6.4 17.5H7.19978H7.2V17.6L6.9 20.1ZM6.9 20.1H7.2C7.27957 20.1 7.35587 20.1316 7.41213 20.1879C7.46839 20.2441 7.5 20.3204 7.5 20.4V21.2C7.5 21.3326 7.55268 21.4598 7.64645 21.5536C7.74021 21.6473 7.86739 21.7 8 21.7C8.13261 21.7 8.25979 21.6473 8.35355 21.5536C8.44732 21.4598 8.5 21.3326 8.5 21.2L8.5 20.4L8.5 20.3997C8.49897 20.1083 8.39955 19.8267 8.21929 19.6L6.9 20.1ZM6.9 19.1V18.5H7.2C7.27957 18.5 7.35587 18.5316 7.41213 18.5879C7.46839 18.6441 7.5 18.7204 7.5 18.8C7.5 18.8796 7.46839 18.9559 7.41213 19.0121C7.35587 19.0684 7.27957 19.1 7.2 19.1H6.9Z" fill="#0060D3" stroke="#0060D3" stroke-width="0.2"/>
<path d="M17.6001 17.5H16.0001C15.8675 17.5 15.7403 17.5527 15.6465 17.6464C15.5528 17.7402 15.5001 17.8674 15.5001 18C15.5001 18.1326 15.5528 18.2598 15.6465 18.3536C15.7403 18.4473 15.8675 18.5 16.0001 18.5H16.3001V21.2C16.3001 21.3326 16.3528 21.4598 16.4465 21.5536C16.5403 21.6473 16.6675 21.7 16.8001 21.7C16.9327 21.7 17.0599 21.6473 17.1537 21.5536C17.2474 21.4598 17.3001 21.3326 17.3001 21.2V18.5H17.6001C17.7327 18.5 17.8599 18.4473 17.9537 18.3536C18.0474 18.2598 18.1001 18.1326 18.1001 18C18.1001 17.8674 18.0474 17.7402 17.9537 17.6464C17.8599 17.5527 17.7327 17.5 17.6001 17.5Z" fill="#0060D3" stroke="#0060D3" stroke-width="0.2"/>
<path d="M11.2002 18.5C11.3328 18.5 11.46 18.4473 11.5537 18.3536C11.6475 18.2598 11.7002 18.1326 11.7002 18C11.7002 17.8674 11.6475 17.7402 11.5537 17.6464C11.46 17.5527 11.3328 17.5 11.2002 17.5H9.6002C9.46759 17.5 9.34041 17.5527 9.24664 17.6464C9.15287 17.7402 9.1002 17.8674 9.1002 18V21.2C9.1002 21.3326 9.15287 21.4598 9.24664 21.5536C9.34041 21.6473 9.46759 21.7 9.6002 21.7H11.2002C11.3328 21.7 11.46 21.6473 11.5537 21.5536C11.6475 21.4598 11.7002 21.3326 11.7002 21.2C11.7002 21.0674 11.6475 20.9402 11.5537 20.8464C11.46 20.7527 11.3328 20.7 11.2002 20.7H10.1002V20.1H10.4002C10.5328 20.1 10.66 20.0473 10.7537 19.9536C10.8475 19.8598 10.9002 19.7326 10.9002 19.6C10.9002 19.4674 10.8475 19.3402 10.7537 19.2464C10.66 19.1527 10.5328 19.1 10.4002 19.1H10.1002V18.5H11.2002Z" fill="#0060D3" stroke="#0060D3" stroke-width="0.2"/>
<path d="M13.2999 21.2V20.119L13.1599 17.8212C13.1203 17.7394 13.054 17.6735 12.9719 17.6344C12.8898 17.5953 12.7968 17.5853 12.7083 17.6061C12.6198 17.627 12.541 17.6773 12.4849 17.7489C12.4289 17.8205 12.3989 17.9091 12.3999 18H12.2999V18.0005V21.2C12.2999 21.3326 12.3526 21.4598 12.4464 21.5536C12.5401 21.6473 12.6673 21.7 12.7999 21.7C12.9325 21.7 13.0597 21.6473 13.1535 21.5536C13.2472 21.4598 13.2999 21.3326 13.2999 21.2ZM13.8999 19.081L13.2497 17.7771L14.7999 21.2H14.8999V21.1999V18C14.8999 17.8674 14.8472 17.7402 14.7535 17.6464C14.6597 17.5527 14.5325 17.5 14.3999 17.5C14.2673 17.5 14.1401 17.5527 14.0464 17.6464C13.9526 17.7402 13.8999 17.8674 13.8999 18V19.081Z" fill="#0060D3" stroke="#0060D3" stroke-width="0.2"/>
</g>
<defs>
<clipPath id="clip0_476_184">
<rect width="24" height="24" fill="white"/>
</clipPath>
</defs>
</svg>





