<svg width="24" height="24" viewBox="0 0 24 24" fill="none" xmlns="http://www.w3.org/2000/svg">
<g clip-path="url(#clip0_435_519)">
<path d="M23.6574 7.89838L12.4666 0.146381C12.3298 0.0517326 12.1674 0.00102997 12.001 0.00102997C11.8346 0.00102997 11.6722 0.0517326 11.5354 0.146381L8.0002 2.59438V2.39998C8.0002 2.08172 7.87377 1.7765 7.64873 1.55145C7.42369 1.32641 7.11846 1.19998 6.8002 1.19998H5.6002C5.28194 1.19998 4.97672 1.32641 4.75167 1.55145C4.52663 1.7765 4.4002 2.08172 4.4002 2.39998V5.08798L0.343001 7.89838C0.256853 7.95807 0.183327 8.03417 0.126634 8.12232C0.0699418 8.21047 0.0311968 8.30894 0.0126185 8.41209C-0.00595983 8.51523 -0.00400649 8.62103 0.0183666 8.72342C0.0407398 8.82581 0.0830931 8.92278 0.143001 9.00878L0.653401 9.74038C0.77869 9.91955 0.969785 10.0419 1.18495 10.0806C1.40012 10.1194 1.62188 10.0714 1.8018 9.94718L2.0018 9.80998V19.6C2.00244 20.1302 2.21335 20.6386 2.58829 21.0135C2.96322 21.3884 3.47156 21.5993 4.0018 21.6V22.4C4.0018 22.8243 4.17037 23.2313 4.47043 23.5314C4.77049 23.8314 5.17745 24 5.6018 24H18.4002C18.8245 24 19.2315 23.8314 19.5316 23.5314C19.8316 23.2313 20.0002 22.8243 20.0002 22.4V21.6C20.5304 21.5993 21.0388 21.3884 21.4137 21.0135C21.7887 20.6386 21.9996 20.1302 22.0002 19.6V9.80998L22.2002 9.94718C22.3802 10.0713 22.6019 10.1192 22.817 10.0804C23.0322 10.0417 23.2232 9.91946 23.3486 9.74038L23.859 9.00838C23.9189 8.92242 23.9612 8.82548 23.9836 8.72312C24.006 8.62076 24.0079 8.51499 23.9894 8.41188C23.9708 8.30876 23.932 8.21033 23.8753 8.12221C23.8187 8.0341 23.7451 7.95803 23.659 7.89838H23.6574ZM5.2002 2.39998C5.2002 2.29389 5.24234 2.19215 5.31736 2.11714C5.39237 2.04212 5.49411 1.99998 5.6002 1.99998H6.8002C6.90629 1.99998 7.00803 2.04212 7.08304 2.11714C7.15806 2.19215 7.2002 2.29389 7.2002 2.39998V3.14878L5.2002 4.53398V2.39998ZM19.2002 22.4C19.2002 22.6122 19.1159 22.8156 18.9659 22.9657C18.8159 23.1157 18.6124 23.2 18.4002 23.2H5.6002C5.38803 23.2 5.18455 23.1157 5.03452 22.9657C4.88449 22.8156 4.8002 22.6122 4.8002 22.4V16.8C4.8002 16.5878 4.88449 16.3843 5.03452 16.2343C5.18455 16.0843 5.38803 16 5.6002 16H18.4002C18.6124 16 18.8159 16.0843 18.9659 16.2343C19.1159 16.3843 19.2002 16.5878 19.2002 16.8V22.4ZM12.0002 13.6C11.842 13.6 11.6873 13.5531 11.5557 13.4652C11.4242 13.3773 11.3216 13.2523 11.2611 13.1061C11.2005 12.9599 11.1847 12.7991 11.2156 12.6439C11.2464 12.4887 11.3226 12.3462 11.4345 12.2343C11.5464 12.1224 11.6889 12.0462 11.8441 12.0154C11.9993 11.9845 12.1602 12.0003 12.3063 12.0609C12.4525 12.1214 12.5775 12.224 12.6654 12.3555C12.7533 12.4871 12.8002 12.6418 12.8002 12.8C12.8002 13.0122 12.7159 13.2156 12.5659 13.3657C12.4159 13.5157 12.2124 13.6 12.0002 13.6ZM10.969 14.0132C11.2547 14.2626 11.621 14.4 12.0002 14.4C12.3794 14.4 12.7457 14.2626 13.0314 14.0132L15.2222 15.2H8.7782L10.969 14.0132ZM21.2002 19.6C21.2002 19.9182 21.0738 20.2235 20.8487 20.4485C20.6237 20.6736 20.3185 20.8 20.0002 20.8V16.8C20.0002 16.3756 19.8316 15.9687 19.5316 15.6686C19.2315 15.3686 18.8245 15.2 18.4002 15.2H16.9014L13.4954 13.3548C13.5877 13.1125 13.6197 12.8515 13.5887 12.5941C13.5578 12.3367 13.4647 12.0907 13.3176 11.8773C13.1705 11.6638 12.9738 11.4893 12.7443 11.3688C12.5148 11.2482 12.2594 11.1852 12.0002 11.1852C11.741 11.1852 11.4856 11.2482 11.2561 11.3688C11.0266 11.4893 10.8299 11.6638 10.6828 11.8773C10.5357 12.0907 10.4426 12.3367 10.4117 12.5941C10.3807 12.8515 10.4127 13.1125 10.505 13.3548L7.099 15.2H5.6002C5.17585 15.2 4.76889 15.3686 4.46883 15.6686C4.16877 15.9687 4.0002 16.3756 4.0002 16.8V20.8C3.68194 20.8 3.37672 20.6736 3.15167 20.4485C2.92663 20.2235 2.8002 19.9182 2.8002 19.6V9.25718L12.0098 2.89358L21.2002 9.25598V19.6ZM22.6542 9.28958L12.4666 2.23638C12.3298 2.14173 12.1674 2.09103 12.001 2.09103C11.8346 2.09103 11.6722 2.14173 11.5354 2.23638L1.3462 9.28958C1.34338 9.29163 1.34018 9.2931 1.33679 9.29388C1.3334 9.29467 1.32988 9.29477 1.32645 9.29418C1.32301 9.29358 1.31973 9.2923 1.31681 9.29041C1.31388 9.28852 1.31136 9.28606 1.3094 9.28318L0.800201 8.55638L12.0098 0.803581L23.2002 8.55118L22.6542 9.28958Z" fill="#0060D3"/>
<path d="M7.2 17.6H6.4C6.29391 17.6 6.19217 17.6421 6.11716 17.7172C6.04214 17.7922 6 17.8939 6 18V21.2C6 21.3061 6.04214 21.4078 6.11716 21.4828C6.19217 21.5579 6.29391 21.6 6.4 21.6C6.50609 21.6 6.60783 21.5579 6.68284 21.4828C6.75786 21.4078 6.8 21.3061 6.8 21.2V20H7.2C7.30609 20 7.40783 20.0421 7.48284 20.1172C7.55786 20.1922 7.6 20.2939 7.6 20.4V21.2C7.6 21.3061 7.64214 21.4078 7.71716 21.4828C7.79217 21.5579 7.89391 21.6 8 21.6C8.10609 21.6 8.20783 21.5579 8.28284 21.4828C8.35786 21.4078 8.4 21.3061 8.4 21.2V20.4C8.39896 20.1038 8.28774 19.8187 8.088 19.6C8.24441 19.4285 8.3475 19.2152 8.38467 18.9861C8.42183 18.757 8.39147 18.5221 8.29729 18.3099C8.20311 18.0978 8.04918 17.9177 7.85432 17.7916C7.65945 17.6656 7.43209 17.599 7.2 17.6ZM6.8 19.2V18.4H7.2C7.30609 18.4 7.40783 18.4421 7.48284 18.5172C7.55786 18.5922 7.6 18.6939 7.6 18.8C7.6 18.9061 7.55786 19.0078 7.48284 19.0828C7.40783 19.1579 7.30609 19.2 7.2 19.2H6.8Z" fill="#0060D3"/>
<path d="M17.6001 17.6H16.0001C15.894 17.6 15.7923 17.6421 15.7173 17.7172C15.6422 17.7922 15.6001 17.8939 15.6001 18C15.6001 18.1061 15.6422 18.2078 15.7173 18.2828C15.7923 18.3579 15.894 18.4 16.0001 18.4H16.4001V21.2C16.4001 21.3061 16.4422 21.4078 16.5173 21.4828C16.5923 21.5579 16.694 21.6 16.8001 21.6C16.9062 21.6 17.0079 21.5579 17.0829 21.4828C17.158 21.4078 17.2001 21.3061 17.2001 21.2V18.4H17.6001C17.7062 18.4 17.8079 18.3579 17.8829 18.2828C17.958 18.2078 18.0001 18.1061 18.0001 18C18.0001 17.8939 17.958 17.7922 17.8829 17.7172C17.8079 17.6421 17.7062 17.6 17.6001 17.6Z" fill="#0060D3"/>
<path d="M11.2002 18.4C11.3063 18.4 11.408 18.3579 11.483 18.2828C11.5581 18.2078 11.6002 18.1061 11.6002 18C11.6002 17.8939 11.5581 17.7922 11.483 17.7172C11.408 17.6421 11.3063 17.6 11.2002 17.6H9.6002C9.49411 17.6 9.39237 17.6421 9.31735 17.7172C9.24234 17.7922 9.2002 17.8939 9.2002 18V21.2C9.2002 21.3061 9.24234 21.4078 9.31735 21.4828C9.39237 21.5579 9.49411 21.6 9.6002 21.6H11.2002C11.3063 21.6 11.408 21.5579 11.483 21.4828C11.5581 21.4078 11.6002 21.3061 11.6002 21.2C11.6002 21.0939 11.5581 20.9922 11.483 20.9172C11.408 20.8421 11.3063 20.8 11.2002 20.8H10.0002V20H10.4002C10.5063 20 10.608 19.9579 10.683 19.8828C10.7581 19.8078 10.8002 19.7061 10.8002 19.6C10.8002 19.4939 10.7581 19.3922 10.683 19.3172C10.608 19.2421 10.5063 19.2 10.4002 19.2H10.0002V18.4H11.2002Z" fill="#0060D3"/>
<path d="M14.3999 17.6C14.2938 17.6 14.1921 17.6421 14.1171 17.7172C14.0421 17.7922 13.9999 17.8939 13.9999 18V19.5056L13.1599 17.8212C13.1203 17.7394 13.054 17.6735 12.9719 17.6344C12.8898 17.5953 12.7968 17.5853 12.7083 17.6061C12.6198 17.627 12.541 17.6773 12.4849 17.7489C12.4289 17.8205 12.3989 17.9091 12.3999 18V21.2C12.3999 21.3061 12.4421 21.4078 12.5171 21.4828C12.5921 21.5579 12.6938 21.6 12.7999 21.6C12.906 21.6 13.0078 21.5579 13.0828 21.4828C13.1578 21.4078 13.1999 21.3061 13.1999 21.2V19.6944L14.0399 21.3788C14.0733 21.4456 14.1247 21.5017 14.1883 21.5408C14.252 21.5799 14.3253 21.6004 14.3999 21.6C14.4307 21.5999 14.4615 21.5964 14.4915 21.5896C14.5793 21.5689 14.6576 21.5192 14.7136 21.4485C14.7695 21.3778 14.8 21.2902 14.7999 21.2V18C14.7999 17.8939 14.7578 17.7922 14.6828 17.7172C14.6078 17.6421 14.506 17.6 14.3999 17.6Z" fill="#0060D3"/>
</g>
<defs>
<clipPath id="clip0_435_519">
<rect width="24" height="24" fill="white"/>
</clipPath>
</defs>
</svg>
