<svg width="24" height="24" viewBox="0 0 24 24" fill="none" xmlns="http://www.w3.org/2000/svg">
<g clip-path="url(#clip0_476_815)">
<mask id="path-1-outside-1_476_815" maskUnits="userSpaceOnUse" x="1.55615" y="-1" width="21" height="26" fill="black">
<rect fill="white" x="1.55615" y="-1" width="21" height="26"/>
<path d="M20.0263 1.9852H16.3881V1.73016C16.3881 1.52306 16.2202 1.35516 16.0131 1.35516H13.9964C13.6768 0.544266 12.8937 0 11.9999 0C11.1061 0 10.323 0.544172 10.0034 1.35511H7.98672C7.77962 1.35511 7.61172 1.52302 7.61172 1.73011V1.98516H3.97351C3.19196 1.98516 2.55615 2.62097 2.55615 3.40252V22.5826C2.55611 23.3642 3.19196 24 3.97351 24H20.0263C20.8079 24 21.4437 23.3642 21.4437 22.5826V3.40256C21.4437 2.62102 20.8079 1.9852 20.0263 1.9852ZM8.36172 2.10511H10.2773C10.4505 2.10511 10.6012 1.98647 10.6419 1.81805C10.7935 1.18917 11.352 0.75 11.9999 0.75C12.6478 0.75 13.2062 1.18917 13.3579 1.81805C13.3986 1.98647 13.5493 2.10511 13.7225 2.10511H15.6381V4.06528H8.36172V2.10511ZM16.0131 4.81533C16.2202 4.81533 16.3881 4.64742 16.3881 4.44033V4.18528H19.2436V21.7999H4.75623V4.18523H7.61172V4.44028C7.61172 4.64738 7.77962 4.81528 7.98672 4.81528L16.0131 4.81533ZM20.6937 22.5826C20.6937 22.9507 20.3943 23.25 20.0264 23.25H3.97351C3.6055 23.25 3.30615 22.9506 3.30615 22.5826V3.40256C3.30615 3.03455 3.60554 2.7352 3.97351 2.7352H7.61172V3.43528H4.38123C4.17414 3.43528 4.00623 3.60319 4.00623 3.81028V22.1749C4.00623 22.382 4.17414 22.5499 4.38123 22.5499H19.6186C19.8257 22.5499 19.9936 22.382 19.9936 22.1749V3.81023C19.9936 3.60314 19.8257 3.43523 19.6186 3.43523H16.3881V2.7352H20.0263C20.3943 2.7352 20.6937 3.03459 20.6937 3.40256L20.6937 22.5826ZM11.1213 7.335C11.1213 7.12791 11.2892 6.96 11.4963 6.96H16.898C17.1051 6.96 17.273 7.12791 17.273 7.335C17.273 7.54209 17.1051 7.71 16.898 7.71H11.4963C11.2892 7.71 11.1213 7.54209 11.1213 7.335ZM11.1213 9.41949C11.1213 9.21239 11.2892 9.04449 11.4963 9.04449H16.898C17.1051 9.04449 17.273 9.21239 17.273 9.41949C17.273 9.62658 17.1051 9.79449 16.898 9.79449H11.4963C11.2892 9.79449 11.1213 9.62658 11.1213 9.41949ZM11.1213 14.3499C11.1213 14.1428 11.2892 13.9749 11.4963 13.9749H16.898C17.1051 13.9749 17.273 14.1428 17.273 14.3499C17.273 14.557 17.1051 14.7249 16.898 14.7249H11.4963C11.2892 14.7249 11.1213 14.557 11.1213 14.3499ZM11.1213 12.2654C11.1213 12.0583 11.2892 11.8904 11.4963 11.8904H16.898C17.1051 11.8904 17.273 12.0583 17.273 12.2654C17.273 12.4725 17.1051 12.6404 16.898 12.6404H11.4963C11.2892 12.6404 11.1213 12.4725 11.1213 12.2654ZM11.1213 17.1957C11.1213 16.9886 11.2892 16.8207 11.4963 16.8207H16.898C17.1051 16.8207 17.273 16.9886 17.273 17.1957C17.273 17.4028 17.1051 17.5707 16.898 17.5707H11.4963C11.2892 17.5707 11.1213 17.4028 11.1213 17.1957ZM11.1213 19.2803C11.1213 19.0732 11.2892 18.9053 11.4963 18.9053H16.898C17.1051 18.9053 17.273 19.0732 17.273 19.2803C17.273 19.4873 17.1051 19.6553 16.898 19.6553H11.4963C11.2892 19.6553 11.1213 19.4873 11.1213 19.2803ZM6.96957 7.49803C6.96957 7.78584 7.06642 8.05134 7.22903 8.26406C6.55782 8.62388 6.10014 9.33216 6.10014 10.1456C6.10014 10.3527 6.26804 10.5206 6.47514 10.5206H9.99203C10.1991 10.5206 10.367 10.3527 10.367 10.1456C10.367 9.3322 9.90939 8.62392 9.23814 8.26411C9.40075 8.05139 9.49764 7.78589 9.49764 7.49808C9.49764 6.80109 8.93054 6.23405 8.23356 6.23405C7.53657 6.23405 6.96957 6.80105 6.96957 7.49803ZM9.56537 9.77053H6.90175C7.06562 9.18933 7.60061 8.76206 8.23356 8.76206C8.86651 8.76206 9.4015 9.18933 9.56537 9.77053ZM8.23356 6.984C8.51701 6.984 8.74764 7.21458 8.74764 7.49803C8.74764 7.78148 8.51701 8.01211 8.23356 8.01211C7.95011 8.01211 7.71953 7.78148 7.71953 7.49803C7.71953 7.21458 7.95011 6.984 8.23356 6.984ZM9.23818 13.1944C9.40079 12.9817 9.49764 12.7162 9.49764 12.4284C9.49764 11.7314 8.93054 11.1644 8.23356 11.1644C7.53657 11.1644 6.96953 11.7314 6.96953 12.4284C6.96953 12.7162 7.06637 12.9817 7.22898 13.1944C6.55778 13.5542 6.10009 14.2625 6.10009 15.0759C6.10009 15.283 6.268 15.4509 6.47509 15.4509H9.99198C10.1991 15.4509 10.367 15.283 10.367 15.0759C10.367 14.2625 9.90939 13.5542 9.23818 13.1944ZM7.71957 12.4284C7.71957 12.1449 7.95015 11.9144 8.23361 11.9144C8.51706 11.9144 8.74768 12.1449 8.74768 12.4284C8.74768 12.7117 8.51739 12.9421 8.23422 12.9425C8.23403 12.9425 8.23384 12.9425 8.23361 12.9425C8.23337 12.9425 8.23323 12.9425 8.233 12.9425C7.94983 12.9421 7.71957 12.7117 7.71957 12.4284ZM6.90175 14.7009C7.06557 14.1199 7.60023 13.6928 8.23286 13.6925H8.23356C8.23356 13.6925 8.23403 13.6925 8.23426 13.6925C8.86693 13.6928 9.40159 14.1199 9.56537 14.7009H6.90175ZM9.23818 18.1248C9.40079 17.9121 9.49768 17.6466 9.49768 17.3587C9.49768 16.6618 8.93059 16.0947 8.23361 16.0947C7.53662 16.0947 6.96957 16.6618 6.96957 17.3587C6.96957 17.6466 7.06642 17.9121 7.22903 18.1248C6.55782 18.4846 6.10014 19.1929 6.10014 20.0063C6.10014 20.2134 6.26804 20.3813 6.47514 20.3813H9.99203C10.1991 20.3813 10.367 20.2134 10.367 20.0063C10.367 19.1929 9.90939 18.4846 9.23818 18.1248ZM7.71957 17.3587C7.71957 17.0753 7.95015 16.8447 8.23361 16.8447C8.51706 16.8447 8.74768 17.0753 8.74768 17.3587C8.74768 17.6422 8.51706 17.8728 8.23361 17.8728C7.95015 17.8728 7.71957 17.6422 7.71957 17.3587ZM6.90175 19.6313C7.06562 19.0501 7.60061 18.6228 8.23356 18.6228C8.86651 18.6228 9.4015 19.05 9.56537 19.6313H6.90175Z"/>
</mask>
<path d="M20.0263 1.9852H16.3881V1.73016C16.3881 1.52306 16.2202 1.35516 16.0131 1.35516H13.9964C13.6768 0.544266 12.8937 0 11.9999 0C11.1061 0 10.323 0.544172 10.0034 1.35511H7.98672C7.77962 1.35511 7.61172 1.52302 7.61172 1.73011V1.98516H3.97351C3.19196 1.98516 2.55615 2.62097 2.55615 3.40252V22.5826C2.55611 23.3642 3.19196 24 3.97351 24H20.0263C20.8079 24 21.4437 23.3642 21.4437 22.5826V3.40256C21.4437 2.62102 20.8079 1.9852 20.0263 1.9852ZM8.36172 2.10511H10.2773C10.4505 2.10511 10.6012 1.98647 10.6419 1.81805C10.7935 1.18917 11.352 0.75 11.9999 0.75C12.6478 0.75 13.2062 1.18917 13.3579 1.81805C13.3986 1.98647 13.5493 2.10511 13.7225 2.10511H15.6381V4.06528H8.36172V2.10511ZM16.0131 4.81533C16.2202 4.81533 16.3881 4.64742 16.3881 4.44033V4.18528H19.2436V21.7999H4.75623V4.18523H7.61172V4.44028C7.61172 4.64738 7.77962 4.81528 7.98672 4.81528L16.0131 4.81533ZM20.6937 22.5826C20.6937 22.9507 20.3943 23.25 20.0264 23.25H3.97351C3.6055 23.25 3.30615 22.9506 3.30615 22.5826V3.40256C3.30615 3.03455 3.60554 2.7352 3.97351 2.7352H7.61172V3.43528H4.38123C4.17414 3.43528 4.00623 3.60319 4.00623 3.81028V22.1749C4.00623 22.382 4.17414 22.5499 4.38123 22.5499H19.6186C19.8257 22.5499 19.9936 22.382 19.9936 22.1749V3.81023C19.9936 3.60314 19.8257 3.43523 19.6186 3.43523H16.3881V2.7352H20.0263C20.3943 2.7352 20.6937 3.03459 20.6937 3.40256L20.6937 22.5826ZM11.1213 7.335C11.1213 7.12791 11.2892 6.96 11.4963 6.96H16.898C17.1051 6.96 17.273 7.12791 17.273 7.335C17.273 7.54209 17.1051 7.71 16.898 7.71H11.4963C11.2892 7.71 11.1213 7.54209 11.1213 7.335ZM11.1213 9.41949C11.1213 9.21239 11.2892 9.04449 11.4963 9.04449H16.898C17.1051 9.04449 17.273 9.21239 17.273 9.41949C17.273 9.62658 17.1051 9.79449 16.898 9.79449H11.4963C11.2892 9.79449 11.1213 9.62658 11.1213 9.41949ZM11.1213 14.3499C11.1213 14.1428 11.2892 13.9749 11.4963 13.9749H16.898C17.1051 13.9749 17.273 14.1428 17.273 14.3499C17.273 14.557 17.1051 14.7249 16.898 14.7249H11.4963C11.2892 14.7249 11.1213 14.557 11.1213 14.3499ZM11.1213 12.2654C11.1213 12.0583 11.2892 11.8904 11.4963 11.8904H16.898C17.1051 11.8904 17.273 12.0583 17.273 12.2654C17.273 12.4725 17.1051 12.6404 16.898 12.6404H11.4963C11.2892 12.6404 11.1213 12.4725 11.1213 12.2654ZM11.1213 17.1957C11.1213 16.9886 11.2892 16.8207 11.4963 16.8207H16.898C17.1051 16.8207 17.273 16.9886 17.273 17.1957C17.273 17.4028 17.1051 17.5707 16.898 17.5707H11.4963C11.2892 17.5707 11.1213 17.4028 11.1213 17.1957ZM11.1213 19.2803C11.1213 19.0732 11.2892 18.9053 11.4963 18.9053H16.898C17.1051 18.9053 17.273 19.0732 17.273 19.2803C17.273 19.4873 17.1051 19.6553 16.898 19.6553H11.4963C11.2892 19.6553 11.1213 19.4873 11.1213 19.2803ZM6.96957 7.49803C6.96957 7.78584 7.06642 8.05134 7.22903 8.26406C6.55782 8.62388 6.10014 9.33216 6.10014 10.1456C6.10014 10.3527 6.26804 10.5206 6.47514 10.5206H9.99203C10.1991 10.5206 10.367 10.3527 10.367 10.1456C10.367 9.3322 9.90939 8.62392 9.23814 8.26411C9.40075 8.05139 9.49764 7.78589 9.49764 7.49808C9.49764 6.80109 8.93054 6.23405 8.23356 6.23405C7.53657 6.23405 6.96957 6.80105 6.96957 7.49803ZM9.56537 9.77053H6.90175C7.06562 9.18933 7.60061 8.76206 8.23356 8.76206C8.86651 8.76206 9.4015 9.18933 9.56537 9.77053ZM8.23356 6.984C8.51701 6.984 8.74764 7.21458 8.74764 7.49803C8.74764 7.78148 8.51701 8.01211 8.23356 8.01211C7.95011 8.01211 7.71953 7.78148 7.71953 7.49803C7.71953 7.21458 7.95011 6.984 8.23356 6.984ZM9.23818 13.1944C9.40079 12.9817 9.49764 12.7162 9.49764 12.4284C9.49764 11.7314 8.93054 11.1644 8.23356 11.1644C7.53657 11.1644 6.96953 11.7314 6.96953 12.4284C6.96953 12.7162 7.06637 12.9817 7.22898 13.1944C6.55778 13.5542 6.10009 14.2625 6.10009 15.0759C6.10009 15.283 6.268 15.4509 6.47509 15.4509H9.99198C10.1991 15.4509 10.367 15.283 10.367 15.0759C10.367 14.2625 9.90939 13.5542 9.23818 13.1944ZM7.71957 12.4284C7.71957 12.1449 7.95015 11.9144 8.23361 11.9144C8.51706 11.9144 8.74768 12.1449 8.74768 12.4284C8.74768 12.7117 8.51739 12.9421 8.23422 12.9425C8.23403 12.9425 8.23384 12.9425 8.23361 12.9425C8.23337 12.9425 8.23323 12.9425 8.233 12.9425C7.94983 12.9421 7.71957 12.7117 7.71957 12.4284ZM6.90175 14.7009C7.06557 14.1199 7.60023 13.6928 8.23286 13.6925H8.23356C8.23356 13.6925 8.23403 13.6925 8.23426 13.6925C8.86693 13.6928 9.40159 14.1199 9.56537 14.7009H6.90175ZM9.23818 18.1248C9.40079 17.9121 9.49768 17.6466 9.49768 17.3587C9.49768 16.6618 8.93059 16.0947 8.23361 16.0947C7.53662 16.0947 6.96957 16.6618 6.96957 17.3587C6.96957 17.6466 7.06642 17.9121 7.22903 18.1248C6.55782 18.4846 6.10014 19.1929 6.10014 20.0063C6.10014 20.2134 6.26804 20.3813 6.47514 20.3813H9.99203C10.1991 20.3813 10.367 20.2134 10.367 20.0063C10.367 19.1929 9.90939 18.4846 9.23818 18.1248ZM7.71957 17.3587C7.71957 17.0753 7.95015 16.8447 8.23361 16.8447C8.51706 16.8447 8.74768 17.0753 8.74768 17.3587C8.74768 17.6422 8.51706 17.8728 8.23361 17.8728C7.95015 17.8728 7.71957 17.6422 7.71957 17.3587ZM6.90175 19.6313C7.06562 19.0501 7.60061 18.6228 8.23356 18.6228C8.86651 18.6228 9.4015 19.05 9.56537 19.6313H6.90175Z" fill="#0060D3"/>
<path d="M20.0263 1.9852H16.3881V1.73016C16.3881 1.52306 16.2202 1.35516 16.0131 1.35516H13.9964C13.6768 0.544266 12.8937 0 11.9999 0C11.1061 0 10.323 0.544172 10.0034 1.35511H7.98672C7.77962 1.35511 7.61172 1.52302 7.61172 1.73011V1.98516H3.97351C3.19196 1.98516 2.55615 2.62097 2.55615 3.40252V22.5826C2.55611 23.3642 3.19196 24 3.97351 24H20.0263C20.8079 24 21.4437 23.3642 21.4437 22.5826V3.40256C21.4437 2.62102 20.8079 1.9852 20.0263 1.9852ZM8.36172 2.10511H10.2773C10.4505 2.10511 10.6012 1.98647 10.6419 1.81805C10.7935 1.18917 11.352 0.75 11.9999 0.75C12.6478 0.75 13.2062 1.18917 13.3579 1.81805C13.3986 1.98647 13.5493 2.10511 13.7225 2.10511H15.6381V4.06528H8.36172V2.10511ZM16.0131 4.81533C16.2202 4.81533 16.3881 4.64742 16.3881 4.44033V4.18528H19.2436V21.7999H4.75623V4.18523H7.61172V4.44028C7.61172 4.64738 7.77962 4.81528 7.98672 4.81528L16.0131 4.81533ZM20.6937 22.5826C20.6937 22.9507 20.3943 23.25 20.0264 23.25H3.97351C3.6055 23.25 3.30615 22.9506 3.30615 22.5826V3.40256C3.30615 3.03455 3.60554 2.7352 3.97351 2.7352H7.61172V3.43528H4.38123C4.17414 3.43528 4.00623 3.60319 4.00623 3.81028V22.1749C4.00623 22.382 4.17414 22.5499 4.38123 22.5499H19.6186C19.8257 22.5499 19.9936 22.382 19.9936 22.1749V3.81023C19.9936 3.60314 19.8257 3.43523 19.6186 3.43523H16.3881V2.7352H20.0263C20.3943 2.7352 20.6937 3.03459 20.6937 3.40256L20.6937 22.5826ZM11.1213 7.335C11.1213 7.12791 11.2892 6.96 11.4963 6.96H16.898C17.1051 6.96 17.273 7.12791 17.273 7.335C17.273 7.54209 17.1051 7.71 16.898 7.71H11.4963C11.2892 7.71 11.1213 7.54209 11.1213 7.335ZM11.1213 9.41949C11.1213 9.21239 11.2892 9.04449 11.4963 9.04449H16.898C17.1051 9.04449 17.273 9.21239 17.273 9.41949C17.273 9.62658 17.1051 9.79449 16.898 9.79449H11.4963C11.2892 9.79449 11.1213 9.62658 11.1213 9.41949ZM11.1213 14.3499C11.1213 14.1428 11.2892 13.9749 11.4963 13.9749H16.898C17.1051 13.9749 17.273 14.1428 17.273 14.3499C17.273 14.557 17.1051 14.7249 16.898 14.7249H11.4963C11.2892 14.7249 11.1213 14.557 11.1213 14.3499ZM11.1213 12.2654C11.1213 12.0583 11.2892 11.8904 11.4963 11.8904H16.898C17.1051 11.8904 17.273 12.0583 17.273 12.2654C17.273 12.4725 17.1051 12.6404 16.898 12.6404H11.4963C11.2892 12.6404 11.1213 12.4725 11.1213 12.2654ZM11.1213 17.1957C11.1213 16.9886 11.2892 16.8207 11.4963 16.8207H16.898C17.1051 16.8207 17.273 16.9886 17.273 17.1957C17.273 17.4028 17.1051 17.5707 16.898 17.5707H11.4963C11.2892 17.5707 11.1213 17.4028 11.1213 17.1957ZM11.1213 19.2803C11.1213 19.0732 11.2892 18.9053 11.4963 18.9053H16.898C17.1051 18.9053 17.273 19.0732 17.273 19.2803C17.273 19.4873 17.1051 19.6553 16.898 19.6553H11.4963C11.2892 19.6553 11.1213 19.4873 11.1213 19.2803ZM6.96957 7.49803C6.96957 7.78584 7.06642 8.05134 7.22903 8.26406C6.55782 8.62388 6.10014 9.33216 6.10014 10.1456C6.10014 10.3527 6.26804 10.5206 6.47514 10.5206H9.99203C10.1991 10.5206 10.367 10.3527 10.367 10.1456C10.367 9.3322 9.90939 8.62392 9.23814 8.26411C9.40075 8.05139 9.49764 7.78589 9.49764 7.49808C9.49764 6.80109 8.93054 6.23405 8.23356 6.23405C7.53657 6.23405 6.96957 6.80105 6.96957 7.49803ZM9.56537 9.77053H6.90175C7.06562 9.18933 7.60061 8.76206 8.23356 8.76206C8.86651 8.76206 9.4015 9.18933 9.56537 9.77053ZM8.23356 6.984C8.51701 6.984 8.74764 7.21458 8.74764 7.49803C8.74764 7.78148 8.51701 8.01211 8.23356 8.01211C7.95011 8.01211 7.71953 7.78148 7.71953 7.49803C7.71953 7.21458 7.95011 6.984 8.23356 6.984ZM9.23818 13.1944C9.40079 12.9817 9.49764 12.7162 9.49764 12.4284C9.49764 11.7314 8.93054 11.1644 8.23356 11.1644C7.53657 11.1644 6.96953 11.7314 6.96953 12.4284C6.96953 12.7162 7.06637 12.9817 7.22898 13.1944C6.55778 13.5542 6.10009 14.2625 6.10009 15.0759C6.10009 15.283 6.268 15.4509 6.47509 15.4509H9.99198C10.1991 15.4509 10.367 15.283 10.367 15.0759C10.367 14.2625 9.90939 13.5542 9.23818 13.1944ZM7.71957 12.4284C7.71957 12.1449 7.95015 11.9144 8.23361 11.9144C8.51706 11.9144 8.74768 12.1449 8.74768 12.4284C8.74768 12.7117 8.51739 12.9421 8.23422 12.9425C8.23403 12.9425 8.23384 12.9425 8.23361 12.9425C8.23337 12.9425 8.23323 12.9425 8.233 12.9425C7.94983 12.9421 7.71957 12.7117 7.71957 12.4284ZM6.90175 14.7009C7.06557 14.1199 7.60023 13.6928 8.23286 13.6925H8.23356C8.23356 13.6925 8.23403 13.6925 8.23426 13.6925C8.86693 13.6928 9.40159 14.1199 9.56537 14.7009H6.90175ZM9.23818 18.1248C9.40079 17.9121 9.49768 17.6466 9.49768 17.3587C9.49768 16.6618 8.93059 16.0947 8.23361 16.0947C7.53662 16.0947 6.96957 16.6618 6.96957 17.3587C6.96957 17.6466 7.06642 17.9121 7.22903 18.1248C6.55782 18.4846 6.10014 19.1929 6.10014 20.0063C6.10014 20.2134 6.26804 20.3813 6.47514 20.3813H9.99203C10.1991 20.3813 10.367 20.2134 10.367 20.0063C10.367 19.1929 9.90939 18.4846 9.23818 18.1248ZM7.71957 17.3587C7.71957 17.0753 7.95015 16.8447 8.23361 16.8447C8.51706 16.8447 8.74768 17.0753 8.74768 17.3587C8.74768 17.6422 8.51706 17.8728 8.23361 17.8728C7.95015 17.8728 7.71957 17.6422 7.71957 17.3587ZM6.90175 19.6313C7.06562 19.0501 7.60061 18.6228 8.23356 18.6228C8.86651 18.6228 9.4015 19.05 9.56537 19.6313H6.90175Z" stroke="#0060D3" stroke-width="0.4" mask="url(#path-1-outside-1_476_815)"/>
</g>
<defs>
<clipPath id="clip0_476_815">
<rect width="24" height="24" fill="white"/>
</clipPath>
</defs>
</svg>

